{"glyphs":{"0":{"ha":979,"x_min":76,"x_max":903,"o":"m 489 947 q 671 922 593 947 q 800 840 749 897 q 877 687 851 782 q 903 453 903 592 q 877 225 903 317 q 800 78 851 133 q 671 1 749 24 q 489 -22 593 -22 q 307 1 385 -22 q 178 78 229 24 q 101 225 126 133 q 76 453 76 317 q 102 687 76 592 q 178 840 128 782 q 307 922 229 897 q 489 947 385 947 m 489 851 q 388 824 428 851 q 324 744 347 796 q 292 619 301 692 q 283 454 283 546 q 292 274 283 346 q 324 157 301 201 q 387 94 347 113 q 489 75 426 75 q 591 94 551 75 q 654 157 631 113 q 687 274 678 201 q 696 454 696 346 q 687 619 696 546 q 654 744 678 692 q 591 824 631 796 q 489 851 551 851 z "},"1":{"ha":692,"x_min":76,"x_max":617,"o":"m 478 938 q 472 874 474 900 q 469 824 469 847 l 469 139 q 617 79 469 79 l 617 0 l 94 0 l 94 79 q 267 139 267 79 l 267 713 l 82 713 l 76 788 q 344 953 271 792 l 478 938 z "},"2":{"ha":908,"x_min":76,"x_max":833,"o":"m 829 243 q 833 204 832 225 q 833 168 833 183 q 825 97 833 131 q 797 39 817 64 q 744 -1 776 14 q 664 -15 711 -15 q 555 -1 597 -15 q 475 32 513 14 q 396 65 438 50 q 290 79 354 79 q 203 58 238 79 q 143 0 169 38 l 76 0 q 146 189 99 115 q 250 312 193 263 q 368 395 307 361 q 479 466 429 429 q 561 552 529 503 q 593 681 593 601 q 548 807 593 756 q 408 858 503 858 q 339 851 368 858 q 289 833 310 844 q 254 806 268 821 q 231 775 240 790 q 283 749 260 774 q 307 689 307 725 q 281 617 307 646 q 206 589 254 589 q 133 619 158 589 q 107 696 107 649 q 126 779 107 735 q 184 861 144 824 q 286 923 224 899 q 436 947 349 947 q 574 932 507 947 q 691 883 640 917 q 773 792 742 849 q 804 654 804 736 q 765 506 804 564 q 664 408 725 447 q 531 341 603 368 q 393 287 458 314 q 278 226 328 260 q 215 139 229 192 q 308 194 263 181 q 403 208 354 208 q 483 197 449 208 q 548 174 518 186 q 606 150 578 161 q 668 139 635 139 q 701 142 685 139 q 730 158 717 146 q 753 190 743 169 q 768 243 763 210 l 829 243 z "},"3":{"ha":894,"x_min":69,"x_max":818,"o":"m 363 539 q 446 553 407 542 q 514 585 485 564 q 560 637 543 606 q 576 713 576 668 q 534 819 576 779 q 399 858 492 858 q 297 840 344 858 q 221 781 250 821 q 281 754 256 778 q 306 694 306 731 q 279 624 306 653 q 204 594 253 594 q 133 624 158 594 q 107 701 107 654 q 124 783 107 740 q 181 863 142 826 q 285 923 221 899 q 442 947 349 947 q 573 934 511 947 q 681 892 635 921 q 755 821 728 864 q 782 718 782 778 q 729 583 782 633 q 558 510 676 533 q 753 428 689 492 q 818 269 818 365 q 787 138 818 193 q 701 48 756 83 q 572 -5 646 13 q 411 -22 497 -22 q 265 0 329 -22 q 158 56 201 22 q 92 132 114 90 q 69 214 69 174 q 95 292 69 263 q 169 322 121 322 q 244 293 217 322 q 271 219 271 264 q 251 167 271 192 q 204 140 232 143 q 280 86 222 107 q 408 65 338 65 q 560 113 508 65 q 611 249 611 161 q 549 412 611 361 q 354 474 488 463 l 363 539 z "},"4":{"ha":939,"x_min":63,"x_max":872,"o":"m 746 389 l 872 389 l 856 275 l 746 275 l 746 142 q 872 79 746 79 l 872 0 l 375 0 l 375 79 q 546 142 546 79 l 546 275 l 63 275 l 63 358 l 556 947 l 746 947 l 746 389 m 210 389 l 546 389 l 546 792 l 210 389 z "},"5":{"ha":917,"x_min":69,"x_max":840,"o":"m 788 911 q 651 808 735 842 q 478 774 568 774 q 432 775 458 774 q 376 781 406 776 q 315 792 346 785 q 258 810 285 799 l 238 600 q 355 642 296 631 q 481 654 414 654 q 654 625 585 654 q 765 550 724 596 q 824 447 807 504 q 840 331 840 389 q 808 169 840 236 q 717 60 775 103 q 582 -2 660 18 q 415 -22 504 -22 q 277 -2 340 -22 q 168 51 214 18 q 96 128 122 85 q 69 219 69 172 q 94 297 69 267 q 168 326 119 326 q 242 297 215 326 q 269 226 269 268 q 249 170 269 194 q 203 143 229 146 q 271 87 218 108 q 399 65 324 65 q 626 329 626 65 q 614 419 626 376 q 576 492 601 461 q 513 542 551 524 q 422 560 474 560 q 188 500 293 560 l 124 546 l 161 947 q 242 938 197 942 q 333 931 286 933 q 426 926 381 928 q 511 925 472 925 q 652 933 578 925 q 786 957 726 942 l 788 911 z "},"6":{"ha":908,"x_min":76,"x_max":831,"o":"m 267 469 q 372 558 303 528 q 533 589 440 589 q 660 567 604 589 q 753 506 715 544 q 810 414 790 467 q 831 300 831 361 q 814 180 831 238 q 754 77 797 122 q 637 5 711 32 q 449 -22 563 -22 q 289 3 358 -22 q 172 88 219 29 q 101 239 125 146 q 76 468 76 332 q 98 649 76 563 q 167 802 119 736 q 294 908 215 868 q 485 947 372 947 q 616 930 556 947 q 721 882 676 913 q 791 810 765 851 q 817 722 817 769 q 791 647 817 675 q 718 619 765 619 q 642 647 669 619 q 615 717 615 674 q 635 771 615 749 q 682 794 656 793 q 613 845 661 826 q 497 864 564 864 q 397 846 440 864 q 325 783 354 828 q 281 662 296 738 q 267 469 267 586 m 460 494 q 334 444 385 494 q 283 283 283 394 q 332 109 283 163 q 458 56 381 56 q 529 68 496 56 q 587 108 563 81 q 625 177 611 135 q 639 278 639 219 q 625 378 639 336 q 587 445 611 419 q 530 483 563 471 q 460 494 497 494 z "},"7":{"ha":804,"x_min":63,"x_max":769,"o":"m 769 881 q 614 698 674 776 q 521 548 554 619 q 476 401 488 476 q 464 226 464 325 q 466 178 464 203 q 468 132 468 154 q 464 76 468 103 q 448 28 460 49 q 415 -6 436 7 q 361 -18 394 -18 q 268 29 299 -18 q 238 156 238 76 q 266 340 238 253 q 344 503 294 426 q 459 647 393 581 q 600 771 525 714 q 537 749 567 754 q 483 743 507 743 q 410 754 443 743 q 347 779 376 765 q 288 804 317 793 q 228 815 258 815 q 197 810 213 815 q 169 793 182 806 q 144 760 156 781 q 128 707 133 739 l 67 707 q 63 746 64 725 q 63 783 63 767 q 71 854 63 821 q 99 913 79 888 q 150 952 118 938 q 231 967 182 967 q 340 951 297 967 q 419 919 382 936 q 499 886 457 901 q 608 871 542 871 q 676 889 650 871 q 729 947 703 907 l 769 881 z "},"8":{"ha":922,"x_min":76,"x_max":846,"o":"m 619 519 q 787 421 728 490 q 846 254 846 351 q 817 131 846 183 q 737 45 788 79 q 616 -6 686 11 q 463 -22 546 -22 q 308 -6 379 -22 q 186 43 238 10 q 106 126 135 76 q 76 243 76 176 q 129 392 76 326 q 290 486 182 458 q 223 523 254 501 q 167 572 192 544 q 129 634 143 600 q 115 708 115 668 q 142 816 115 771 q 214 890 168 861 q 323 933 260 919 q 461 947 386 947 q 599 933 536 947 q 708 891 663 919 q 781 819 754 863 q 807 717 807 776 q 757 600 807 653 q 619 519 707 547 m 369 443 q 265 371 294 417 q 235 244 235 325 q 288 118 235 165 q 450 71 342 71 q 661 225 661 71 q 633 313 661 279 q 560 370 604 347 q 466 409 517 393 q 369 443 415 425 m 522 560 q 617 615 585 582 q 650 718 650 649 q 641 770 650 744 q 611 815 632 796 q 556 847 590 835 q 474 858 522 858 q 343 824 386 858 q 300 726 300 789 q 319 669 300 694 q 368 624 338 644 q 439 588 399 604 q 522 560 479 572 z "},"9":{"ha":908,"x_min":76,"x_max":831,"o":"m 219 129 q 291 78 240 97 q 410 60 342 60 q 508 78 465 60 q 578 140 550 96 q 621 260 607 185 q 635 453 635 336 q 372 335 561 335 q 247 357 301 335 q 153 419 192 379 q 96 510 115 458 q 76 624 76 563 q 93 744 76 686 q 152 848 110 803 q 268 920 194 893 q 457 947 342 947 q 617 921 547 947 q 734 835 686 894 q 806 682 782 776 q 831 450 831 588 q 809 273 831 358 q 739 122 788 188 q 613 17 690 56 q 421 -22 535 -22 q 289 -5 350 -22 q 183 42 228 13 q 112 113 138 72 q 86 201 86 154 q 111 277 86 249 q 185 306 136 306 q 260 278 233 306 q 286 208 286 250 q 266 154 286 176 q 219 129 246 132 m 447 868 q 319 815 371 868 q 267 646 267 761 q 281 547 267 588 q 319 479 294 506 q 376 441 343 453 q 446 429 408 429 q 572 479 522 429 q 622 642 622 529 q 609 744 622 701 q 573 815 596 788 q 518 855 550 842 q 447 868 486 868 z "}," ":{"ha":479,"x_min":0,"x_max":0,"o":""},"!":{"ha":508,"x_min":140,"x_max":360,"o":"m 208 307 q 191 561 201 458 q 170 734 181 664 q 152 849 160 804 q 144 929 144 893 q 174 1020 144 996 q 254 1044 204 1044 q 331 1019 303 1044 q 360 932 360 994 q 353 850 360 896 q 335 734 346 804 q 313 561 325 664 q 292 307 301 458 l 208 307 m 360 99 q 328 21 360 53 q 251 -11 296 -11 q 173 21 206 -11 q 140 99 140 53 q 173 176 140 143 q 251 208 206 208 q 328 176 296 208 q 360 99 360 143 z "},"\"":{"ha":544,"x_min":51,"x_max":493,"o":"m 369 599 q 353 756 363 693 q 336 860 344 818 q 322 932 328 903 q 317 989 317 961 q 325 1029 317 1014 q 347 1052 333 1044 q 376 1063 360 1060 q 407 1065 392 1065 q 436 1063 421 1065 q 464 1051 451 1060 q 485 1028 476 1043 q 493 990 493 1014 q 488 933 493 963 q 476 861 483 904 q 458 755 468 818 q 439 599 449 692 l 369 599 m 103 599 q 87 756 96 693 q 70 860 78 818 q 57 932 63 903 q 51 989 51 961 q 59 1029 51 1014 q 79 1052 67 1044 q 108 1063 92 1060 q 140 1065 124 1065 q 169 1063 154 1065 q 197 1051 185 1060 q 218 1028 210 1043 q 226 990 226 1014 q 222 933 226 963 q 209 861 217 904 q 192 755 201 818 q 172 599 182 692 l 103 599 z "},"#":{"ha":794,"x_min":65,"x_max":733,"o":"m 621 660 l 733 660 l 733 567 l 604 567 l 564 340 l 688 340 l 688 246 l 547 246 l 503 0 l 403 0 l 447 246 l 283 246 l 239 0 l 139 0 l 183 246 l 65 246 l 65 340 l 200 340 l 242 567 l 111 567 l 111 660 l 258 660 l 306 925 l 404 925 l 357 660 l 522 660 l 569 925 l 668 925 l 621 660 m 340 567 l 300 340 l 464 340 l 506 567 l 340 567 z "},"$":{"ha":783,"x_min":75,"x_max":718,"o":"m 682 610 l 599 601 q 542 722 588 678 q 426 779 497 765 l 426 590 q 538 566 485 579 q 631 528 590 553 q 694 467 671 504 q 718 371 718 429 q 695 274 718 314 q 633 210 672 235 q 540 174 593 185 q 426 163 486 163 l 426 0 l 367 0 l 367 167 q 299 183 328 172 q 249 205 269 194 q 213 224 228 215 q 189 232 199 232 q 161 199 161 232 l 161 175 l 75 171 l 75 429 l 156 438 q 228 312 168 361 q 367 249 288 263 l 367 446 q 248 474 301 458 q 156 514 194 489 q 97 577 118 539 q 76 672 76 615 q 142 817 76 764 q 329 869 207 869 q 348 869 339 869 q 367 867 357 868 l 367 1032 l 426 1032 l 426 857 q 474 840 451 850 q 515 822 496 831 q 548 806 533 813 q 571 800 563 800 q 593 815 586 800 q 604 856 600 831 l 682 856 l 682 610 m 426 243 q 531 269 499 243 q 564 335 564 294 q 524 403 564 382 q 426 435 485 424 l 426 243 m 367 785 q 269 767 308 785 q 229 704 229 749 q 269 635 229 657 q 367 603 308 614 l 367 785 z "},"%":{"ha":1115,"x_min":85,"x_max":1039,"o":"m 333 0 l 215 0 l 792 947 l 915 947 l 333 0 m 313 947 q 398 935 358 947 q 468 897 438 924 q 516 826 499 869 q 533 719 533 782 q 475 552 533 615 q 304 489 417 489 q 220 500 260 489 q 151 538 181 511 q 103 606 121 564 q 85 708 85 647 q 140 882 85 817 q 313 947 196 947 m 314 889 q 226 849 254 889 q 199 735 199 810 q 206 643 199 679 q 226 585 213 607 q 260 556 240 564 q 304 547 279 547 q 392 591 367 547 q 417 714 417 635 q 410 799 417 765 q 389 853 403 833 q 356 881 375 874 q 314 889 338 889 m 818 458 q 903 447 864 458 q 974 408 943 435 q 1022 337 1004 381 q 1039 231 1039 293 q 981 63 1039 126 q 810 0 922 0 q 726 11 765 0 q 656 49 686 22 q 608 117 626 75 q 590 219 590 158 q 646 393 590 328 q 818 458 701 458 m 819 400 q 733 360 761 400 q 706 246 706 321 q 713 154 706 190 q 733 97 719 118 q 766 67 747 75 q 810 58 785 58 q 898 102 872 58 q 924 225 924 146 q 916 310 924 276 q 895 365 908 344 q 863 392 882 385 q 819 400 843 400 z "},"&":{"ha":1293,"x_min":86,"x_max":1188,"o":"m 1161 536 q 1072 522 1099 536 q 1046 475 1046 507 q 1004 298 1046 388 q 883 136 963 208 q 944 105 914 117 q 1003 93 975 93 q 1079 118 1050 93 q 1108 199 1108 143 l 1108 276 l 1188 276 l 1188 199 q 1135 36 1188 94 q 974 -22 1082 -22 q 867 -3 919 -22 q 761 49 814 15 q 630 -3 699 15 q 485 -22 561 -22 q 332 -5 404 -22 q 205 49 260 13 q 118 144 150 86 q 86 286 86 203 q 106 400 86 350 q 158 488 125 450 q 236 556 192 526 q 331 608 281 585 q 282 804 282 717 q 301 904 282 858 q 355 983 319 950 q 441 1035 390 1017 q 556 1054 492 1054 q 713 1001 651 1054 q 774 847 774 947 q 754 752 774 793 q 702 680 735 711 q 628 624 669 649 q 542 576 586 599 q 653 381 589 479 q 789 210 718 282 q 875 328 842 260 q 908 475 908 396 q 881 522 908 507 q 792 536 854 536 l 792 617 l 1161 617 l 1161 536 m 389 483 q 306 407 339 450 q 272 297 272 364 q 288 212 272 250 q 333 147 304 174 q 400 105 361 119 q 485 90 439 90 q 569 100 526 90 q 653 129 613 110 q 505 294 574 201 q 389 483 436 388 m 500 679 q 560 711 532 694 q 608 749 588 728 q 641 797 629 771 q 653 858 653 824 q 629 933 653 911 q 561 956 606 956 q 516 945 535 956 q 485 917 497 935 q 468 878 474 900 q 463 833 463 856 q 472 763 463 801 q 500 679 482 725 z "},"'":{"ha":278,"x_min":51,"x_max":226,"o":"m 103 599 q 87 756 96 693 q 70 860 78 818 q 57 932 63 903 q 51 989 51 961 q 59 1029 51 1014 q 79 1052 67 1044 q 108 1063 92 1060 q 140 1065 124 1065 q 169 1063 154 1065 q 197 1051 185 1060 q 218 1028 210 1043 q 226 990 226 1014 q 222 933 226 963 q 209 861 217 904 q 192 755 201 818 q 172 599 182 692 l 103 599 z "},"(":{"ha":517,"x_min":51,"x_max":465,"o":"m 465 1079 q 267 864 331 1024 q 204 446 204 704 q 267 19 204 188 q 465 -221 331 -150 l 428 -285 q 269 -186 339 -244 q 151 -42 200 -128 q 77 164 103 44 q 51 446 51 283 q 77 726 51 610 q 152 922 103 842 q 272 1055 201 1003 q 431 1142 342 1107 l 465 1079 z "},")":{"ha":517,"x_min":51,"x_max":465,"o":"m 86 1142 q 245 1052 175 1106 q 364 916 315 999 q 439 715 413 833 q 465 433 465 597 q 440 153 465 271 q 365 -49 414 36 q 247 -190 317 -133 q 88 -285 176 -246 q 80 -272 85 -281 q 69 -253 75 -264 q 58 -234 63 -243 q 51 -221 53 -225 q 249 8 185 -158 q 313 433 313 175 q 249 854 313 693 q 51 1078 186 1015 l 86 1142 z "},"*":{"ha":878,"x_min":99,"x_max":753,"o":"m 600 765 q 714 753 675 765 q 753 700 753 740 q 738 665 753 681 q 693 649 722 649 q 642 659 671 649 q 586 683 614 669 q 533 708 558 696 q 490 725 507 721 q 482 715 482 725 q 501 678 482 701 q 542 630 519 656 q 585 578 565 604 q 604 531 604 551 q 586 492 604 510 q 549 475 568 475 q 508 492 524 475 q 481 533 492 508 q 465 586 471 557 q 453 640 458 615 q 442 681 447 664 q 428 697 436 697 q 412 681 418 697 q 400 640 406 664 q 388 586 394 615 q 371 533 381 557 q 346 492 361 508 q 307 475 331 475 q 269 492 288 475 q 250 532 250 508 q 269 581 250 553 q 313 635 289 608 q 356 684 336 663 q 375 715 375 706 q 363 725 375 725 q 322 710 347 722 q 269 684 297 697 q 213 660 242 671 q 160 650 183 650 q 115 667 132 650 q 99 704 99 683 q 217 767 99 767 l 328 767 q 360 778 360 767 q 344 797 360 788 q 306 815 329 806 q 256 836 283 825 q 206 860 229 847 q 168 888 183 872 q 153 922 153 903 q 169 958 153 942 q 210 975 186 975 q 264 951 236 975 q 316 897 292 926 q 360 842 340 867 q 392 818 381 818 q 403 838 403 818 q 398 881 403 860 q 388 924 393 903 q 377 966 382 944 q 372 1008 372 988 q 388 1056 372 1039 q 428 1072 404 1072 q 468 1056 449 1072 q 488 1008 488 1040 q 482 967 488 988 q 469 924 476 946 q 457 881 463 903 q 451 835 451 858 q 463 818 451 818 q 497 842 476 818 q 542 897 518 867 q 593 951 567 926 q 644 975 619 975 q 685 958 667 975 q 703 921 703 940 q 688 887 703 903 q 649 858 672 871 q 599 833 626 844 q 549 813 572 822 q 511 794 526 803 q 496 776 496 785 q 511 767 496 769 q 547 765 526 765 l 600 765 l 600 765 z "},"+":{"ha":788,"x_min":51,"x_max":736,"o":"m 736 442 l 446 442 l 446 165 l 339 165 l 339 442 l 51 442 l 51 543 l 339 543 l 339 818 l 446 818 l 446 543 l 736 543 l 736 442 z "},",":{"ha":469,"x_min":119,"x_max":358,"o":"m 122 -162 q 184 -122 161 -142 q 219 -85 207 -103 q 234 -53 231 -68 q 238 -24 238 -37 q 217 1 238 1 q 119 93 119 1 q 149 172 119 144 q 229 199 178 199 q 325 163 292 199 q 358 56 358 126 q 306 -103 358 -40 q 154 -214 254 -165 l 122 -162 z "},"-":{"ha":467,"x_min":38,"x_max":428,"o":"m 428 343 l 38 343 l 38 451 l 428 451 l 428 343 z "},".":{"ha":456,"x_min":117,"x_max":336,"o":"m 336 99 q 304 21 336 53 q 226 -11 272 -11 q 149 21 181 -11 q 117 99 117 53 q 149 176 117 143 q 226 208 181 208 q 304 176 272 208 q 336 99 336 143 z "},"/":{"ha":594,"x_min":36,"x_max":554,"o":"m 147 -42 l 36 -42 l 444 1033 l 554 1033 l 147 -42 z "},":":{"ha":456,"x_min":117,"x_max":336,"o":"m 336 99 q 304 21 336 53 q 226 -11 272 -11 q 149 21 181 -11 q 117 99 117 53 q 149 176 117 143 q 226 208 181 208 q 304 176 272 208 q 336 99 336 143 m 226 657 q 304 624 272 657 q 336 547 336 592 q 304 470 336 503 q 226 438 272 438 q 149 470 181 438 q 117 547 117 503 q 149 624 117 592 q 226 657 181 657 z "},";":{"ha":469,"x_min":119,"x_max":358,"o":"m 122 -162 q 184 -122 161 -142 q 219 -85 207 -103 q 234 -53 231 -68 q 238 -24 238 -37 q 217 1 238 1 q 119 93 119 1 q 149 172 119 144 q 229 199 178 199 q 325 163 292 199 q 358 56 358 126 q 306 -103 358 -40 q 154 -214 254 -165 l 122 -162 m 343 547 q 311 470 343 503 q 233 438 279 438 q 156 470 189 438 q 124 547 124 503 q 156 624 124 592 q 233 657 189 657 q 311 624 279 657 q 343 547 343 592 z "},"<":{"ha":660,"x_min":51,"x_max":608,"o":"m 608 706 l 272 488 l 606 264 l 568 206 l 51 488 l 568 767 l 608 706 z "},"=":{"ha":693,"x_min":51,"x_max":642,"o":"m 642 593 l 51 593 l 51 697 l 642 697 l 642 593 m 642 283 l 51 283 l 51 389 l 642 389 l 642 283 z "},">":{"ha":657,"x_min":51,"x_max":606,"o":"m 90 206 l 51 264 l 382 488 l 51 706 l 89 768 l 606 488 l 90 206 z "},"?":{"ha":804,"x_min":63,"x_max":740,"o":"m 332 339 q 331 353 331 346 q 331 367 331 360 q 345 463 331 421 q 381 540 360 506 q 428 606 403 575 q 476 667 454 636 q 512 734 497 699 q 526 814 526 769 q 488 921 526 878 q 372 964 449 964 q 294 957 325 964 q 242 940 263 950 q 208 915 221 929 q 186 888 196 901 q 242 862 219 886 q 265 800 265 838 q 241 728 265 758 q 161 697 217 697 q 90 728 117 697 q 63 807 63 760 q 78 889 63 846 q 134 969 94 932 q 239 1030 174 1006 q 404 1054 304 1054 q 535 1044 474 1054 q 642 1006 596 1033 q 714 934 688 979 q 740 821 740 889 q 718 715 740 758 q 662 637 696 671 q 588 574 628 603 q 513 513 549 546 q 451 439 476 481 q 419 339 425 397 l 332 339 m 492 99 q 460 21 492 53 q 382 -11 428 -11 q 305 21 338 -11 q 272 99 272 53 q 305 176 272 143 q 382 208 338 208 q 460 176 428 208 q 492 99 492 143 z "},"@":{"ha":1375,"x_min":106,"x_max":1272,"o":"m 947 279 q 946 266 946 272 q 946 253 946 260 q 959 197 946 214 q 1006 179 972 179 q 1056 193 1031 179 q 1103 240 1082 207 q 1137 326 1124 272 q 1150 458 1150 379 q 1117 633 1150 556 q 1027 763 1085 710 q 890 843 969 815 q 719 871 811 871 q 531 835 615 871 q 389 735 447 800 q 299 576 331 669 q 268 368 268 483 q 301 154 268 249 q 397 -6 335 60 q 547 -108 458 -72 q 749 -143 636 -143 q 930 -115 840 -143 q 1096 -28 1019 -86 l 1142 -97 q 944 -201 1054 -168 q 721 -233 835 -233 q 464 -194 578 -233 q 270 -81 350 -156 q 148 104 190 -6 q 106 356 106 214 q 147 603 106 493 q 268 790 189 713 q 461 908 347 867 q 719 950 575 950 q 954 916 851 950 q 1128 819 1057 882 q 1235 664 1199 756 q 1272 458 1272 572 q 1249 308 1272 372 q 1188 202 1226 244 q 1101 138 1150 160 q 1001 117 1053 117 q 910 142 942 117 q 864 210 878 168 q 792 138 840 165 q 681 111 744 111 q 594 126 635 111 q 523 170 553 140 q 476 246 493 200 q 458 354 458 292 q 479 481 458 428 q 536 570 500 535 q 621 622 572 606 q 725 639 669 639 q 822 615 783 639 q 885 556 861 592 l 924 625 l 994 625 l 947 279 m 725 579 q 628 519 667 579 q 590 354 590 458 q 596 265 590 300 q 615 209 601 229 q 650 181 628 189 q 706 172 672 172 q 763 192 739 172 q 801 247 786 213 q 822 324 815 281 q 829 417 829 368 q 805 544 829 510 q 725 579 781 579 z "},"A":{"ha":1221,"x_min":51,"x_max":1169,"o":"m 1056 122 q 1169 81 1069 81 l 1169 0 l 661 0 l 661 81 l 783 81 q 824 107 824 81 q 819 122 824 111 l 764 272 l 338 272 l 286 133 q 283 117 283 125 q 344 81 283 81 l 431 81 l 431 0 l 51 0 l 51 82 q 138 92 110 82 q 172 121 165 101 l 519 1032 l 721 1032 l 1056 122 m 374 375 l 729 375 l 553 864 l 374 375 z "},"B":{"ha":1153,"x_min":51,"x_max":1067,"o":"m 636 1032 q 777 1023 711 1032 q 892 987 843 1014 q 970 908 942 960 q 999 774 999 857 q 983 692 999 728 q 940 628 967 656 q 876 583 913 601 q 800 554 840 564 q 996 481 925 542 q 1067 307 1067 419 q 1040 161 1067 219 q 964 67 1014 103 q 840 15 914 31 q 671 0 767 0 l 51 0 l 51 81 q 175 144 175 81 l 175 882 q 51 946 175 946 l 51 1032 l 636 1032 m 388 494 l 388 115 l 649 115 q 740 130 703 115 q 799 171 776 144 q 832 234 822 197 q 842 317 842 271 q 793 453 842 413 q 649 494 744 494 l 388 494 m 388 911 l 388 588 l 613 588 q 738 628 696 588 q 779 756 779 668 q 736 873 779 835 q 613 911 693 911 l 388 911 z "},"C":{"ha":1097,"x_min":51,"x_max":1046,"o":"m 1028 692 l 926 683 q 820 871 899 800 q 617 942 742 942 q 460 910 525 942 q 353 821 394 878 q 293 685 313 764 q 274 511 274 606 q 298 330 274 407 q 366 202 322 253 q 470 126 410 151 q 604 101 531 101 q 832 169 749 101 q 953 358 915 236 l 1046 326 q 992 197 1026 260 q 904 86 958 135 q 772 8 850 38 q 588 -22 694 -22 q 378 10 475 -22 q 208 107 281 42 q 93 272 135 172 q 51 506 51 371 q 92 749 51 646 q 205 920 133 853 q 372 1021 276 988 q 578 1054 468 1054 q 770 1021 690 1054 q 890 944 850 988 l 925 1032 l 1028 1032 l 1028 692 z "},"D":{"ha":1163,"x_min":51,"x_max":1104,"o":"m 593 1032 q 815 1013 719 1032 q 976 942 911 994 q 1072 793 1040 889 q 1104 543 1104 697 q 1072 282 1104 386 q 976 115 1040 178 q 815 26 911 53 q 593 0 719 0 l 51 0 l 51 81 q 175 144 175 81 l 175 886 q 51 950 175 950 l 51 1032 l 593 1032 m 388 922 l 388 108 l 615 108 q 745 137 693 108 q 828 220 797 165 q 872 356 860 275 q 885 539 885 436 q 872 715 885 642 q 828 833 860 788 q 745 901 797 879 q 615 922 693 922 l 388 922 z "},"E":{"ha":1071,"x_min":51,"x_max":1007,"o":"m 974 718 l 876 713 q 699 922 860 922 l 388 922 l 388 588 l 546 588 q 642 756 629 588 l 729 756 l 708 322 l 624 322 q 536 494 610 494 l 388 494 l 388 108 l 649 108 q 907 406 882 108 l 1007 396 l 974 0 l 51 0 l 51 81 q 175 144 175 81 l 175 886 q 51 950 175 950 l 51 1032 l 974 1032 l 974 718 z "},"F":{"ha":1019,"x_min":51,"x_max":969,"o":"m 969 718 l 883 713 q 708 922 861 922 l 388 922 l 388 556 l 557 556 q 654 733 642 556 l 739 733 l 718 272 l 636 272 q 547 454 621 454 l 388 454 l 388 144 q 551 81 388 81 l 551 0 l 51 0 l 51 81 q 175 144 175 81 l 175 886 q 51 950 175 950 l 51 1032 l 969 1032 l 969 718 z "},"G":{"ha":1221,"x_min":51,"x_max":1182,"o":"m 1029 692 l 928 682 q 821 869 900 799 q 618 940 742 940 q 461 908 526 940 q 354 819 396 876 q 293 684 313 763 q 274 513 274 606 q 298 319 274 397 q 367 192 322 240 q 475 122 413 143 q 614 100 538 100 q 717 115 668 100 q 803 155 767 129 q 860 215 839 181 q 882 288 882 249 l 882 360 q 757 424 882 424 l 757 504 l 1182 504 l 1182 424 q 1057 360 1057 424 l 1057 0 l 917 0 l 886 103 q 836 57 867 79 q 765 17 806 35 q 672 -12 724 -1 q 557 -22 619 -22 q 367 8 458 -22 q 205 102 275 38 q 93 267 135 167 q 51 511 51 368 q 93 756 51 653 q 206 924 135 858 q 374 1022 278 990 q 579 1054 471 1054 q 772 1021 692 1054 q 892 944 851 988 l 926 1032 l 1029 1032 l 1029 692 z "},"H":{"ha":1246,"x_min":51,"x_max":1196,"o":"m 1196 950 q 1071 886 1071 950 l 1071 144 q 1196 81 1071 81 l 1196 0 l 728 0 l 728 81 q 858 144 858 81 l 858 490 l 388 490 l 388 144 q 518 81 388 81 l 518 0 l 51 0 l 51 81 q 175 144 175 81 l 175 886 q 51 950 175 950 l 51 1032 l 518 1032 l 518 950 q 388 886 388 950 l 388 592 l 858 592 l 858 886 q 728 950 858 950 l 728 1032 l 1196 1032 l 1196 950 z "},"I":{"ha":593,"x_min":65,"x_max":526,"o":"m 526 950 q 403 886 403 950 l 403 144 q 526 81 403 81 l 526 0 l 65 0 l 65 81 q 190 144 190 81 l 190 886 q 65 950 190 950 l 65 1032 l 526 1032 l 526 950 z "},"J":{"ha":921,"x_min":50,"x_max":882,"o":"m 882 950 q 757 886 757 950 l 757 340 q 659 69 757 161 q 381 -22 561 -22 q 238 -2 300 -22 q 135 53 176 18 q 72 135 93 89 q 50 236 50 182 q 82 329 50 294 q 169 364 114 364 q 251 335 222 364 q 281 261 281 306 q 256 194 281 221 q 189 163 231 167 q 210 128 194 143 q 249 101 226 113 q 298 83 271 89 q 353 76 325 76 q 435 91 399 76 q 495 138 471 106 q 532 222 519 169 q 544 350 544 275 l 544 886 q 421 950 544 950 l 421 1032 l 882 1032 l 882 950 z "},"K":{"ha":1294,"x_min":51,"x_max":1251,"o":"m 1144 950 q 1051 931 1093 949 q 972 882 1008 913 l 735 679 l 1081 151 q 1134 97 1104 114 q 1213 81 1164 81 l 1251 81 l 1251 0 l 708 0 l 708 81 l 808 81 q 842 89 832 81 q 851 111 851 97 q 838 151 851 129 l 585 553 l 388 381 l 388 144 q 511 81 388 81 l 511 0 l 51 0 l 51 81 q 175 144 175 81 l 175 886 q 51 950 175 950 l 51 1032 l 511 1032 l 511 950 q 388 886 388 950 l 388 515 l 788 861 q 811 906 811 881 q 797 938 811 925 q 751 950 782 950 l 690 950 l 690 1032 l 1144 1032 l 1144 950 z "},"L":{"ha":1044,"x_min":51,"x_max":993,"o":"m 542 950 q 388 886 388 950 l 388 108 l 660 108 q 754 123 713 108 q 826 172 796 138 q 876 263 857 206 q 901 406 894 319 l 993 396 l 960 0 l 51 0 l 51 81 q 175 144 175 81 l 175 886 q 51 950 175 950 l 51 1032 l 542 1032 l 542 950 z "},"M":{"ha":1463,"x_min":51,"x_max":1411,"o":"m 1411 950 q 1286 886 1286 950 l 1286 144 q 1411 81 1286 81 l 1411 0 l 956 0 l 956 81 q 1079 144 1079 81 l 1079 872 l 775 0 l 594 0 l 290 872 l 290 144 q 414 81 290 81 l 414 0 l 51 0 l 51 81 q 175 144 175 81 l 175 886 q 51 950 175 950 l 51 1032 l 465 1032 l 740 221 l 1015 1032 l 1411 1032 l 1411 950 z "},"N":{"ha":1231,"x_min":51,"x_max":1194,"o":"m 1194 950 q 1071 886 1071 950 l 1071 0 l 814 0 l 290 833 l 290 144 q 414 81 290 81 l 414 0 l 51 0 l 51 81 q 175 144 175 81 l 175 886 q 51 950 175 950 l 51 1032 l 424 1032 l 956 179 l 956 886 q 832 950 956 950 l 832 1032 l 1194 1032 l 1194 950 z "},"O":{"ha":1156,"x_min":51,"x_max":1104,"o":"m 588 1054 q 794 1026 699 1054 q 958 935 889 999 q 1065 769 1026 872 q 1104 517 1104 667 q 1071 294 1104 393 q 971 124 1038 194 q 803 16 904 54 q 567 -22 701 -22 q 363 4 457 -22 q 199 92 268 31 q 91 251 131 153 q 51 494 51 350 q 82 727 51 624 q 178 903 113 831 q 344 1015 243 976 q 588 1054 446 1054 m 594 939 q 446 913 508 939 q 344 839 383 888 q 285 719 304 790 q 267 558 267 649 q 288 328 267 418 q 347 187 308 239 q 442 115 386 135 q 567 94 497 94 q 721 122 658 94 q 821 201 783 149 q 875 330 858 253 q 892 507 892 407 q 870 719 892 636 q 810 851 849 803 q 716 919 771 900 q 594 939 661 939 z "},"P":{"ha":1049,"x_min":51,"x_max":999,"o":"m 601 1032 q 764 1019 690 1032 q 890 972 838 1006 q 970 879 942 938 q 999 731 999 821 q 970 578 999 639 q 890 480 942 517 q 764 428 838 443 q 601 413 690 413 l 388 413 l 388 144 q 542 81 388 81 l 542 0 l 51 0 l 51 81 q 175 144 175 81 l 175 886 q 51 950 175 950 l 51 1032 l 601 1032 m 388 915 l 388 528 l 578 528 q 739 579 690 528 q 788 731 788 631 q 739 867 788 818 q 578 915 690 915 l 388 915 z "},"Q":{"ha":1179,"x_min":51,"x_max":1151,"o":"m 1151 -51 q 1086 -126 1133 -96 q 976 -157 1039 -157 q 825 -115 888 -157 q 713 -8 763 -72 q 567 -22 651 -22 q 363 4 457 -22 q 199 92 268 31 q 91 251 131 153 q 51 494 51 350 q 82 727 51 624 q 178 903 113 831 q 344 1015 243 976 q 588 1054 446 1054 q 794 1026 699 1054 q 958 935 889 999 q 1065 769 1026 872 q 1104 517 1104 667 q 1044 230 1104 350 q 863 43 985 110 q 943 -22 900 3 q 1036 -46 986 -46 q 1114 -8 1089 -46 l 1151 -51 m 764 182 q 864 313 836 228 q 892 507 892 399 q 870 719 892 636 q 810 851 849 803 q 716 919 771 900 q 594 939 661 939 q 446 913 508 939 q 343 839 383 888 q 284 719 303 790 q 265 558 265 649 q 276 392 265 463 q 306 269 286 321 q 390 337 346 318 q 482 356 435 356 q 566 342 526 356 q 640 306 606 329 q 706 251 675 282 q 764 182 736 219 m 329 204 q 428 113 368 138 q 567 88 488 88 q 607 89 588 88 q 644 94 626 90 q 544 215 592 171 q 432 258 497 258 q 382 246 408 258 q 329 204 356 233 z "},"R":{"ha":1168,"x_min":51,"x_max":1132,"o":"m 1132 153 q 1092 37 1132 83 q 954 -10 1051 -10 q 800 41 846 -10 q 754 167 754 92 l 754 271 q 721 441 754 388 q 599 494 688 494 l 388 494 l 388 144 q 542 81 388 81 l 542 0 l 51 0 l 51 81 q 175 144 175 81 l 175 886 q 51 950 175 950 l 51 1032 l 646 1032 q 779 1023 714 1032 q 895 986 844 1014 q 976 908 946 958 q 1007 774 1007 857 q 990 678 1007 719 q 947 608 974 638 q 885 561 919 579 q 813 535 850 543 q 878 502 849 522 q 927 451 907 482 q 958 375 947 419 q 968 269 968 331 l 968 142 q 981 97 968 111 q 1013 82 993 82 q 1046 97 1033 82 q 1058 142 1058 111 l 1058 208 l 1132 208 l 1132 153 m 388 915 l 388 588 l 615 588 q 743 626 699 588 q 788 756 788 664 q 615 915 788 915 l 388 915 z "},"S":{"ha":985,"x_min":67,"x_max":949,"o":"m 897 671 l 804 658 q 767 783 796 731 q 693 871 738 836 q 590 922 649 906 q 464 939 532 939 q 298 904 361 939 q 235 792 235 869 q 265 717 235 744 q 346 673 296 690 q 460 644 396 656 q 592 620 525 633 q 723 587 658 607 q 838 531 788 567 q 918 441 888 496 q 949 303 949 386 q 920 158 949 219 q 839 57 892 97 q 713 -3 786 17 q 549 -22 639 -22 q 390 -2 457 -22 q 269 53 322 18 q 222 69 244 69 q 192 49 213 69 q 160 0 171 29 l 67 0 l 67 381 l 158 389 q 193 268 164 322 q 270 176 222 214 q 385 116 318 138 q 532 94 451 94 q 713 141 650 94 q 775 288 775 188 q 756 342 775 319 q 703 378 736 364 q 626 403 669 393 q 535 420 583 413 q 437 436 486 428 q 342 457 388 444 q 229 498 279 474 q 145 558 179 522 q 92 646 111 594 q 74 768 74 697 q 92 874 74 822 q 152 965 110 925 q 263 1030 194 1006 q 431 1054 331 1054 q 588 1036 524 1054 q 700 990 651 1018 q 751 974 729 974 q 788 992 767 974 q 822 1032 810 1010 l 897 1032 l 897 671 z "},"T":{"ha":1142,"x_min":51,"x_max":1092,"o":"m 1092 607 l 1004 603 q 984 758 999 696 q 945 856 969 819 q 886 908 921 893 q 804 922 851 922 l 679 922 l 679 144 q 804 81 679 81 l 804 0 l 342 0 l 342 81 q 465 144 465 81 l 465 922 l 339 922 q 257 908 292 922 q 198 856 222 893 q 159 758 174 819 q 139 603 144 696 l 51 607 l 51 1032 l 1092 1032 l 1092 607 z "},"U":{"ha":1208,"x_min":51,"x_max":1161,"o":"m 1161 949 q 1036 885 1036 949 l 1036 421 q 1013 234 1036 317 q 940 94 990 151 q 810 8 890 38 q 614 -22 729 -22 q 414 8 497 -22 q 277 94 331 38 q 199 234 224 151 q 175 421 175 317 l 175 885 q 51 949 175 949 l 51 1031 l 538 1031 l 538 949 q 423 933 458 949 q 388 885 388 917 l 388 421 q 400 276 388 338 q 442 176 413 215 q 523 117 472 136 q 651 97 574 97 q 780 117 728 97 q 864 176 832 136 q 909 276 896 215 q 922 421 922 338 l 922 885 q 886 933 922 917 q 771 949 850 949 l 771 1031 l 1161 1031 l 1161 949 z "},"V":{"ha":1221,"x_min":51,"x_max":1169,"o":"m 1169 950 q 1081 940 1107 950 q 1047 910 1054 929 l 700 0 l 499 0 l 165 908 q 126 940 157 929 q 51 950 96 950 l 51 1032 l 558 1032 l 558 950 l 436 950 q 396 926 396 950 q 400 908 396 918 l 667 167 l 933 897 q 938 917 938 907 q 875 950 938 950 l 789 950 l 789 1032 l 1168 1032 l 1169 950 z "},"W":{"ha":1685,"x_min":51,"x_max":1635,"o":"m 1635 949 q 1554 935 1581 949 q 1521 896 1528 921 l 1254 0 l 1051 0 l 835 671 l 615 0 l 411 0 l 156 894 q 121 934 149 918 q 51 950 93 950 l 51 1032 l 504 1032 l 504 950 l 406 950 q 368 925 368 950 l 574 167 l 783 868 q 785 881 785 875 q 786 892 786 886 q 685 950 786 950 l 685 1032 l 1114 1032 l 1114 950 l 1015 950 q 990 942 996 950 q 983 921 983 935 q 993 872 983 901 l 1213 167 l 1415 897 q 1417 915 1417 901 q 1363 950 1417 950 l 1294 950 l 1294 1032 l 1635 1032 l 1635 949 z "},"X":{"ha":1218,"x_min":51,"x_max":1167,"o":"m 1143 950 q 1056 933 1093 950 q 989 882 1018 915 l 724 575 l 1031 151 q 1086 98 1057 115 q 1167 81 1115 81 l 1167 0 l 643 0 l 643 81 l 757 81 q 793 110 793 81 q 774 157 793 129 l 567 447 l 342 168 q 319 118 319 142 q 333 90 319 99 q 381 81 346 81 l 476 81 l 476 0 l 51 0 l 51 81 q 200 149 142 81 l 517 522 l 256 881 q 199 933 229 917 q 119 950 169 950 l 119 1032 l 603 1032 l 603 950 l 524 950 q 485 919 485 950 q 501 879 485 901 l 668 646 l 847 863 q 868 914 868 888 q 810 950 868 950 l 743 950 l 743 1032 l 1143 1032 l 1143 950 z "},"Y":{"ha":1143,"x_min":39,"x_max":1099,"o":"m 1099 949 q 1022 938 1050 949 q 982 910 993 928 l 667 446 l 667 144 q 806 81 667 81 l 806 0 l 315 0 l 315 81 q 454 144 454 81 l 454 446 l 149 908 q 106 941 133 932 q 39 950 78 950 l 39 1032 l 549 1032 l 549 950 l 439 950 q 397 922 397 950 q 404 903 397 914 l 629 546 l 857 897 q 863 917 863 907 q 806 950 863 950 l 739 950 l 739 1032 l 1099 1032 l 1099 949 z "},"Z":{"ha":1011,"x_min":39,"x_max":953,"o":"m 932 918 l 293 108 l 603 108 q 782 183 721 108 q 860 425 843 258 l 953 415 l 918 0 l 39 0 l 39 114 l 694 922 l 369 922 q 282 904 318 922 q 222 847 246 886 q 184 748 199 808 q 161 603 169 688 l 74 607 l 74 1032 l 932 1032 l 932 918 z "},"[":{"ha":513,"x_min":151,"x_max":463,"o":"m 463 1071 l 278 1071 l 278 -194 l 463 -194 l 463 -282 l 151 -282 l 151 1153 l 463 1153 l 463 1071 z "},"\\":{"ha":594,"x_min":36,"x_max":554,"o":"m 554 -42 l 442 -42 l 36 1033 l 146 1033 l 554 -42 z "},"]":{"ha":522,"x_min":51,"x_max":363,"o":"m 363 -282 l 51 -282 l 51 -193 l 236 -193 l 236 1071 l 51 1071 l 51 1153 l 363 1153 l 363 -282 z "},"^":{"ha":560,"x_min":51,"x_max":508,"o":"m 508 643 l 419 643 l 282 928 l 142 643 l 51 643 l 247 1032 l 314 1032 l 508 643 z "},"_":{"ha":778,"x_min":-3,"x_max":783,"o":"m 783 -183 l -3 -183 l -3 -89 l 783 -89 l 783 -183 z "},"`":{"ha":482,"x_min":53,"x_max":426,"o":"m 400 800 q 278 830 340 819 q 167 851 217 840 q 85 880 117 863 q 53 931 53 897 q 70 977 53 957 q 132 997 88 997 q 197 982 164 997 q 265 944 229 967 q 340 895 300 921 q 426 850 381 869 l 400 800 z "},"a":{"ha":946,"x_min":54,"x_max":904,"o":"m 758 136 q 800 75 758 75 q 829 94 819 75 q 839 136 839 113 l 839 218 l 904 218 l 904 156 q 893 78 904 110 q 861 26 882 46 q 812 -1 840 7 q 750 -10 783 -10 q 686 2 713 -10 q 642 33 660 14 q 614 78 624 53 q 599 131 604 103 q 556 72 583 100 q 492 23 529 44 q 407 -11 454 1 q 306 -24 360 -24 q 115 30 175 -24 q 54 175 54 83 q 76 267 54 231 q 135 329 97 304 q 224 369 174 354 q 333 395 275 383 q 452 418 390 407 q 575 446 514 429 l 575 489 q 566 554 575 524 q 537 608 557 585 q 486 644 517 631 q 414 657 456 657 q 295 643 343 657 q 218 606 247 629 q 272 585 250 603 q 294 533 294 567 q 269 470 294 494 q 196 446 244 446 q 123 472 147 446 q 99 543 99 497 q 121 613 99 578 q 185 674 143 647 q 288 718 226 701 q 429 735 350 735 q 553 723 493 735 q 658 683 613 711 q 731 605 704 654 q 758 481 758 556 l 758 136 m 576 392 q 422 351 488 369 q 314 310 357 332 q 250 261 271 289 q 229 192 229 233 q 264 114 229 142 q 369 86 299 86 q 495 120 440 86 q 576 199 550 154 l 576 392 z "},"b":{"ha":932,"x_min":3,"x_max":879,"o":"m 314 633 q 405 708 343 681 q 550 735 467 735 q 676 717 617 735 q 781 658 736 700 q 853 544 826 615 q 879 364 879 472 q 852 174 879 249 q 779 55 825 99 q 671 -6 733 11 q 538 -24 608 -24 q 433 -8 479 -24 q 355 30 388 7 q 303 78 322 53 q 278 126 283 104 l 235 0 l 122 0 l 122 928 q 3 990 122 990 l 3 1069 l 314 1069 l 314 633 m 494 640 q 402 619 440 640 q 340 561 364 599 q 306 472 317 524 q 296 358 296 421 q 306 244 296 296 q 340 155 317 192 q 402 97 364 118 q 494 76 440 76 q 586 97 549 76 q 648 155 624 118 q 683 244 672 192 q 693 358 693 296 q 683 472 693 421 q 648 561 672 524 q 586 619 624 599 q 494 640 549 640 z "},"c":{"ha":810,"x_min":60,"x_max":756,"o":"m 756 242 q 726 144 747 192 q 667 60 704 97 q 574 -1 629 22 q 442 -24 518 -24 q 288 -1 358 -24 q 167 66 218 21 q 88 181 117 111 q 60 346 60 250 q 161 633 60 531 q 442 735 263 735 q 564 719 508 735 q 660 677 619 704 q 724 613 701 650 q 747 533 747 576 q 722 460 747 489 q 649 432 697 432 q 578 458 603 432 q 553 519 553 483 q 576 574 553 551 q 632 600 599 597 q 572 642 608 626 q 472 657 535 657 q 306 585 364 657 q 249 369 249 513 q 265 231 249 289 q 310 138 281 174 q 378 84 339 101 q 464 67 418 67 q 534 77 500 67 q 596 110 568 88 q 642 167 624 132 q 668 251 661 201 l 756 242 z "},"d":{"ha":993,"x_min":54,"x_max":940,"o":"m 818 142 q 940 79 818 79 l 940 0 l 678 0 l 667 115 q 561 10 633 44 q 392 -24 489 -24 q 263 -3 324 -24 q 155 64 201 18 q 81 181 108 110 q 54 354 54 253 q 85 531 54 458 q 165 649 115 603 q 281 715 215 694 q 417 735 346 735 q 540 717 483 735 q 628 667 596 699 l 628 928 q 507 990 628 990 l 507 1069 l 818 1069 l 818 142 m 449 644 q 356 624 394 644 q 292 565 317 603 q 256 476 268 528 q 244 361 244 424 q 256 247 244 299 q 292 158 268 196 q 356 100 317 121 q 449 79 394 79 q 540 100 503 79 q 601 158 578 121 q 634 247 624 196 q 644 361 644 299 q 634 476 644 424 q 601 565 624 528 q 540 624 578 603 q 449 644 503 644 z "},"e":{"ha":843,"x_min":60,"x_max":789,"o":"m 247 364 q 300 144 250 221 q 451 67 350 67 q 592 106 531 67 q 676 232 653 144 l 763 215 q 726 126 750 169 q 663 50 701 83 q 569 -3 624 17 q 440 -24 514 -24 q 300 -6 368 -24 q 178 54 232 11 q 92 170 125 97 q 60 354 60 243 q 85 509 60 439 q 160 629 111 579 q 278 707 208 679 q 439 735 349 735 q 789 364 789 735 l 247 364 m 617 438 q 606 523 617 483 q 572 592 594 563 q 517 640 550 622 q 442 657 485 657 q 314 606 367 657 q 250 438 261 554 l 617 438 z "},"f":{"ha":667,"x_min":54,"x_max":693,"o":"m 578 607 q 438 619 490 615 q 364 622 385 622 l 364 142 q 549 79 364 79 l 549 0 l 56 0 l 56 79 q 175 142 175 79 l 175 622 l 54 622 l 54 689 q 107 699 78 694 q 172 707 136 704 l 172 850 q 191 957 172 913 q 244 1030 210 1001 q 329 1071 279 1058 q 440 1083 379 1083 q 542 1073 496 1083 q 622 1042 589 1063 q 674 989 656 1021 q 693 914 693 957 q 669 842 693 874 q 593 811 644 811 q 522 835 544 811 q 499 892 499 860 q 521 947 499 926 q 579 972 543 968 q 463 1011 549 1011 q 390 985 418 1011 q 363 900 363 958 l 363 707 l 585 707 l 578 607 z "},"g":{"ha":1050,"x_min":54,"x_max":1008,"o":"m 261 -37 q 213 -71 226 -47 q 199 -122 199 -94 q 216 -172 199 -149 q 266 -213 233 -196 q 345 -241 299 -231 q 450 -251 392 -251 q 658 -215 593 -251 q 724 -111 724 -179 q 715 -66 724 -86 q 679 -31 706 -46 q 606 -4 653 -15 q 482 15 558 7 q 325 35 392 25 q 215 62 258 46 q 149 103 171 78 q 128 168 128 128 q 147 233 128 204 q 199 279 167 263 q 136 347 158 304 q 114 456 114 389 q 202 647 114 588 q 443 707 290 707 q 679 658 597 707 q 748 706 710 692 q 831 721 786 721 q 886 712 856 721 q 944 683 917 703 q 990 631 971 664 q 1008 551 1008 599 q 983 476 1008 501 q 918 450 958 450 q 851 474 874 450 q 828 529 828 497 q 851 586 828 565 q 918 607 875 607 q 878 644 908 631 q 817 657 849 657 q 729 619 776 657 q 774 554 760 590 q 788 467 788 518 q 761 350 788 397 q 688 274 735 303 q 578 232 642 244 q 443 219 515 219 q 335 225 381 219 q 254 246 290 231 q 231 218 231 239 q 239 195 231 206 q 276 175 247 185 q 363 156 306 165 q 519 136 421 146 q 698 108 629 125 q 806 64 767 90 q 858 2 844 38 q 872 -79 872 -33 q 444 -318 872 -318 q 149 -278 243 -318 q 54 -140 54 -237 q 69 -78 54 -104 q 110 -33 85 -51 q 168 -7 135 -15 q 238 1 201 1 l 261 -37 m 443 636 q 310 595 351 636 q 269 463 269 554 q 314 329 269 371 q 443 288 358 288 q 573 330 528 288 q 618 464 618 372 q 569 597 618 558 q 443 636 521 636 z "},"h":{"ha":1056,"x_min":54,"x_max":1003,"o":"m 364 565 q 492 677 417 633 q 669 721 568 721 q 828 672 774 721 q 882 514 882 624 l 882 142 q 1003 79 882 79 l 1003 0 l 599 0 l 599 79 q 692 142 692 79 l 692 453 q 668 578 692 540 q 597 615 644 615 q 527 601 561 615 q 462 563 493 588 q 406 503 431 538 q 364 431 381 469 l 364 142 q 457 79 364 79 l 457 0 l 54 0 l 54 79 q 174 142 174 79 l 174 928 q 56 990 174 990 l 56 1069 l 364 1069 l 364 565 z "},"i":{"ha":538,"x_min":54,"x_max":485,"o":"m 364 142 q 485 79 361 79 l 485 0 l 54 0 l 54 79 q 174 142 174 79 l 174 564 q 54 628 174 628 l 54 707 l 364 707 l 364 142 m 381 940 q 347 856 381 892 q 263 821 313 821 q 216 831 238 821 q 178 856 194 840 q 153 894 163 872 q 143 940 143 915 q 178 1024 143 990 q 263 1058 214 1058 q 346 1024 311 1058 q 381 940 381 989 z "},"j":{"ha":576,"x_min":-33,"x_max":476,"o":"m 458 -114 q 394 -275 458 -222 q 213 -328 331 -328 q 31 -285 94 -328 q -33 -160 -33 -243 q -28 -124 -33 -143 q -10 -91 -22 -106 q 22 -67 3 -76 q 67 -57 40 -57 q 138 -81 115 -57 q 161 -137 161 -106 q 139 -193 161 -172 q 81 -218 117 -214 q 119 -247 96 -237 q 183 -257 142 -257 q 248 -232 228 -257 q 268 -167 268 -207 l 268 564 q 132 628 268 628 l 132 707 l 457 707 l 458 -114 m 476 940 q 467 894 476 915 q 441 856 457 872 q 403 830 425 839 q 358 821 382 821 q 274 856 308 821 q 239 940 239 890 q 274 1024 239 989 q 358 1058 308 1058 q 441 1024 406 1058 q 476 940 476 990 z "},"k":{"ha":1068,"x_min":54,"x_max":1014,"o":"m 983 628 q 883 610 931 624 q 800 571 836 597 l 651 463 l 899 126 q 942 91 915 103 q 1014 79 968 79 l 1014 0 l 568 0 l 568 79 l 651 79 q 686 101 686 79 q 675 126 686 111 l 503 361 l 363 264 l 363 142 q 481 79 363 79 l 481 0 l 54 0 l 54 79 q 174 142 174 79 l 174 928 q 54 990 174 990 l 54 1069 l 363 1069 l 363 356 l 657 568 q 675 600 675 581 q 667 619 675 611 q 639 628 658 628 l 572 628 l 572 707 l 983 707 l 983 628 z "},"l":{"ha":538,"x_min":54,"x_max":485,"o":"m 364 142 q 485 79 364 79 l 485 0 l 54 0 l 54 79 q 174 142 174 79 l 174 928 q 54 990 174 990 l 54 1069 l 364 1069 l 364 142 z "},"m":{"ha":1504,"x_min":54,"x_max":1450,"o":"m 1332 142 q 1450 79 1332 79 l 1450 0 l 1051 0 l 1051 79 q 1143 142 1143 79 l 1143 450 q 1123 575 1143 538 q 1061 613 1103 613 q 942 564 999 613 q 847 428 886 515 l 847 142 q 936 79 847 79 l 936 0 l 567 0 l 567 79 q 658 142 658 79 l 658 450 q 638 575 658 538 q 574 613 617 613 q 453 564 511 613 q 360 428 396 515 l 360 142 q 451 79 360 79 l 451 0 l 54 0 l 54 79 q 171 142 171 79 l 171 565 q 54 628 171 628 l 54 707 l 360 707 l 360 561 q 410 621 382 592 q 474 672 439 650 q 553 708 510 694 q 649 721 596 721 q 780 681 728 721 q 844 558 832 642 q 964 674 890 626 q 1133 721 1038 721 q 1278 672 1225 721 q 1332 514 1332 624 l 1332 142 z "},"n":{"ha":1071,"x_min":54,"x_max":1018,"o":"m 896 142 q 1018 79 896 79 l 1018 0 l 614 0 l 614 79 q 707 142 707 79 l 707 450 q 679 575 707 538 q 604 613 651 613 q 533 599 568 613 q 465 560 497 585 q 407 501 433 535 q 364 428 381 467 l 364 142 q 457 79 364 79 l 457 0 l 54 0 l 54 79 q 174 142 174 79 l 174 565 q 54 628 174 628 l 54 707 l 364 707 l 364 565 q 496 677 417 633 q 676 721 575 721 q 838 672 781 721 q 896 514 896 624 l 896 142 z "},"o":{"ha":872,"x_min":60,"x_max":824,"o":"m 824 357 q 724 76 824 175 q 433 -24 624 -24 q 290 -6 358 -24 q 172 53 222 11 q 90 166 121 96 q 60 340 60 236 q 156 633 60 531 q 449 735 251 735 q 594 716 525 735 q 713 653 663 697 q 794 538 764 610 q 824 357 824 465 m 447 643 q 296 576 343 643 q 249 382 249 508 q 261 226 249 288 q 298 130 274 165 q 356 81 322 94 q 435 67 390 67 q 589 140 544 67 q 633 349 633 214 q 620 493 633 436 q 582 583 607 550 q 523 630 557 617 q 447 643 489 643 z "},"p":{"ha":951,"x_min":14,"x_max":900,"o":"m 286 593 q 392 698 321 664 q 563 732 463 732 q 692 711 631 732 q 799 644 753 690 q 873 527 846 599 q 900 354 900 456 q 869 178 900 250 q 788 60 839 106 q 672 -6 738 15 q 538 -26 607 -26 q 413 -8 469 -26 q 325 43 357 10 l 325 -187 q 476 -250 325 -250 l 476 -328 l 14 -328 l 14 -250 q 135 -187 135 -250 l 135 564 q 14 628 135 628 l 14 707 l 275 707 l 286 593 m 504 631 q 413 610 450 631 q 352 552 375 589 q 319 463 329 515 q 310 349 310 411 q 319 234 310 286 q 352 145 329 182 q 413 88 375 108 q 504 67 450 67 q 597 88 558 67 q 661 145 636 108 q 697 234 686 182 q 708 349 708 286 q 697 463 708 411 q 661 552 686 515 q 597 610 636 589 q 504 631 558 631 z "},"q":{"ha":939,"x_min":60,"x_max":932,"o":"m 811 -187 q 932 -250 811 -250 l 932 -328 l 468 -328 l 468 -250 q 619 -187 619 -250 l 619 75 q 530 2 592 29 q 385 -25 468 -25 q 259 -8 318 -25 q 156 51 200 8 q 85 165 111 93 q 60 346 60 236 q 86 535 60 460 q 158 655 113 611 q 265 717 203 699 q 397 735 326 735 q 501 719 456 735 q 578 681 546 704 q 631 631 611 658 q 656 582 650 604 l 699 707 l 811 707 l 811 -187 m 438 633 q 347 613 383 633 q 287 554 310 592 q 254 465 264 517 q 244 351 244 414 q 254 237 244 289 q 287 148 264 185 q 347 90 310 111 q 438 69 383 69 q 530 90 492 69 q 592 148 568 111 q 627 237 617 185 q 638 351 638 289 q 627 465 638 414 q 592 554 617 517 q 530 613 568 592 q 438 633 492 633 z "},"r":{"ha":822,"x_min":54,"x_max":768,"o":"m 364 575 q 462 690 404 654 q 586 725 519 725 q 649 715 617 725 q 708 685 682 706 q 751 631 735 664 q 768 554 768 599 q 740 467 768 501 q 663 433 711 433 q 589 459 614 433 q 564 521 564 485 q 587 579 564 556 q 657 604 610 603 q 621 636 646 625 q 568 647 596 647 q 515 635 543 647 q 459 597 486 622 q 407 533 432 572 q 364 439 382 493 l 364 142 q 399 94 364 110 q 500 79 433 79 l 500 0 l 54 0 l 54 79 q 174 142 174 79 l 174 565 q 54 628 174 628 l 54 707 l 364 707 l 364 575 z "},"s":{"ha":758,"x_min":54,"x_max":703,"o":"m 668 453 l 586 443 q 505 588 571 540 q 339 635 439 635 q 244 612 281 635 q 208 550 208 589 q 245 484 208 506 q 337 449 282 463 q 456 423 392 435 q 574 388 519 411 q 666 322 629 364 q 703 206 703 279 q 683 113 703 153 q 628 45 664 72 q 544 5 593 18 q 438 -8 496 -8 q 300 6 354 -8 q 208 46 246 19 q 188 57 199 51 q 168 63 178 63 q 153 47 165 63 q 135 0 140 31 l 54 0 l 54 267 l 135 275 q 167 190 142 228 q 231 127 193 153 q 317 88 269 101 q 415 74 365 74 q 516 101 482 74 q 550 168 550 128 q 513 233 550 211 q 422 268 476 254 q 303 294 367 282 q 184 331 239 307 q 92 399 129 356 q 56 517 56 442 q 122 667 56 613 q 311 721 189 721 q 429 703 375 721 q 517 665 483 685 q 538 653 528 658 q 557 649 547 649 q 572 664 561 649 q 590 707 583 679 l 668 707 l 668 453 z "},"t":{"ha":600,"x_min":54,"x_max":550,"o":"m 365 707 l 550 707 l 543 607 q 460 619 504 615 q 365 622 417 622 l 365 138 q 426 75 365 75 q 470 92 458 75 q 482 138 482 110 l 482 218 l 550 218 l 550 157 q 542 89 550 119 q 515 37 535 58 q 461 3 494 15 q 376 -10 428 -10 q 222 39 268 -10 q 175 175 175 88 l 175 622 l 54 622 l 54 689 q 127 700 93 692 q 187 729 161 708 q 227 788 213 750 q 242 885 242 825 l 242 915 l 365 925 l 365 707 z "},"u":{"ha":1028,"x_min":54,"x_max":974,"o":"m 864 142 q 974 79 864 79 l 974 0 l 675 0 l 675 142 q 628 83 656 111 q 566 33 601 54 q 487 -1 531 11 q 390 -14 443 -14 q 228 35 281 -14 q 175 193 175 83 l 175 565 q 54 628 175 628 l 54 707 l 360 707 l 360 254 q 384 130 360 167 q 463 93 408 93 q 586 144 529 93 q 675 276 643 196 l 675 564 q 646 612 675 596 q 554 628 617 628 l 554 707 l 864 707 l 864 142 z "},"v":{"ha":969,"x_min":54,"x_max":915,"o":"m 915 628 q 847 616 875 628 q 808 581 818 604 l 569 0 l 390 0 l 151 579 q 54 628 131 628 l 54 707 l 457 707 l 457 628 l 382 628 q 342 601 342 628 q 346 579 342 589 l 531 118 l 718 568 q 724 590 724 578 q 664 628 724 628 l 611 628 l 611 707 l 915 707 l 915 628 z "},"w":{"ha":1428,"x_min":54,"x_max":1374,"o":"m 1374 628 q 1274 581 1288 628 l 1068 0 l 894 0 l 711 463 l 518 0 l 343 0 l 146 579 q 54 628 129 628 l 54 707 l 443 707 l 443 628 l 369 628 q 332 599 332 628 q 335 581 332 590 q 340 563 338 572 l 485 118 l 675 568 q 679 594 679 581 q 632 628 679 628 l 572 628 l 572 707 l 954 707 l 954 628 l 874 628 q 840 603 840 628 q 843 589 840 596 q 849 575 846 582 l 1031 118 l 1188 568 q 1192 590 1192 581 q 1133 628 1192 628 l 1081 628 l 1081 707 l 1374 707 l 1374 628 z "},"x":{"ha":1006,"x_min":54,"x_max":953,"o":"m 921 628 q 849 617 885 626 q 785 581 813 608 l 593 392 l 821 139 q 876 95 846 111 q 953 79 907 79 l 953 0 l 508 0 l 508 79 l 592 79 q 622 97 622 79 q 611 125 622 111 l 460 303 l 303 139 q 286 103 286 122 q 335 79 286 79 l 407 79 l 407 0 l 54 0 l 54 79 q 130 92 94 79 q 196 136 165 106 l 417 356 l 224 574 q 167 615 199 601 q 86 628 136 628 l 86 707 l 510 707 l 510 628 l 453 628 q 422 608 422 628 q 443 574 422 596 l 553 444 l 669 568 q 683 585 678 576 q 689 604 689 593 q 647 628 689 628 l 597 628 l 597 707 l 921 707 l 921 628 z "},"y":{"ha":943,"x_min":42,"x_max":896,"o":"m 896 628 q 822 616 846 628 q 789 581 799 604 l 536 -28 q 483 -152 507 -99 q 428 -242 458 -206 q 358 -298 399 -279 q 257 -317 318 -317 q 101 -269 161 -317 q 42 -140 42 -221 q 47 -108 42 -126 q 65 -75 53 -90 q 96 -49 78 -60 q 139 -39 114 -39 q 211 -62 188 -39 q 235 -118 235 -86 q 213 -174 235 -154 q 156 -199 192 -194 q 191 -233 168 -219 q 267 -246 214 -246 q 349 -206 317 -246 q 419 -81 381 -165 l 142 579 q 42 628 118 628 l 42 707 l 439 707 l 439 628 l 371 628 q 331 601 331 628 q 335 581 331 590 l 515 126 l 699 568 q 703 590 703 581 q 643 628 703 628 l 601 628 l 601 707 l 896 707 l 896 628 z "},"z":{"ha":824,"x_min":54,"x_max":772,"o":"m 764 629 l 290 85 l 493 85 q 582 94 547 85 q 638 126 617 103 q 670 189 658 149 q 690 292 682 229 l 772 283 l 763 0 l 54 0 l 54 78 l 538 621 l 339 621 q 263 613 293 621 q 212 584 232 606 q 180 524 192 563 q 158 425 168 486 l 81 432 l 81 707 l 764 707 l 764 629 z "},"{":{"ha":563,"x_min":99,"x_max":511,"o":"m 511 1075 q 460 1061 488 1072 q 410 1026 433 1050 q 372 967 388 1003 q 357 878 357 931 l 357 618 q 268 475 357 510 q 357 328 357 432 l 357 -14 q 372 -98 357 -62 q 408 -158 386 -133 q 458 -196 431 -182 q 511 -214 485 -210 l 511 -283 q 408 -272 458 -282 q 317 -234 357 -261 q 252 -160 276 -207 q 228 -37 228 -112 l 228 328 q 99 439 228 424 l 99 507 q 228 615 228 517 l 228 906 q 251 1021 228 975 q 315 1094 275 1067 q 405 1135 354 1122 q 511 1153 456 1149 l 511 1075 z "},"|":{"ha":372,"x_min":132,"x_max":244,"o":"m 244 -161 l 132 -161 l 132 1117 l 244 1117 l 244 -161 z "},"}":{"ha":543,"x_min":51,"x_max":464,"o":"m 335 615 q 464 507 335 517 l 464 439 q 335 328 335 424 l 335 -37 q 310 -160 335 -112 q 246 -234 286 -207 q 155 -272 206 -261 q 51 -283 104 -282 l 51 -214 q 105 -196 78 -210 q 154 -158 132 -182 q 191 -98 176 -133 q 206 -14 206 -62 l 206 328 q 294 475 206 432 q 206 618 206 510 l 206 878 q 190 967 206 931 q 152 1026 175 1003 q 102 1061 129 1050 q 51 1075 75 1072 l 51 1153 q 158 1135 107 1149 q 248 1094 208 1122 q 311 1021 288 1067 q 335 906 335 975 l 335 615 z "},"~":{"ha":863,"x_min":51,"x_max":811,"o":"m 811 563 q 722 438 788 486 q 567 390 656 390 q 478 406 518 390 q 403 442 439 422 q 334 477 367 461 q 268 493 301 493 q 196 465 232 493 q 129 392 160 436 l 51 443 q 88 515 63 482 q 147 569 114 547 q 217 604 179 592 q 290 617 254 617 q 394 601 354 617 q 465 566 435 585 q 524 531 496 547 q 590 515 551 515 q 660 540 625 515 q 731 622 694 564 l 811 563 z "},"¡":{"ha":508,"x_min":140,"x_max":360,"o":"m 290 497 q 308 243 297 346 q 328 70 318 140 q 347 -45 339 0 q 354 -125 354 -90 q 325 -215 354 -192 q 244 -239 296 -239 q 168 -215 196 -239 q 140 -128 140 -190 q 147 -46 140 -92 q 164 70 154 0 q 185 243 174 140 q 207 497 197 346 l 290 497 m 360 706 q 327 629 360 661 q 249 597 294 597 q 172 629 204 597 q 140 706 140 661 q 172 784 140 751 q 249 817 204 817 q 327 784 294 817 q 360 706 360 751 z "},"¢":{"ha":803,"x_min":38,"x_max":736,"o":"m 444 874 q 555 855 503 871 q 646 814 607 839 q 707 755 685 789 q 729 683 729 721 q 705 615 729 643 q 632 588 681 588 q 562 612 586 588 q 538 674 538 636 q 558 723 538 701 q 611 749 578 744 q 549 785 586 769 q 444 801 511 800 l 444 240 q 577 283 519 242 q 650 415 635 325 l 736 407 q 708 319 728 363 q 652 241 688 276 q 565 182 617 206 q 444 154 514 158 l 444 0 l 385 0 l 385 154 q 244 181 308 158 q 135 247 181 204 q 63 353 89 289 q 38 506 38 418 q 127 769 38 672 q 385 874 217 865 l 385 1032 l 444 1032 l 444 874 m 385 793 q 217 528 217 761 q 265 329 217 396 q 385 247 314 263 l 385 793 z "},"£":{"ha":1085,"x_min":18,"x_max":979,"o":"m 754 392 l 450 392 q 403 294 429 339 q 346 218 376 249 q 461 194 411 217 q 557 147 511 172 q 650 100 603 121 q 758 79 697 79 q 797 85 775 79 q 843 99 819 90 q 889 121 867 108 q 928 147 911 133 l 961 94 q 660 -22 857 -22 q 550 -1 600 -22 q 453 45 500 19 q 359 92 406 71 q 261 113 313 113 q 212 103 238 113 q 161 76 186 93 q 116 35 136 58 q 85 -17 96 11 q 51 3 67 -7 q 18 22 35 13 q 74 106 42 71 q 158 164 107 140 q 234 272 204 215 q 285 392 264 329 l 182 392 l 182 472 l 308 472 q 344 588 329 531 q 376 699 360 646 q 417 796 393 751 q 476 873 440 840 q 567 924 513 906 q 700 943 621 943 q 831 922 778 943 q 917 869 885 901 q 965 797 950 836 q 979 721 979 757 q 954 644 979 676 q 881 611 929 611 q 808 640 835 611 q 782 704 782 668 q 803 765 782 738 q 861 794 825 792 q 808 847 846 828 q 717 865 771 865 q 638 851 669 865 q 584 810 606 838 q 549 741 563 782 q 525 646 535 700 q 508 562 518 606 q 481 472 497 518 l 754 472 l 754 392 z "},"¥":{"ha":1140,"x_min":94,"x_max":1042,"o":"m 196 478 l 424 478 l 218 774 q 194 805 206 792 q 170 827 183 818 q 139 840 157 836 q 94 844 121 844 l 94 925 l 550 925 l 550 844 l 451 844 q 414 819 414 844 q 418 803 414 808 l 625 504 l 826 797 q 831 814 831 806 q 815 837 831 829 q 774 844 800 844 l 714 844 l 714 925 l 1042 925 l 1042 843 q 983 836 1007 843 q 944 819 960 829 q 918 797 928 808 q 903 775 908 785 l 699 478 l 939 478 l 939 407 l 651 407 l 651 300 l 939 300 l 939 228 l 651 228 l 651 138 q 776 79 651 79 l 776 0 l 347 0 l 347 79 q 472 138 472 79 l 472 228 l 196 228 l 196 300 l 472 300 l 472 407 l 196 407 l 196 478 z "},"¦":{"ha":349,"x_min":117,"x_max":229,"o":"m 229 596 l 117 596 l 117 1110 l 229 1110 l 229 596 m 229 -161 l 117 -161 l 117 367 l 229 367 l 229 -161 z "},"§":{"ha":790,"x_min":82,"x_max":714,"o":"m 679 794 l 600 785 q 523 925 585 881 q 361 969 461 969 q 269 948 303 969 q 235 889 235 926 q 270 817 235 844 q 359 767 306 789 q 474 726 413 746 q 590 675 536 706 q 678 599 643 644 q 714 483 714 554 q 680 367 714 424 q 578 269 646 310 q 675 201 640 243 q 710 89 710 160 q 646 -59 710 -4 q 457 -114 582 -114 q 338 -100 386 -114 q 251 -61 290 -86 q 227 -49 240 -54 q 207 -43 214 -43 q 185 -64 194 -43 l 171 -103 l 96 -103 l 96 151 l 175 160 q 206 78 183 114 q 263 17 229 42 q 340 -21 297 -8 q 429 -33 382 -33 q 529 -8 496 -33 q 563 54 563 18 q 527 119 563 96 q 438 160 492 143 q 322 195 385 178 q 206 242 260 213 q 117 321 153 272 q 82 450 82 369 q 122 578 82 525 q 221 667 161 632 q 122 737 158 693 q 86 857 86 781 q 151 1001 86 949 q 333 1053 215 1053 q 447 1036 396 1053 q 532 1000 499 1019 q 572 985 556 985 q 592 1001 585 985 l 604 1040 l 679 1040 l 679 794 m 318 631 q 249 570 276 607 q 222 475 222 533 q 242 408 222 435 q 297 363 263 382 q 378 329 332 343 q 476 301 424 315 q 546 367 517 329 q 575 454 575 404 q 554 515 575 490 q 498 560 533 540 q 416 595 463 579 q 318 631 369 611 z "},"¨":{"ha":592,"x_min":49,"x_max":546,"o":"m 546 906 q 519 840 546 867 q 453 813 492 813 q 388 840 414 813 q 361 906 361 867 q 388 971 361 944 q 453 997 414 997 q 519 971 492 997 q 546 906 546 944 m 233 906 q 206 840 233 867 q 140 813 179 813 q 75 840 101 813 q 49 906 49 867 q 75 971 49 944 q 140 997 101 997 q 206 971 179 997 q 233 906 233 944 z "},"©":{"ha":1282,"x_min":83,"x_max":1210,"o":"m 1210 511 q 1169 305 1210 401 q 1053 135 1128 208 q 876 20 979 63 q 650 -22 774 -22 q 417 20 521 -22 q 238 135 313 63 q 124 305 164 208 q 83 511 83 401 q 128 726 83 626 q 249 898 172 825 q 430 1013 326 971 q 650 1054 533 1054 q 869 1013 767 1054 q 1047 900 971 972 q 1166 728 1122 828 q 1210 511 1210 629 m 1114 511 q 1075 703 1114 618 q 972 847 1036 788 q 824 937 907 906 q 651 968 740 968 q 460 933 547 968 q 312 836 374 897 q 215 691 250 775 q 181 511 181 607 q 221 320 181 404 q 327 178 261 236 q 478 89 393 119 q 651 58 563 58 q 853 99 767 58 q 998 206 940 140 q 1085 351 1056 271 q 1114 511 1114 432 m 876 440 q 856 373 871 406 q 816 315 842 340 q 752 273 790 289 q 663 257 714 257 q 558 272 606 257 q 476 319 510 288 q 423 400 442 351 q 404 514 404 449 q 472 709 404 640 q 663 778 540 778 q 747 767 708 778 q 813 736 785 756 q 856 692 840 717 q 871 638 871 667 q 853 590 871 610 q 804 571 836 571 q 757 588 774 571 q 740 628 740 604 q 750 660 740 644 q 778 682 760 676 q 737 707 761 697 q 685 717 713 717 q 535 526 535 717 q 575 375 535 421 q 678 329 615 329 q 765 356 726 329 q 814 450 804 383 l 876 440 z "},"ª":{"ha":636,"x_min":57,"x_max":586,"o":"m 499 557 q 518 526 499 526 q 532 535 528 526 q 536 557 536 544 l 536 618 l 586 618 l 586 569 q 562 487 586 511 q 493 463 538 463 q 430 486 450 463 q 403 542 410 510 q 331 480 379 506 q 221 454 283 454 q 97 490 136 454 q 57 588 57 525 q 90 673 57 643 q 174 719 124 703 q 281 743 224 735 q 385 764 338 751 l 385 786 q 362 858 385 828 q 290 889 339 889 q 224 881 253 889 q 175 863 194 874 q 203 846 192 857 q 214 815 214 835 q 197 772 214 789 q 150 754 179 754 q 102 772 118 754 q 86 821 86 790 q 100 865 86 843 q 140 906 114 888 q 206 935 167 924 q 294 946 244 946 q 372 938 335 946 q 437 912 408 931 q 482 860 465 893 q 499 779 499 828 l 499 557 m 385 717 q 222 669 275 692 q 168 596 168 646 q 254 531 168 531 q 335 551 301 531 q 385 599 369 572 l 385 717 z "},"«":{"ha":801,"x_min":38,"x_max":763,"o":"m 763 610 l 596 400 l 763 185 l 700 119 l 396 400 l 701 678 l 763 610 m 403 610 l 235 400 l 403 185 l 340 119 l 38 400 l 340 678 l 403 610 z "},"®":{"ha":976,"x_min":51,"x_max":925,"o":"m 925 639 q 894 478 925 553 q 806 349 863 404 q 668 261 749 293 q 490 229 588 229 q 309 261 390 229 q 171 349 228 293 q 83 478 114 404 q 51 639 51 553 q 85 803 51 726 q 179 935 119 879 q 319 1022 239 990 q 490 1054 399 1054 q 661 1023 582 1054 q 799 937 740 992 q 892 806 858 882 q 925 639 925 729 m 828 639 q 799 778 828 717 q 724 883 771 840 q 615 949 676 926 q 490 972 554 972 q 351 947 414 972 q 242 876 288 921 q 172 770 197 831 q 147 639 147 710 q 176 497 147 560 q 253 392 206 435 q 363 326 301 349 q 490 304 425 304 q 638 334 575 304 q 744 412 701 364 q 807 519 786 460 q 828 639 828 579 m 726 521 q 703 460 726 482 q 639 439 681 439 q 569 461 590 439 q 547 524 547 483 l 547 567 q 531 617 547 603 q 481 631 515 631 l 432 631 l 432 517 q 508 483 432 483 l 508 444 l 275 444 l 275 483 q 336 517 336 483 l 336 785 q 275 817 336 817 l 275 857 l 496 857 q 618 833 575 857 q 661 749 661 808 q 635 678 661 701 q 564 650 610 654 q 622 624 603 643 q 642 564 642 604 l 642 517 q 665 485 642 485 q 689 517 689 485 l 689 540 l 726 540 l 726 521 m 432 800 l 432 676 l 486 676 q 545 691 526 676 q 564 739 564 706 q 486 800 564 800 l 432 800 z "},"°":{"ha":643,"x_min":51,"x_max":592,"o":"m 458 793 q 449 844 458 819 q 421 887 439 868 q 377 917 403 906 q 319 928 351 928 q 260 917 286 928 q 217 887 235 906 q 190 844 200 868 q 181 793 181 819 q 219 695 181 735 q 319 656 257 656 q 420 695 382 656 q 458 793 458 735 m 592 793 q 571 696 592 742 q 514 616 550 650 q 428 562 478 582 q 319 542 378 542 q 212 562 261 542 q 127 616 163 582 q 72 696 92 650 q 51 793 51 742 q 72 890 51 844 q 129 969 93 935 q 214 1022 165 1003 q 319 1042 263 1042 q 425 1022 375 1042 q 512 969 475 1003 q 570 890 549 935 q 592 793 592 844 z "},"²":{"ha":597,"x_min":96,"x_max":504,"o":"m 501 681 q 504 667 504 674 q 504 657 504 661 q 501 610 504 633 q 488 570 497 588 q 459 542 478 553 q 411 532 440 532 q 356 540 378 532 q 313 558 333 549 q 271 575 293 567 q 214 583 249 583 q 170 572 186 583 q 139 540 154 561 l 96 540 q 136 644 110 604 q 193 712 163 685 q 256 758 224 739 q 315 796 289 776 q 358 840 342 815 q 375 906 375 865 q 352 968 375 942 q 281 994 329 994 q 228 985 246 994 q 199 961 210 975 q 229 914 229 956 q 215 872 229 889 q 172 854 201 854 q 131 872 144 854 q 117 917 117 889 q 126 961 117 938 q 156 1005 135 985 q 209 1038 176 1025 q 290 1051 242 1051 q 365 1043 329 1051 q 428 1015 401 1035 q 472 965 456 996 q 489 890 489 935 q 472 818 489 847 q 428 768 456 789 q 369 733 401 747 q 303 705 336 718 q 243 677 271 692 q 199 642 215 663 q 235 656 217 653 q 272 660 253 660 q 316 654 297 660 q 351 641 335 649 q 381 628 367 633 q 411 622 396 622 q 440 632 426 622 q 460 681 453 642 l 501 681 z "},"³":{"ha":582,"x_min":89,"x_max":492,"o":"m 243 836 q 326 859 292 839 q 361 924 361 879 q 340 975 361 956 q 271 994 319 994 q 224 988 246 994 q 188 964 203 981 q 224 915 224 953 q 208 874 224 890 q 165 857 193 857 q 124 874 139 857 q 108 918 108 890 q 118 963 108 939 q 149 1006 128 986 q 203 1038 169 1025 q 288 1051 238 1051 q 359 1044 325 1051 q 418 1021 393 1036 q 458 981 443 1006 q 472 924 472 957 q 375 815 472 842 q 492 688 492 786 q 475 616 492 646 q 429 566 458 586 q 360 537 400 546 q 272 528 319 528 q 194 540 228 528 q 136 572 160 553 q 101 613 113 590 q 89 656 89 635 q 103 701 89 685 q 146 718 118 718 q 188 702 172 718 q 203 658 203 686 q 195 632 203 644 q 174 617 188 619 q 215 594 188 601 q 274 586 242 586 q 379 679 379 586 q 345 760 379 735 q 236 790 311 785 l 243 836 z "},"´":{"ha":481,"x_min":51,"x_max":425,"o":"m 51 850 q 132 892 93 867 q 207 941 171 918 q 278 981 243 964 q 349 997 313 997 q 408 977 390 997 q 425 931 425 957 q 389 878 425 896 q 300 848 353 860 q 187 826 247 836 q 78 800 126 817 l 51 850 z "},"¶":{"ha":851,"x_min":50,"x_max":810,"o":"m 608 -115 q 622 -157 608 -140 q 663 -174 635 -174 q 713 -167 694 -174 q 743 -147 732 -160 q 706 -131 721 -143 q 692 -94 692 -118 q 706 -58 692 -75 q 753 -40 721 -40 q 797 -61 785 -40 q 810 -103 810 -82 q 771 -192 810 -161 q 657 -222 732 -222 q 557 -188 594 -222 q 519 -96 519 -154 l 519 554 l 404 554 l 404 -81 l 315 -81 l 315 554 q 199 576 249 554 q 116 631 149 597 q 67 709 83 665 q 50 799 50 753 q 65 884 50 842 q 111 959 81 926 q 188 1012 142 992 q 294 1032 233 1032 l 608 1032 l 608 -115 m 404 947 l 404 643 l 519 643 l 519 947 l 404 947 z "},"·":{"ha":374,"x_min":79,"x_max":299,"o":"m 299 518 q 267 440 299 472 q 189 407 235 407 q 111 440 143 407 q 79 518 79 472 q 111 594 79 563 q 189 626 143 626 q 267 594 235 626 q 299 518 299 563 z "},"¸":{"ha":335,"x_min":49,"x_max":285,"o":"m 156 -56 q 246 -89 207 -58 q 285 -172 285 -119 q 251 -269 285 -236 q 161 -301 217 -301 q 90 -280 119 -301 q 49 -228 60 -258 l 75 -201 q 111 -235 92 -225 q 150 -246 131 -246 q 195 -227 178 -246 q 213 -172 213 -208 q 181 -116 213 -133 q 107 -94 150 -99 l 107 24 l 156 24 l 156 -56 z "},"¹":{"ha":383,"x_min":46,"x_max":331,"o":"m 260 1044 q 256 1010 257 1025 q 254 979 254 994 l 254 615 q 331 590 254 590 l 331 540 l 56 540 l 56 590 q 146 615 146 590 l 146 919 l 49 919 l 46 968 q 190 1056 150 969 l 260 1044 z "},"º":{"ha":614,"x_min":68,"x_max":547,"o":"m 313 946 q 403 933 360 946 q 478 892 446 921 q 528 817 510 864 q 547 701 547 769 q 484 519 547 585 q 303 454 421 454 q 213 466 256 454 q 138 506 171 478 q 87 578 106 533 q 68 690 68 624 q 128 879 68 813 q 313 946 188 946 m 311 883 q 214 840 244 883 q 183 717 183 796 q 192 619 183 657 q 215 558 200 581 q 253 527 231 536 q 304 518 276 518 q 403 565 375 518 q 431 696 431 613 q 422 788 431 751 q 397 845 413 824 q 359 875 381 867 q 311 883 338 883 z "},"»":{"ha":801,"x_min":38,"x_max":761,"o":"m 97 118 l 38 188 l 201 399 l 38 611 l 97 678 l 401 399 l 97 118 m 456 118 l 394 186 l 561 399 l 394 613 l 456 678 l 761 399 l 456 118 z "},"¼":{"ha":1300,"x_min":97,"x_max":1194,"o":"m 311 1044 q 307 1010 308 1025 q 306 979 306 994 l 306 615 q 382 590 306 590 l 382 540 l 107 540 l 107 590 q 197 615 197 590 l 197 919 l 100 919 l 97 968 q 242 1056 201 969 l 311 1044 m 308 0 l 221 0 l 988 1035 l 1081 1035 l 308 0 m 1126 214 l 1194 214 l 1182 142 l 1126 142 l 1126 75 q 1193 50 1126 50 l 1193 0 l 929 0 l 929 50 q 1018 75 1018 50 l 1018 142 l 758 142 l 758 192 l 1029 511 l 1126 511 l 1126 214 m 856 214 l 1018 214 l 1018 407 l 856 214 z "},"½":{"ha":1300,"x_min":97,"x_max":1196,"o":"m 311 1044 q 307 1010 308 1025 q 306 979 306 994 l 306 615 q 382 590 306 590 l 382 540 l 107 540 l 107 590 q 197 615 197 590 l 197 919 l 100 919 l 97 968 q 242 1056 201 969 l 311 1044 m 308 0 l 221 0 l 988 1035 l 1081 1035 l 308 0 m 1193 140 q 1196 128 1196 133 q 1196 117 1196 122 q 1192 69 1196 92 q 1179 30 1189 47 q 1151 2 1169 13 q 1104 -8 1133 -8 q 1047 0 1069 -8 q 1006 17 1025 8 q 964 35 986 26 q 907 43 942 43 q 863 32 879 43 q 832 0 846 21 l 789 0 q 827 104 801 64 q 883 172 853 144 q 947 217 914 199 q 1007 255 981 236 q 1051 299 1033 274 q 1068 364 1068 324 q 1044 428 1068 401 q 974 454 1021 454 q 920 444 939 454 q 890 421 901 435 q 922 372 922 414 q 908 331 922 347 q 865 314 893 314 q 823 331 838 314 q 808 375 808 347 q 818 419 808 396 q 849 464 828 443 q 902 498 869 485 q 982 511 935 511 q 1057 503 1021 511 q 1120 475 1093 494 q 1164 425 1147 456 q 1181 350 1181 394 q 1164 278 1181 307 q 1121 228 1147 249 q 1061 192 1094 207 q 996 165 1028 178 q 936 137 964 151 q 892 101 908 122 q 965 119 922 119 q 1009 114 990 119 q 1044 101 1028 108 q 1074 88 1060 93 q 1104 82 1089 82 q 1132 92 1119 82 q 1151 140 1144 101 l 1193 140 z "},"¾":{"ha":1300,"x_min":82,"x_max":1194,"o":"m 308 0 l 221 0 l 988 1035 l 1081 1035 l 308 0 m 1126 214 l 1194 214 l 1182 142 l 1126 142 l 1126 75 q 1193 50 1126 50 l 1193 0 l 929 0 l 929 50 q 1018 75 1018 50 l 1018 142 l 758 142 l 758 192 l 1029 511 l 1126 511 l 1126 214 m 856 214 l 1018 214 l 1018 407 l 856 214 m 236 836 q 319 859 285 839 q 354 924 354 879 q 333 975 354 956 q 264 994 313 994 q 217 988 239 994 q 181 964 196 981 q 217 915 217 953 q 201 874 217 890 q 158 857 186 857 q 117 874 132 857 q 101 918 101 890 q 111 963 101 939 q 142 1006 121 986 q 197 1038 163 1025 q 281 1051 231 1051 q 352 1044 318 1051 q 411 1021 386 1036 q 451 981 436 1006 q 465 924 465 957 q 368 815 465 842 q 485 688 485 786 q 468 616 485 646 q 422 566 451 586 q 353 537 393 546 q 265 528 313 528 q 187 540 221 528 q 129 572 153 553 q 94 613 106 590 q 82 656 82 635 q 97 701 82 685 q 139 718 111 718 q 181 702 165 718 q 196 658 196 686 q 188 632 196 644 q 167 617 181 619 q 208 594 181 601 q 267 586 235 586 q 372 679 372 586 q 338 760 372 735 q 229 790 304 785 l 236 836 z "},"¿":{"ha":779,"x_min":50,"x_max":728,"o":"m 458 464 q 459 450 458 457 q 460 436 460 443 q 429 299 460 354 q 362 197 399 243 q 294 103 325 150 q 264 -10 264 56 q 303 -117 264 -74 q 418 -160 342 -160 q 497 -153 465 -160 q 549 -136 528 -147 q 582 -112 569 -125 q 604 -83 594 -99 q 547 -58 571 -82 q 524 3 524 -33 q 549 76 524 46 q 629 106 574 106 q 701 75 674 106 q 728 -3 728 44 q 712 -85 728 -42 q 656 -165 696 -128 q 551 -226 617 -201 q 386 -250 486 -250 q 256 -240 317 -250 q 149 -202 194 -229 q 76 -131 103 -175 q 50 -17 50 -86 q 72 89 50 46 q 126 166 93 132 q 200 228 160 200 q 276 290 240 257 q 338 364 311 322 q 371 464 364 406 l 458 464 m 518 706 q 485 628 518 661 q 407 596 453 596 q 331 628 363 596 q 299 706 299 661 q 331 783 299 750 q 407 815 363 815 q 485 783 453 815 q 518 706 518 750 z "},"À":{"ha":1221,"x_min":51,"x_max":1169,"o":"m 1056 122 q 1169 81 1069 81 l 1169 0 l 661 0 l 661 81 l 783 81 q 824 107 824 81 q 819 122 824 111 l 764 272 l 338 272 l 286 133 q 283 117 283 125 q 344 81 283 81 l 431 81 l 431 0 l 51 0 l 51 82 q 138 92 110 82 q 172 121 165 101 l 519 1032 l 721 1032 l 1056 122 m 374 375 l 729 375 l 553 864 l 374 375 m 739 1146 q 617 1176 679 1165 q 506 1197 556 1186 q 424 1226 456 1208 q 392 1276 392 1243 q 409 1323 392 1303 q 471 1343 426 1343 q 535 1328 503 1343 q 603 1290 568 1313 q 679 1241 639 1267 q 765 1196 719 1215 l 739 1146 z "},"Á":{"ha":1221,"x_min":51,"x_max":1169,"o":"m 1056 122 q 1169 81 1069 81 l 1169 0 l 661 0 l 661 81 l 783 81 q 824 107 824 81 q 819 122 824 111 l 764 272 l 338 272 l 286 133 q 283 117 283 125 q 344 81 283 81 l 431 81 l 431 0 l 51 0 l 51 82 q 138 92 110 82 q 172 121 165 101 l 519 1032 l 721 1032 l 1056 122 m 374 375 l 729 375 l 553 864 l 374 375 m 446 1196 q 526 1238 488 1213 q 601 1287 565 1264 q 672 1326 638 1310 q 743 1343 707 1343 q 802 1323 785 1343 q 819 1276 819 1303 q 783 1224 819 1242 q 694 1194 747 1206 q 581 1172 642 1182 q 472 1146 521 1163 l 446 1196 z "},"Â":{"ha":1221,"x_min":51,"x_max":1169,"o":"m 1056 122 q 1169 81 1069 81 l 1169 0 l 661 0 l 661 81 l 783 81 q 824 107 824 81 q 819 122 824 111 l 764 272 l 338 272 l 286 133 q 283 117 283 125 q 344 81 283 81 l 431 81 l 431 0 l 51 0 l 51 82 q 138 92 110 82 q 172 121 165 101 l 519 1032 l 721 1032 l 1056 122 m 374 375 l 729 375 l 553 864 l 374 375 m 774 1140 l 610 1214 l 440 1140 l 383 1182 l 610 1343 l 835 1181 l 774 1140 z "},"Ã":{"ha":1221,"x_min":51,"x_max":1169,"o":"m 1056 122 q 1169 81 1069 81 l 1169 0 l 661 0 l 661 81 l 783 81 q 824 107 824 81 q 819 122 824 111 l 764 272 l 338 272 l 286 133 q 283 117 283 125 q 344 81 283 81 l 431 81 l 431 0 l 51 0 l 51 82 q 138 92 110 82 q 172 121 165 101 l 519 1032 l 721 1032 l 1056 122 m 374 375 l 729 375 l 553 864 l 374 375 m 897 1296 q 829 1194 878 1229 q 714 1158 781 1158 q 649 1169 678 1158 q 595 1192 621 1179 q 544 1215 569 1204 q 492 1225 519 1225 q 390 1161 425 1225 l 321 1193 q 398 1294 346 1258 q 506 1329 450 1329 q 582 1319 553 1329 q 634 1297 611 1308 q 678 1274 657 1285 q 731 1264 699 1264 q 780 1274 758 1264 q 822 1324 801 1285 l 897 1296 z "},"Ä":{"ha":1221,"x_min":51,"x_max":1169,"o":"m 1056 122 q 1169 81 1069 81 l 1169 0 l 661 0 l 661 81 l 783 81 q 824 107 824 81 q 819 122 824 111 l 764 272 l 338 272 l 286 133 q 283 117 283 125 q 344 81 283 81 l 431 81 l 431 0 l 51 0 l 51 82 q 138 92 110 82 q 172 121 165 101 l 519 1032 l 721 1032 l 1056 122 m 374 375 l 729 375 l 553 864 l 374 375 m 858 1251 q 831 1185 858 1213 q 765 1158 804 1158 q 700 1185 726 1158 q 674 1251 674 1213 q 700 1317 674 1290 q 765 1343 726 1343 q 831 1317 804 1343 q 858 1251 858 1290 m 546 1251 q 519 1185 546 1213 q 453 1158 492 1158 q 388 1185 414 1158 q 361 1251 361 1213 q 388 1317 361 1290 q 453 1343 414 1343 q 519 1317 492 1343 q 546 1251 546 1290 z "},"Å":{"ha":1221,"x_min":51,"x_max":1169,"o":"m 1056 122 q 1169 81 1069 81 l 1169 0 l 661 0 l 661 81 l 783 81 q 824 107 824 81 q 819 122 824 111 l 764 272 l 338 272 l 286 133 q 283 117 283 125 q 344 81 283 81 l 431 81 l 431 0 l 51 0 l 51 82 q 138 92 110 82 q 172 121 165 101 l 519 1032 l 721 1032 l 1056 122 m 374 375 l 729 375 l 553 864 l 374 375 m 607 1286 q 545 1260 568 1286 q 522 1199 522 1235 q 545 1132 522 1156 q 607 1108 568 1108 q 666 1132 642 1108 q 690 1199 690 1156 q 666 1260 690 1235 q 607 1286 642 1286 m 751 1199 q 740 1142 751 1169 q 709 1096 729 1115 q 663 1065 689 1076 q 607 1053 636 1053 q 552 1065 578 1053 q 508 1096 526 1076 q 478 1142 489 1115 q 467 1199 467 1169 q 478 1254 467 1228 q 508 1301 489 1281 q 552 1332 526 1321 q 607 1343 578 1343 q 663 1332 636 1343 q 709 1301 689 1321 q 740 1254 729 1281 q 751 1199 751 1228 z "},"Æ":{"ha":1678,"x_min":31,"x_max":1613,"o":"m 1579 718 l 1482 713 q 1304 922 1465 922 l 1011 922 l 1011 588 l 1143 588 q 1215 624 1188 588 q 1249 756 1242 661 l 1335 756 l 1314 322 l 1231 322 q 1142 494 1217 494 l 1011 494 l 1011 108 l 1254 108 q 1513 406 1490 108 l 1613 396 l 1579 0 l 675 0 l 675 81 q 799 144 799 81 l 799 271 l 365 271 l 275 138 q 263 108 263 118 q 315 81 263 81 l 404 81 l 404 0 l 31 0 l 31 82 q 103 92 76 82 q 147 125 131 101 l 663 875 q 678 914 678 899 q 660 942 678 933 q 614 950 642 950 l 488 950 l 488 1032 l 1579 1032 l 1579 718 m 433 375 l 799 375 l 799 918 l 433 375 z "},"Ç":{"ha":1097,"x_min":51,"x_max":1046,"o":"m 1028 692 l 926 683 q 820 871 899 800 q 617 942 742 942 q 460 910 525 942 q 353 821 394 878 q 293 685 313 764 q 274 511 274 606 q 298 330 274 407 q 366 202 322 253 q 470 126 410 151 q 604 101 531 101 q 832 169 749 101 q 953 358 915 236 l 1046 326 q 995 201 1028 263 q 910 92 963 140 q 785 13 858 44 q 614 -22 713 -18 l 614 -56 q 704 -89 665 -58 q 743 -172 743 -119 q 709 -269 743 -236 q 619 -301 675 -301 q 548 -280 578 -301 q 507 -228 518 -258 l 533 -201 q 569 -235 550 -225 q 608 -246 589 -246 q 653 -227 636 -246 q 671 -172 671 -208 q 640 -116 671 -133 q 565 -94 608 -99 l 565 -22 q 363 14 457 -19 q 200 113 269 47 q 91 276 131 178 q 51 506 51 374 q 92 749 51 646 q 205 920 133 853 q 372 1021 276 988 q 578 1054 468 1054 q 770 1021 690 1054 q 890 944 850 988 l 925 1032 l 1028 1032 l 1028 692 z "},"È":{"ha":1071,"x_min":51,"x_max":1007,"o":"m 974 718 l 876 713 q 699 922 860 922 l 388 922 l 388 588 l 546 588 q 642 756 629 588 l 729 756 l 708 322 l 624 322 q 536 494 610 494 l 388 494 l 388 108 l 649 108 q 907 406 882 108 l 1007 396 l 974 0 l 51 0 l 51 81 q 175 144 175 81 l 175 886 q 51 950 175 950 l 51 1032 l 974 1032 l 974 718 m 676 1146 q 555 1176 617 1165 q 443 1197 493 1186 q 361 1226 393 1208 q 329 1276 329 1243 q 347 1323 329 1303 q 408 1343 364 1343 q 473 1328 440 1343 q 541 1290 506 1313 q 617 1241 576 1267 q 703 1196 657 1215 l 676 1146 z "},"É":{"ha":1071,"x_min":51,"x_max":1007,"o":"m 974 718 l 876 713 q 699 922 860 922 l 388 922 l 388 588 l 546 588 q 642 756 629 588 l 729 756 l 708 322 l 624 322 q 536 494 610 494 l 388 494 l 388 108 l 649 108 q 907 406 882 108 l 1007 396 l 974 0 l 51 0 l 51 81 q 175 144 175 81 l 175 886 q 51 950 175 950 l 51 1032 l 974 1032 l 974 718 m 389 1196 q 469 1238 431 1213 q 544 1287 508 1264 q 615 1326 581 1310 q 686 1343 650 1343 q 745 1323 728 1343 q 763 1276 763 1303 q 726 1224 763 1242 q 638 1194 690 1206 q 524 1172 585 1182 q 415 1146 464 1163 l 389 1196 z "},"Ê":{"ha":1071,"x_min":51,"x_max":1007,"o":"m 974 718 l 876 713 q 699 922 860 922 l 388 922 l 388 588 l 546 588 q 642 756 629 588 l 729 756 l 708 322 l 624 322 q 536 494 610 494 l 388 494 l 388 108 l 649 108 q 907 406 882 108 l 1007 396 l 974 0 l 51 0 l 51 81 q 175 144 175 81 l 175 886 q 51 950 175 950 l 51 1032 l 974 1032 l 974 718 m 703 1140 l 539 1214 l 369 1140 l 313 1182 l 539 1343 l 764 1181 l 703 1140 z "},"Ë":{"ha":1071,"x_min":51,"x_max":1007,"o":"m 974 718 l 876 713 q 699 922 860 922 l 388 922 l 388 588 l 546 588 q 642 756 629 588 l 729 756 l 708 322 l 624 322 q 536 494 610 494 l 388 494 l 388 108 l 649 108 q 907 406 882 108 l 1007 396 l 974 0 l 51 0 l 51 81 q 175 144 175 81 l 175 886 q 51 950 175 950 l 51 1032 l 974 1032 l 974 718 m 789 1251 q 762 1185 789 1213 q 696 1158 735 1158 q 631 1185 657 1158 q 604 1251 604 1213 q 631 1317 604 1290 q 696 1343 657 1343 q 762 1317 735 1343 q 789 1251 789 1290 m 476 1251 q 449 1185 476 1213 q 383 1158 422 1158 q 318 1185 344 1158 q 292 1251 292 1213 q 318 1317 292 1290 q 383 1343 344 1343 q 449 1317 422 1343 q 476 1251 476 1290 z "},"Ì":{"ha":593,"x_min":65,"x_max":526,"o":"m 526 950 q 403 886 403 950 l 403 144 q 526 81 403 81 l 526 0 l 65 0 l 65 81 q 190 144 190 81 l 190 886 q 65 950 190 950 l 65 1032 l 526 1032 l 526 950 m 432 1146 q 310 1176 372 1165 q 199 1197 249 1186 q 117 1226 149 1208 q 85 1276 85 1243 q 102 1323 85 1303 q 164 1343 119 1343 q 228 1328 196 1343 q 297 1290 261 1313 q 372 1241 332 1267 q 458 1196 413 1215 l 432 1146 z "},"Í":{"ha":593,"x_min":65,"x_max":526,"o":"m 526 950 q 403 886 403 950 l 403 144 q 526 81 403 81 l 526 0 l 65 0 l 65 81 q 190 144 190 81 l 190 886 q 65 950 190 950 l 65 1032 l 526 1032 l 526 950 m 132 1196 q 213 1238 174 1213 q 288 1287 251 1264 q 358 1326 324 1310 q 429 1343 393 1343 q 488 1323 471 1343 q 506 1276 506 1303 q 469 1224 506 1242 q 381 1194 433 1206 q 267 1172 328 1182 q 158 1146 207 1163 l 132 1196 z "},"Î":{"ha":593,"x_min":65,"x_max":526,"o":"m 526 950 q 403 886 403 950 l 403 144 q 526 81 403 81 l 526 0 l 65 0 l 65 81 q 190 144 190 81 l 190 886 q 65 950 190 950 l 65 1032 l 526 1032 l 526 950 m 460 1140 l 296 1214 l 126 1140 l 69 1182 l 296 1343 l 521 1181 l 460 1140 z "},"Ï":{"ha":593,"x_min":49,"x_max":546,"o":"m 526 950 q 403 886 403 950 l 403 144 q 526 81 403 81 l 526 0 l 65 0 l 65 81 q 190 144 190 81 l 190 886 q 65 950 190 950 l 65 1032 l 526 1032 l 526 950 m 546 1251 q 519 1185 546 1213 q 453 1158 492 1158 q 388 1185 414 1158 q 361 1251 361 1213 q 388 1317 361 1290 q 453 1343 414 1343 q 519 1317 492 1343 q 546 1251 546 1290 m 233 1251 q 206 1185 233 1213 q 140 1158 179 1158 q 75 1185 101 1158 q 49 1251 49 1213 q 75 1317 49 1290 q 140 1343 101 1343 q 206 1317 179 1343 q 233 1251 233 1290 z "},"Ð":{"ha":1163,"x_min":51,"x_max":1104,"o":"m 593 1032 q 815 1013 719 1032 q 976 942 911 994 q 1072 793 1040 889 q 1104 543 1104 697 q 1072 281 1104 386 q 976 114 1040 176 q 815 26 911 51 q 593 0 719 0 l 51 0 l 51 81 q 175 144 175 81 l 175 497 l 51 497 l 51 585 l 175 585 l 175 886 q 51 950 175 950 l 51 1032 l 593 1032 m 388 922 l 388 585 l 511 585 l 511 497 l 388 497 l 388 108 l 615 108 q 746 137 694 108 q 828 219 797 165 q 872 354 860 274 q 885 539 885 435 q 872 715 885 642 q 828 833 860 788 q 745 901 797 879 q 615 922 693 922 l 388 922 z "},"Ñ":{"ha":1231,"x_min":51,"x_max":1194,"o":"m 1194 950 q 1071 886 1071 950 l 1071 0 l 814 0 l 290 833 l 290 144 q 414 81 290 81 l 414 0 l 51 0 l 51 81 q 175 144 175 81 l 175 886 q 51 950 175 950 l 51 1032 l 424 1032 l 956 179 l 956 886 q 832 950 956 950 l 832 1032 l 1194 1032 l 1194 950 m 903 1296 q 835 1194 883 1229 q 719 1158 786 1158 q 655 1169 683 1158 q 601 1192 626 1179 q 550 1215 575 1204 q 497 1225 525 1225 q 396 1161 431 1225 l 326 1193 q 403 1294 351 1258 q 511 1329 456 1329 q 588 1319 558 1329 q 640 1297 617 1308 q 683 1274 663 1285 q 736 1264 704 1264 q 785 1274 764 1264 q 828 1324 807 1285 l 903 1296 z "},"Ò":{"ha":1156,"x_min":51,"x_max":1104,"o":"m 588 1054 q 794 1026 699 1054 q 958 935 889 999 q 1065 769 1026 872 q 1104 517 1104 667 q 1071 294 1104 393 q 971 124 1038 194 q 803 16 904 54 q 567 -22 701 -22 q 363 4 457 -22 q 199 92 268 31 q 91 251 131 153 q 51 494 51 350 q 82 727 51 624 q 178 903 113 831 q 344 1015 243 976 q 588 1054 446 1054 m 594 939 q 446 913 508 939 q 344 839 383 888 q 285 719 304 790 q 267 558 267 649 q 288 328 267 418 q 347 187 308 239 q 442 115 386 135 q 567 94 497 94 q 721 122 658 94 q 821 201 783 149 q 875 330 858 253 q 892 507 892 407 q 870 719 892 636 q 810 851 849 803 q 716 919 771 900 q 594 939 661 939 m 710 1146 q 588 1176 650 1165 q 476 1197 526 1186 q 394 1226 426 1208 q 363 1276 363 1243 q 380 1323 363 1303 q 442 1343 397 1343 q 506 1328 474 1343 q 574 1290 539 1313 q 650 1241 610 1267 q 736 1196 690 1215 l 710 1146 z "},"Ó":{"ha":1156,"x_min":51,"x_max":1104,"o":"m 588 1054 q 794 1026 699 1054 q 958 935 889 999 q 1065 769 1026 872 q 1104 517 1104 667 q 1071 294 1104 393 q 971 124 1038 194 q 803 16 904 54 q 567 -22 701 -22 q 363 4 457 -22 q 199 92 268 31 q 91 251 131 153 q 51 494 51 350 q 82 727 51 624 q 178 903 113 831 q 344 1015 243 976 q 588 1054 446 1054 m 594 939 q 446 913 508 939 q 344 839 383 888 q 285 719 304 790 q 267 558 267 649 q 288 328 267 418 q 347 187 308 239 q 442 115 386 135 q 567 94 497 94 q 721 122 658 94 q 821 201 783 149 q 875 330 858 253 q 892 507 892 407 q 870 719 892 636 q 810 851 849 803 q 716 919 771 900 q 594 939 661 939 m 415 1196 q 496 1238 457 1213 q 571 1287 535 1264 q 642 1326 607 1310 q 713 1343 676 1343 q 772 1323 754 1343 q 789 1276 789 1303 q 753 1224 789 1242 q 664 1194 717 1206 q 551 1172 611 1182 q 442 1146 490 1163 l 415 1196 z "},"Ô":{"ha":1156,"x_min":51,"x_max":1104,"o":"m 588 1054 q 794 1026 699 1054 q 958 935 889 999 q 1065 769 1026 872 q 1104 517 1104 667 q 1071 294 1104 393 q 971 124 1038 194 q 803 16 904 54 q 567 -22 701 -22 q 363 4 457 -22 q 199 92 268 31 q 91 251 131 153 q 51 494 51 350 q 82 727 51 624 q 178 903 113 831 q 344 1015 243 976 q 588 1054 446 1054 m 594 939 q 446 913 508 939 q 344 839 383 888 q 285 719 304 790 q 267 558 267 649 q 288 328 267 418 q 347 187 308 239 q 442 115 386 135 q 567 94 497 94 q 721 122 658 94 q 821 201 783 149 q 875 330 858 253 q 892 507 892 407 q 870 719 892 636 q 810 851 849 803 q 716 919 771 900 q 594 939 661 939 m 740 1140 l 576 1214 l 407 1140 l 350 1182 l 576 1343 l 801 1181 l 740 1140 z "},"Õ":{"ha":1156,"x_min":51,"x_max":1104,"o":"m 588 1054 q 794 1026 699 1054 q 958 935 889 999 q 1065 769 1026 872 q 1104 517 1104 667 q 1071 294 1104 393 q 971 124 1038 194 q 803 16 904 54 q 567 -22 701 -22 q 363 4 457 -22 q 199 92 268 31 q 91 251 131 153 q 51 494 51 350 q 82 727 51 624 q 178 903 113 831 q 344 1015 243 976 q 588 1054 446 1054 m 594 939 q 446 913 508 939 q 344 839 383 888 q 285 719 304 790 q 267 558 267 649 q 288 328 267 418 q 347 187 308 239 q 442 115 386 135 q 567 94 497 94 q 721 122 658 94 q 821 201 783 149 q 875 330 858 253 q 892 507 892 407 q 870 719 892 636 q 810 851 849 803 q 716 919 771 900 q 594 939 661 939 m 865 1296 q 797 1194 846 1229 q 682 1158 749 1158 q 617 1169 646 1158 q 563 1192 589 1179 q 513 1215 538 1204 q 460 1225 488 1225 q 358 1161 393 1225 l 289 1193 q 366 1294 314 1258 q 474 1329 418 1329 q 550 1319 521 1329 q 602 1297 579 1308 q 646 1274 625 1285 q 699 1264 667 1264 q 748 1274 726 1264 q 790 1324 769 1285 l 865 1296 z "},"Ö":{"ha":1156,"x_min":51,"x_max":1104,"o":"m 588 1054 q 794 1026 699 1054 q 958 935 889 999 q 1065 769 1026 872 q 1104 517 1104 667 q 1071 294 1104 393 q 971 124 1038 194 q 803 16 904 54 q 567 -22 701 -22 q 363 4 457 -22 q 199 92 268 31 q 91 251 131 153 q 51 494 51 350 q 82 727 51 624 q 178 903 113 831 q 344 1015 243 976 q 588 1054 446 1054 m 594 939 q 446 913 508 939 q 344 839 383 888 q 285 719 304 790 q 267 558 267 649 q 288 328 267 418 q 347 187 308 239 q 442 115 386 135 q 567 94 497 94 q 721 122 658 94 q 821 201 783 149 q 875 330 858 253 q 892 507 892 407 q 870 719 892 636 q 810 851 849 803 q 716 919 771 900 q 594 939 661 939 m 825 1251 q 798 1185 825 1213 q 732 1158 771 1158 q 667 1185 693 1158 q 640 1251 640 1213 q 667 1317 640 1290 q 732 1343 693 1343 q 798 1317 771 1343 q 825 1251 825 1290 m 513 1251 q 485 1185 513 1213 q 419 1158 458 1158 q 354 1185 381 1158 q 328 1251 328 1213 q 354 1317 328 1290 q 419 1343 381 1343 q 485 1317 458 1343 q 513 1251 513 1290 z "},"×":{"ha":799,"x_min":119,"x_max":681,"o":"m 474 493 l 681 297 l 604 225 l 400 419 l 194 225 l 119 297 l 322 493 l 119 686 l 196 758 l 400 564 l 603 758 l 678 686 l 474 493 z "},"Ø":{"ha":1156,"x_min":51,"x_max":1104,"o":"m 897 979 q 1049 810 993 922 q 1104 517 1104 697 q 1071 294 1104 393 q 971 124 1038 194 q 803 16 904 54 q 567 -22 701 -22 q 457 -15 508 -22 q 358 7 406 -8 l 304 -90 l 210 -43 l 260 47 q 108 212 164 104 q 51 494 51 319 q 82 727 51 624 q 178 903 113 831 q 344 1015 243 976 q 588 1054 446 1054 q 801 1022 707 1054 l 849 1108 l 942 1061 l 897 979 m 739 910 q 671 932 707 925 q 594 939 635 939 q 446 913 508 939 q 344 839 383 888 q 285 719 304 790 q 267 558 267 649 q 289 345 267 428 q 353 215 311 263 l 739 910 m 422 122 q 490 101 454 107 q 567 94 525 94 q 721 122 658 94 q 821 201 783 149 q 875 330 858 253 q 892 507 892 407 q 869 699 892 625 q 807 817 847 772 l 422 122 z "},"Ù":{"ha":1208,"x_min":51,"x_max":1161,"o":"m 1161 949 q 1036 885 1036 949 l 1036 421 q 1013 234 1036 317 q 940 94 990 151 q 810 8 890 38 q 614 -22 729 -22 q 414 8 497 -22 q 277 94 331 38 q 199 234 224 151 q 175 421 175 317 l 175 885 q 51 949 175 949 l 51 1031 l 538 1031 l 538 949 q 423 933 458 949 q 388 885 388 917 l 388 421 q 400 276 388 338 q 442 176 413 215 q 523 117 472 136 q 651 97 574 97 q 780 117 728 97 q 864 176 832 136 q 909 276 896 215 q 922 421 922 338 l 922 885 q 886 933 922 917 q 771 949 850 949 l 771 1031 l 1161 1031 l 1161 949 m 744 1146 q 623 1176 685 1165 q 511 1197 561 1186 q 429 1226 461 1208 q 397 1276 397 1243 q 415 1323 397 1303 q 476 1343 432 1343 q 541 1328 508 1343 q 609 1290 574 1313 q 685 1241 644 1267 q 771 1196 725 1215 l 744 1146 z "},"Ú":{"ha":1208,"x_min":51,"x_max":1161,"o":"m 1161 949 q 1036 885 1036 949 l 1036 421 q 1013 234 1036 317 q 940 94 990 151 q 810 8 890 38 q 614 -22 729 -22 q 414 8 497 -22 q 277 94 331 38 q 199 234 224 151 q 175 421 175 317 l 175 885 q 51 949 175 949 l 51 1031 l 538 1031 l 538 949 q 423 933 458 949 q 388 885 388 917 l 388 421 q 400 276 388 338 q 442 176 413 215 q 523 117 472 136 q 651 97 574 97 q 780 117 728 97 q 864 176 832 136 q 909 276 896 215 q 922 421 922 338 l 922 885 q 886 933 922 917 q 771 949 850 949 l 771 1031 l 1161 1031 l 1161 949 m 460 1196 q 540 1238 501 1213 q 615 1287 579 1264 q 686 1326 651 1310 q 757 1343 721 1343 q 816 1323 799 1343 q 833 1276 833 1303 q 797 1224 833 1242 q 708 1194 761 1206 q 595 1172 656 1182 q 486 1146 535 1163 l 460 1196 z "},"Û":{"ha":1208,"x_min":51,"x_max":1161,"o":"m 1161 949 q 1036 885 1036 949 l 1036 421 q 1013 234 1036 317 q 940 94 990 151 q 810 8 890 38 q 614 -22 729 -22 q 414 8 497 -22 q 277 94 331 38 q 199 234 224 151 q 175 421 175 317 l 175 885 q 51 949 175 949 l 51 1031 l 538 1031 l 538 949 q 423 933 458 949 q 388 885 388 917 l 388 421 q 400 276 388 338 q 442 176 413 215 q 523 117 472 136 q 651 97 574 97 q 780 117 728 97 q 864 176 832 136 q 909 276 896 215 q 922 421 922 338 l 922 885 q 886 933 922 917 q 771 949 850 949 l 771 1031 l 1161 1031 l 1161 949 m 786 1140 l 622 1214 l 453 1140 l 396 1182 l 622 1343 l 847 1181 l 786 1140 z "},"Ü":{"ha":1208,"x_min":51,"x_max":1161,"o":"m 1161 949 q 1036 885 1036 949 l 1036 421 q 1013 234 1036 317 q 940 94 990 151 q 810 8 890 38 q 614 -22 729 -22 q 414 8 497 -22 q 277 94 331 38 q 199 234 224 151 q 175 421 175 317 l 175 885 q 51 949 175 949 l 51 1031 l 538 1031 l 538 949 q 423 933 458 949 q 388 885 388 917 l 388 421 q 400 276 388 338 q 442 176 413 215 q 523 117 472 136 q 651 97 574 97 q 780 117 728 97 q 864 176 832 136 q 909 276 896 215 q 922 421 922 338 l 922 885 q 886 933 922 917 q 771 949 850 949 l 771 1031 l 1161 1031 l 1161 949 m 867 1251 q 840 1185 867 1213 q 774 1158 813 1158 q 708 1185 735 1158 q 682 1251 682 1213 q 708 1317 682 1290 q 774 1343 735 1343 q 840 1317 813 1343 q 867 1251 867 1290 m 554 1251 q 527 1185 554 1213 q 461 1158 500 1158 q 396 1185 422 1158 q 369 1251 369 1213 q 396 1317 369 1290 q 461 1343 422 1343 q 527 1317 500 1343 q 554 1251 554 1290 z "},"Ý":{"ha":1143,"x_min":39,"x_max":1099,"o":"m 1099 949 q 1022 938 1050 949 q 982 910 993 928 l 667 446 l 667 144 q 806 81 667 81 l 806 0 l 315 0 l 315 81 q 454 144 454 81 l 454 446 l 149 908 q 106 941 133 932 q 39 950 78 950 l 39 1032 l 549 1032 l 549 950 l 439 950 q 397 922 397 950 q 404 903 397 914 l 629 546 l 857 897 q 863 917 863 907 q 806 950 863 950 l 739 950 l 739 1032 l 1099 1032 l 1099 949 m 425 1196 q 506 1238 467 1213 q 581 1287 544 1264 q 651 1326 617 1310 q 722 1343 686 1343 q 781 1323 764 1343 q 799 1276 799 1303 q 763 1224 799 1242 q 674 1194 726 1206 q 560 1172 621 1182 q 451 1146 500 1163 l 425 1196 z "},"Þ":{"ha":1017,"x_min":51,"x_max":971,"o":"m 542 950 q 423 932 458 950 q 388 878 388 914 l 388 804 l 546 804 q 713 794 635 804 q 847 753 790 783 q 938 669 904 724 q 971 526 971 615 q 938 372 971 431 q 847 283 904 314 q 713 242 790 251 q 546 232 635 232 l 388 232 l 388 144 q 542 81 388 81 l 542 0 l 51 0 l 51 81 q 175 144 175 81 l 175 886 q 51 950 175 950 l 51 1032 l 542 1032 l 542 950 m 388 689 l 388 349 l 561 349 q 710 396 661 349 q 758 522 758 443 q 712 646 758 603 q 561 689 665 689 l 388 689 z "},"ß":{"ha":988,"x_min":36,"x_max":915,"o":"m 354 0 l 36 0 l 36 79 q 158 142 158 79 l 158 803 q 188 941 158 886 q 263 1027 217 996 q 365 1071 308 1058 q 478 1083 422 1083 q 600 1070 543 1083 q 699 1029 657 1057 q 764 958 740 1001 q 788 857 788 915 q 749 712 788 765 q 639 632 711 658 q 844 530 774 618 q 915 290 915 442 q 849 58 915 140 q 635 -24 783 -24 q 545 -12 583 -24 q 481 21 507 0 q 440 69 456 42 q 417 125 424 96 l 478 154 q 527 90 493 113 q 601 67 561 67 q 692 124 664 67 q 719 285 719 181 q 708 416 719 361 q 670 507 697 471 q 599 560 643 543 q 489 578 556 578 l 489 657 q 576 703 549 661 q 604 847 604 746 q 599 910 604 882 q 581 958 594 939 q 544 989 568 978 q 483 1000 521 1000 q 391 963 428 1000 q 354 836 354 926 l 354 0 z "},"à":{"ha":946,"x_min":54,"x_max":904,"o":"m 758 136 q 800 75 758 75 q 829 94 819 75 q 839 136 839 113 l 839 218 l 904 218 l 904 156 q 893 78 904 110 q 861 26 882 46 q 812 -1 840 7 q 750 -10 783 -10 q 686 2 713 -10 q 642 33 660 14 q 614 78 624 53 q 599 131 604 103 q 556 72 583 100 q 492 23 529 44 q 407 -11 454 1 q 306 -24 360 -24 q 115 30 175 -24 q 54 175 54 83 q 76 267 54 231 q 135 329 97 304 q 224 369 174 354 q 333 395 275 383 q 452 418 390 407 q 575 446 514 429 l 575 489 q 566 554 575 524 q 537 608 557 585 q 486 644 517 631 q 414 657 456 657 q 295 643 343 657 q 218 606 247 629 q 272 585 250 603 q 294 533 294 567 q 269 470 294 494 q 196 446 244 446 q 123 472 147 446 q 99 543 99 497 q 121 613 99 578 q 185 674 143 647 q 288 718 226 701 q 429 735 350 735 q 553 723 493 735 q 658 683 613 711 q 731 605 704 654 q 758 481 758 556 l 758 136 m 576 392 q 422 351 488 369 q 314 310 357 332 q 250 261 271 289 q 229 192 229 233 q 264 114 229 142 q 369 86 299 86 q 495 120 440 86 q 576 199 550 154 l 576 392 m 583 800 q 462 830 524 819 q 350 851 400 840 q 268 880 300 863 q 236 931 236 897 q 253 977 236 957 q 315 997 271 997 q 380 982 347 997 q 448 944 413 967 q 524 895 483 921 q 610 850 564 869 l 583 800 z "},"á":{"ha":946,"x_min":54,"x_max":904,"o":"m 758 136 q 800 75 758 75 q 829 94 819 75 q 839 136 839 113 l 839 218 l 904 218 l 904 156 q 893 78 904 110 q 861 26 882 46 q 812 -1 840 7 q 750 -10 783 -10 q 686 2 713 -10 q 642 33 660 14 q 614 78 624 53 q 599 131 604 103 q 556 72 583 100 q 492 23 529 44 q 407 -11 454 1 q 306 -24 360 -24 q 115 30 175 -24 q 54 175 54 83 q 76 267 54 231 q 135 329 97 304 q 224 369 174 354 q 333 395 275 383 q 452 418 390 407 q 575 446 514 429 l 575 489 q 566 554 575 524 q 537 608 557 585 q 486 644 517 631 q 414 657 456 657 q 295 643 343 657 q 218 606 247 629 q 272 585 250 603 q 294 533 294 567 q 269 470 294 494 q 196 446 244 446 q 123 472 147 446 q 99 543 99 497 q 121 613 99 578 q 185 674 143 647 q 288 718 226 701 q 429 735 350 735 q 553 723 493 735 q 658 683 613 711 q 731 605 704 654 q 758 481 758 556 l 758 136 m 576 392 q 422 351 488 369 q 314 310 357 332 q 250 261 271 289 q 229 192 229 233 q 264 114 229 142 q 369 86 299 86 q 495 120 440 86 q 576 199 550 154 l 576 392 m 303 850 q 383 892 344 867 q 458 941 422 918 q 529 981 494 964 q 600 997 564 997 q 659 977 642 997 q 676 931 676 957 q 640 878 676 896 q 551 848 604 860 q 438 826 499 836 q 329 800 378 817 l 303 850 z "},"â":{"ha":946,"x_min":54,"x_max":904,"o":"m 758 136 q 800 75 758 75 q 829 94 819 75 q 839 136 839 113 l 839 218 l 904 218 l 904 156 q 893 78 904 110 q 861 26 882 46 q 812 -1 840 7 q 750 -10 783 -10 q 686 2 713 -10 q 642 33 660 14 q 614 78 624 53 q 599 131 604 103 q 556 72 583 100 q 492 23 529 44 q 407 -11 454 1 q 306 -24 360 -24 q 115 30 175 -24 q 54 175 54 83 q 76 267 54 231 q 135 329 97 304 q 224 369 174 354 q 333 395 275 383 q 452 418 390 407 q 575 446 514 429 l 575 489 q 566 554 575 524 q 537 608 557 585 q 486 644 517 631 q 414 657 456 657 q 295 643 343 657 q 218 606 247 629 q 272 585 250 603 q 294 533 294 567 q 269 470 294 494 q 196 446 244 446 q 123 472 147 446 q 99 543 99 497 q 121 613 99 578 q 185 674 143 647 q 288 718 226 701 q 429 735 350 735 q 553 723 493 735 q 658 683 613 711 q 731 605 704 654 q 758 481 758 556 l 758 136 m 576 392 q 422 351 488 369 q 314 310 357 332 q 250 261 271 289 q 229 192 229 233 q 264 114 229 142 q 369 86 299 86 q 495 120 440 86 q 576 199 550 154 l 576 392 m 615 794 l 451 868 l 282 794 l 225 836 l 451 997 l 676 835 l 615 794 z "},"ã":{"ha":946,"x_min":54,"x_max":904,"o":"m 758 136 q 800 75 758 75 q 829 94 819 75 q 839 136 839 113 l 839 218 l 904 218 l 904 156 q 893 78 904 110 q 861 26 882 46 q 812 -1 840 7 q 750 -10 783 -10 q 686 2 713 -10 q 642 33 660 14 q 614 78 624 53 q 599 131 604 103 q 556 72 583 100 q 492 23 529 44 q 407 -11 454 1 q 306 -24 360 -24 q 115 30 175 -24 q 54 175 54 83 q 76 267 54 231 q 135 329 97 304 q 224 369 174 354 q 333 395 275 383 q 452 418 390 407 q 575 446 514 429 l 575 489 q 566 554 575 524 q 537 608 557 585 q 486 644 517 631 q 414 657 456 657 q 295 643 343 657 q 218 606 247 629 q 272 585 250 603 q 294 533 294 567 q 269 470 294 494 q 196 446 244 446 q 123 472 147 446 q 99 543 99 497 q 121 613 99 578 q 185 674 143 647 q 288 718 226 701 q 429 735 350 735 q 553 723 493 735 q 658 683 613 711 q 731 605 704 654 q 758 481 758 556 l 758 136 m 576 392 q 422 351 488 369 q 314 310 357 332 q 250 261 271 289 q 229 192 229 233 q 264 114 229 142 q 369 86 299 86 q 495 120 440 86 q 576 199 550 154 l 576 392 m 738 950 q 669 848 718 883 q 554 813 621 813 q 490 823 518 813 q 435 846 461 833 q 385 869 410 858 q 332 879 360 879 q 231 815 265 879 l 161 847 q 238 948 186 913 q 346 983 290 983 q 422 973 393 983 q 474 951 451 963 q 518 928 497 939 q 571 918 539 918 q 620 928 599 918 q 663 978 642 939 l 738 950 z "},"ä":{"ha":946,"x_min":54,"x_max":904,"o":"m 758 136 q 800 75 758 75 q 829 94 819 75 q 839 136 839 113 l 839 218 l 904 218 l 904 156 q 893 78 904 110 q 861 26 882 46 q 812 -1 840 7 q 750 -10 783 -10 q 686 2 713 -10 q 642 33 660 14 q 614 78 624 53 q 599 131 604 103 q 556 72 583 100 q 492 23 529 44 q 407 -11 454 1 q 306 -24 360 -24 q 115 30 175 -24 q 54 175 54 83 q 76 267 54 231 q 135 329 97 304 q 224 369 174 354 q 333 395 275 383 q 452 418 390 407 q 575 446 514 429 l 575 489 q 566 554 575 524 q 537 608 557 585 q 486 644 517 631 q 414 657 456 657 q 295 643 343 657 q 218 606 247 629 q 272 585 250 603 q 294 533 294 567 q 269 470 294 494 q 196 446 244 446 q 123 472 147 446 q 99 543 99 497 q 121 613 99 578 q 185 674 143 647 q 288 718 226 701 q 429 735 350 735 q 553 723 493 735 q 658 683 613 711 q 731 605 704 654 q 758 481 758 556 l 758 136 m 576 392 q 422 351 488 369 q 314 310 357 332 q 250 261 271 289 q 229 192 229 233 q 264 114 229 142 q 369 86 299 86 q 495 120 440 86 q 576 199 550 154 l 576 392 m 697 906 q 670 840 697 867 q 604 813 643 813 q 539 840 565 813 q 513 906 513 867 q 539 971 513 944 q 604 997 565 997 q 670 971 643 997 q 697 906 697 944 m 385 906 q 358 840 385 867 q 292 813 331 813 q 226 840 253 813 q 200 906 200 867 q 226 971 200 944 q 292 997 253 997 q 358 971 331 997 q 385 906 385 944 z "},"å":{"ha":946,"x_min":54,"x_max":904,"o":"m 758 136 q 800 75 758 75 q 829 94 819 75 q 839 136 839 113 l 839 218 l 904 218 l 904 156 q 893 78 904 110 q 861 26 882 46 q 812 -1 840 7 q 750 -10 783 -10 q 686 2 713 -10 q 642 33 660 14 q 614 78 624 53 q 599 131 604 103 q 556 72 583 100 q 492 23 529 44 q 407 -11 454 1 q 306 -24 360 -24 q 115 30 175 -24 q 54 175 54 83 q 76 267 54 231 q 135 329 97 304 q 224 369 174 354 q 333 395 275 383 q 452 418 390 407 q 575 446 514 429 l 575 489 q 566 554 575 524 q 537 608 557 585 q 486 644 517 631 q 414 657 456 657 q 295 643 343 657 q 218 606 247 629 q 272 585 250 603 q 294 533 294 567 q 269 470 294 494 q 196 446 244 446 q 123 472 147 446 q 99 543 99 497 q 121 613 99 578 q 185 674 143 647 q 288 718 226 701 q 429 735 350 735 q 553 723 493 735 q 658 683 613 711 q 731 605 704 654 q 758 481 758 556 l 758 136 m 576 392 q 422 351 488 369 q 314 310 357 332 q 250 261 271 289 q 229 192 229 233 q 264 114 229 142 q 369 86 299 86 q 495 120 440 86 q 576 199 550 154 l 576 392 m 450 989 q 388 963 411 989 q 365 901 365 938 q 388 835 365 858 q 450 811 411 811 q 509 835 485 811 q 533 901 533 858 q 509 963 533 938 q 450 989 485 989 m 594 901 q 583 845 594 872 q 552 799 572 818 q 506 767 532 779 q 450 756 479 756 q 395 767 421 756 q 351 799 369 779 q 321 845 332 818 q 310 901 310 872 q 321 957 310 931 q 351 1003 332 983 q 395 1035 369 1024 q 450 1046 421 1046 q 506 1035 479 1046 q 552 1003 532 1024 q 583 957 572 983 q 594 901 594 931 z "},"æ":{"ha":1351,"x_min":54,"x_max":1297,"o":"m 757 363 q 808 143 760 219 q 961 67 857 67 q 1100 105 1039 67 q 1185 232 1161 143 l 1271 215 q 1234 126 1258 169 q 1171 50 1210 83 q 1077 -3 1132 17 q 950 -24 1022 -24 q 847 -14 896 -24 q 757 17 799 -4 q 683 75 715 39 q 629 165 650 111 q 506 29 583 82 q 306 -24 429 -24 q 115 30 175 -24 q 54 175 54 83 q 76 267 54 231 q 135 329 97 304 q 223 369 172 354 q 332 395 274 383 q 452 418 390 407 q 575 446 514 429 l 575 489 q 566 554 575 524 q 537 608 557 585 q 486 644 517 631 q 414 657 456 657 q 295 643 343 657 q 218 606 247 629 q 272 585 250 603 q 294 533 294 567 q 269 470 294 494 q 196 446 244 446 q 123 472 147 446 q 99 543 99 497 q 121 613 99 578 q 185 674 143 647 q 288 718 226 701 q 429 735 350 735 q 581 709 517 735 q 686 621 646 683 q 799 706 732 676 q 960 735 867 735 q 1210 642 1124 735 q 1297 363 1297 550 l 757 363 m 1126 438 q 1115 523 1126 483 q 1082 592 1104 563 q 1027 640 1060 622 q 951 657 994 657 q 823 606 876 657 q 760 438 769 554 l 1126 438 m 576 392 q 424 349 489 368 q 315 309 358 331 q 251 260 272 288 q 229 192 229 233 q 369 86 229 86 q 495 120 440 86 q 576 199 550 154 l 576 392 z "},"ç":{"ha":810,"x_min":60,"x_max":756,"o":"m 756 242 q 726 147 747 193 q 668 63 704 100 q 579 1 632 25 q 454 -24 526 -22 l 454 -58 q 504 -67 481 -58 q 547 -92 528 -76 q 576 -130 565 -108 q 588 -178 588 -151 q 552 -278 588 -244 q 458 -312 517 -312 q 385 -290 417 -312 q 343 -235 354 -267 l 371 -207 q 409 -243 389 -232 q 449 -254 429 -254 q 495 -234 478 -254 q 513 -178 513 -214 q 480 -120 513 -137 q 404 -97 447 -103 l 404 -22 q 265 6 328 -18 q 156 76 201 31 q 85 189 110 122 q 60 346 60 256 q 161 633 60 531 q 442 735 263 735 q 564 719 508 735 q 660 677 619 704 q 724 613 701 650 q 747 533 747 576 q 722 460 747 489 q 649 432 697 432 q 578 458 603 432 q 553 519 553 483 q 576 574 553 551 q 632 600 599 597 q 572 642 608 626 q 472 657 535 657 q 306 585 364 657 q 249 369 249 513 q 265 231 249 289 q 310 138 281 174 q 378 84 339 101 q 464 67 418 67 q 534 77 500 67 q 596 110 568 88 q 642 167 624 132 q 668 251 661 201 l 756 242 z "},"è":{"ha":839,"x_min":60,"x_max":789,"o":"m 247 364 q 300 144 250 221 q 451 67 350 67 q 592 106 531 67 q 676 232 653 144 l 763 215 q 726 126 750 169 q 663 50 701 83 q 569 -3 624 17 q 440 -24 514 -24 q 300 -6 368 -24 q 178 54 232 11 q 92 170 125 97 q 60 354 60 243 q 85 509 60 439 q 160 629 111 579 q 278 707 208 679 q 439 735 349 735 q 789 364 789 735 l 247 364 m 617 438 q 606 523 617 483 q 572 592 594 563 q 517 640 550 622 q 442 657 485 657 q 314 606 367 657 q 250 438 261 554 l 617 438 m 539 800 q 417 830 479 819 q 306 851 356 840 q 224 880 256 863 q 192 931 192 897 q 209 977 192 957 q 271 997 226 997 q 335 982 303 997 q 403 944 368 967 q 479 895 439 921 q 565 850 519 869 l 539 800 z "},"é":{"ha":839,"x_min":60,"x_max":789,"o":"m 247 364 q 300 144 250 221 q 451 67 350 67 q 592 106 531 67 q 676 232 653 144 l 763 215 q 726 126 750 169 q 663 50 701 83 q 569 -3 624 17 q 440 -24 514 -24 q 300 -6 368 -24 q 178 54 232 11 q 92 170 125 97 q 60 354 60 243 q 85 509 60 439 q 160 629 111 579 q 278 707 208 679 q 439 735 349 735 q 789 364 789 735 l 247 364 m 617 438 q 606 523 617 483 q 572 592 594 563 q 517 640 550 622 q 442 657 485 657 q 314 606 367 657 q 250 438 261 554 l 617 438 m 263 850 q 343 892 304 867 q 418 941 382 918 q 489 981 454 964 q 560 997 524 997 q 619 977 601 997 q 636 931 636 957 q 600 878 636 896 q 511 848 564 860 q 398 826 458 836 q 289 800 338 817 l 263 850 z "},"ê":{"ha":839,"x_min":60,"x_max":789,"o":"m 247 364 q 300 144 250 221 q 451 67 350 67 q 592 106 531 67 q 676 232 653 144 l 763 215 q 726 126 750 169 q 663 50 701 83 q 569 -3 624 17 q 440 -24 514 -24 q 300 -6 368 -24 q 178 54 232 11 q 92 170 125 97 q 60 354 60 243 q 85 509 60 439 q 160 629 111 579 q 278 707 208 679 q 439 735 349 735 q 789 364 789 735 l 247 364 m 617 438 q 606 523 617 483 q 572 592 594 563 q 517 640 550 622 q 442 657 485 657 q 314 606 367 657 q 250 438 261 554 l 617 438 m 574 794 l 410 868 l 240 794 l 183 836 l 410 997 l 635 835 l 574 794 z "},"ë":{"ha":839,"x_min":60,"x_max":789,"o":"m 247 364 q 300 144 250 221 q 451 67 350 67 q 592 106 531 67 q 676 232 653 144 l 763 215 q 726 126 750 169 q 663 50 701 83 q 569 -3 624 17 q 440 -24 514 -24 q 300 -6 368 -24 q 178 54 232 11 q 92 170 125 97 q 60 354 60 243 q 85 509 60 439 q 160 629 111 579 q 278 707 208 679 q 439 735 349 735 q 789 364 789 735 l 247 364 m 617 438 q 606 523 617 483 q 572 592 594 563 q 517 640 550 622 q 442 657 485 657 q 314 606 367 657 q 250 438 261 554 l 617 438 m 665 906 q 638 840 665 867 q 572 813 611 813 q 507 840 533 813 q 481 906 481 867 q 507 971 481 944 q 572 997 533 997 q 638 971 611 997 q 665 906 665 944 m 353 906 q 326 840 353 867 q 260 813 299 813 q 194 840 221 813 q 168 906 168 867 q 194 971 168 944 q 260 997 221 997 q 326 971 299 997 q 353 906 353 944 z "},"ì":{"ha":538,"x_min":22,"x_max":485,"o":"m 369 800 q 248 830 310 819 q 136 851 186 840 q 54 880 86 863 q 22 931 22 897 q 40 977 22 957 q 101 997 57 997 q 166 982 133 997 q 234 944 199 967 q 310 895 269 921 q 396 850 350 869 l 369 800 m 364 142 q 485 79 364 79 l 485 0 l 54 0 l 54 79 q 174 142 174 79 l 174 564 q 54 628 174 628 l 54 707 l 364 707 l 364 142 z "},"í":{"ha":538,"x_min":54,"x_max":485,"o":"m 90 850 q 171 892 132 867 q 246 941 210 918 q 317 981 282 964 q 388 997 351 997 q 447 977 429 997 q 464 931 464 957 q 428 878 464 896 q 339 848 392 860 q 226 826 286 836 q 117 800 165 817 l 90 850 m 364 142 q 485 79 364 79 l 485 0 l 54 0 l 54 79 q 174 142 174 79 l 174 564 q 54 628 174 628 l 54 707 l 364 707 l 364 142 z "},"î":{"ha":538,"x_min":32,"x_max":485,"o":"m 364 142 q 485 79 364 79 l 485 0 l 54 0 l 54 79 q 174 142 174 79 l 174 564 q 54 628 174 628 l 54 707 l 364 707 l 364 142 m 422 794 l 258 868 l 89 794 l 32 836 l 258 997 l 483 835 l 422 794 z "},"ï":{"ha":538,"x_min":7,"x_max":504,"o":"m 504 906 q 477 840 504 867 q 411 813 450 813 q 346 840 372 813 q 319 906 319 867 q 346 971 319 944 q 411 997 372 997 q 477 971 450 997 q 504 906 504 944 m 192 906 q 165 840 192 867 q 99 813 138 813 q 33 840 60 813 q 7 906 7 867 q 33 971 7 944 q 99 997 60 997 q 165 971 138 997 q 192 906 192 944 m 364 142 q 485 79 364 79 l 485 0 l 54 0 l 54 79 q 174 142 174 79 l 174 564 q 54 628 174 628 l 54 707 l 364 707 l 364 142 z "},"ð":{"ha":872,"x_min":60,"x_max":824,"o":"m 704 1013 l 592 915 q 762 664 700 801 q 824 375 824 526 q 723 72 824 168 q 433 -24 622 -24 q 290 -4 358 -24 q 172 56 222 15 q 90 158 121 96 q 60 307 60 221 q 411 669 60 669 q 586 642 503 669 q 548 750 571 704 q 496 838 525 796 l 372 732 l 329 789 l 454 896 q 332 992 399 957 l 367 1068 q 538 963 463 1031 l 661 1068 l 704 1013 m 447 590 q 296 530 343 590 q 249 349 249 469 q 261 208 249 263 q 298 122 274 154 q 356 78 322 90 q 435 67 390 67 q 589 128 544 67 q 633 315 633 190 q 626 428 633 378 q 597 515 618 479 q 540 571 576 551 q 447 590 504 590 z "},"ñ":{"ha":1071,"x_min":54,"x_max":1018,"o":"m 896 142 q 1018 79 896 79 l 1018 0 l 614 0 l 614 79 q 707 142 707 79 l 707 450 q 679 575 707 538 q 604 613 651 613 q 533 599 568 613 q 465 560 497 585 q 407 501 433 535 q 364 428 381 467 l 364 142 q 457 79 364 79 l 457 0 l 54 0 l 54 79 q 174 142 174 79 l 174 565 q 54 628 174 628 l 54 707 l 364 707 l 364 565 q 496 677 417 633 q 676 721 575 721 q 838 672 781 721 q 896 514 896 624 l 896 142 m 813 950 q 744 848 793 883 q 629 813 696 813 q 565 823 593 813 q 510 846 536 833 q 460 869 485 858 q 407 879 435 879 q 306 815 340 879 l 236 847 q 313 948 261 913 q 421 983 365 983 q 497 973 468 983 q 549 951 526 963 q 593 928 572 939 q 646 918 614 918 q 695 928 674 918 q 738 978 717 939 l 813 950 z "},"ò":{"ha":872,"x_min":60,"x_max":824,"o":"m 824 357 q 724 76 824 175 q 433 -24 624 -24 q 290 -6 358 -24 q 172 53 222 11 q 90 166 121 96 q 60 340 60 236 q 156 633 60 531 q 449 735 251 735 q 594 716 525 735 q 713 653 663 697 q 794 538 764 610 q 824 357 824 465 m 447 643 q 296 576 343 643 q 249 382 249 508 q 261 226 249 288 q 298 130 274 165 q 356 81 322 94 q 435 67 390 67 q 589 140 544 67 q 633 349 633 214 q 620 493 633 436 q 582 583 607 550 q 523 630 557 617 q 447 643 489 643 m 564 800 q 442 830 504 819 q 331 851 381 840 q 249 880 281 863 q 217 931 217 897 q 234 977 217 957 q 296 997 251 997 q 360 982 328 997 q 428 944 393 967 q 504 895 464 921 q 590 850 544 869 l 564 800 z "},"ó":{"ha":872,"x_min":60,"x_max":824,"o":"m 824 357 q 724 76 824 175 q 433 -24 624 -24 q 290 -6 358 -24 q 172 53 222 11 q 90 166 121 96 q 60 340 60 236 q 156 633 60 531 q 449 735 251 735 q 594 716 525 735 q 713 653 663 697 q 794 538 764 610 q 824 357 824 465 m 447 643 q 296 576 343 643 q 249 382 249 508 q 261 226 249 288 q 298 130 274 165 q 356 81 322 94 q 435 67 390 67 q 589 140 544 67 q 633 349 633 214 q 620 493 633 436 q 582 583 607 550 q 523 630 557 617 q 447 643 489 643 m 271 850 q 351 892 313 867 q 426 941 390 918 q 497 981 463 964 q 568 997 532 997 q 627 977 610 997 q 644 931 644 957 q 608 878 644 896 q 519 848 572 860 q 406 826 467 836 q 297 800 346 817 l 271 850 z "},"ô":{"ha":872,"x_min":60,"x_max":824,"o":"m 824 357 q 724 76 824 175 q 433 -24 624 -24 q 290 -6 358 -24 q 172 53 222 11 q 90 166 121 96 q 60 340 60 236 q 156 633 60 531 q 449 735 251 735 q 594 716 525 735 q 713 653 663 697 q 794 538 764 610 q 824 357 824 465 m 447 643 q 296 576 343 643 q 249 382 249 508 q 261 226 249 288 q 298 130 274 165 q 356 81 322 94 q 435 67 390 67 q 589 140 544 67 q 633 349 633 214 q 620 493 633 436 q 582 583 607 550 q 523 630 557 617 q 447 643 489 643 m 592 794 l 428 868 l 258 794 l 201 836 l 428 997 l 653 835 l 592 794 z "},"õ":{"ha":872,"x_min":60,"x_max":824,"o":"m 824 357 q 724 76 824 175 q 433 -24 624 -24 q 290 -6 358 -24 q 172 53 222 11 q 90 166 121 96 q 60 340 60 236 q 156 633 60 531 q 449 735 251 735 q 594 716 525 735 q 713 653 663 697 q 794 538 764 610 q 824 357 824 465 m 447 643 q 296 576 343 643 q 249 382 249 508 q 261 226 249 288 q 298 130 274 165 q 356 81 322 94 q 435 67 390 67 q 589 140 544 67 q 633 349 633 214 q 620 493 633 436 q 582 583 607 550 q 523 630 557 617 q 447 643 489 643 m 713 950 q 644 848 693 883 q 529 813 596 813 q 465 823 493 813 q 410 846 436 833 q 360 869 385 858 q 307 879 335 879 q 206 815 240 879 l 136 847 q 213 948 161 913 q 321 983 265 983 q 397 973 368 983 q 449 951 426 963 q 493 928 472 939 q 546 918 514 918 q 595 928 574 918 q 638 978 617 939 l 713 950 z "},"ö":{"ha":872,"x_min":60,"x_max":824,"o":"m 824 357 q 724 76 824 175 q 433 -24 624 -24 q 290 -6 358 -24 q 172 53 222 11 q 90 166 121 96 q 60 340 60 236 q 156 633 60 531 q 449 735 251 735 q 594 716 525 735 q 713 653 663 697 q 794 538 764 610 q 824 357 824 465 m 447 643 q 296 576 343 643 q 249 382 249 508 q 261 226 249 288 q 298 130 274 165 q 356 81 322 94 q 435 67 390 67 q 589 140 544 67 q 633 349 633 214 q 620 493 633 436 q 582 583 607 550 q 523 630 557 617 q 447 643 489 643 m 674 906 q 647 840 674 867 q 581 813 619 813 q 515 840 542 813 q 489 906 489 867 q 515 971 489 944 q 581 997 542 997 q 647 971 619 997 q 674 906 674 944 m 361 906 q 334 840 361 867 q 268 813 307 813 q 203 840 229 813 q 176 906 176 867 q 203 971 176 944 q 268 997 229 997 q 334 971 307 997 q 361 906 361 944 z "},"÷":{"ha":788,"x_min":51,"x_max":736,"o":"m 736 442 l 51 442 l 51 543 l 736 543 l 736 442 m 489 753 q 462 687 489 714 q 396 660 435 660 q 330 687 357 660 q 303 753 303 714 q 330 819 303 792 q 396 846 357 846 q 462 819 435 846 q 489 753 489 792 m 489 228 q 462 162 489 189 q 396 135 435 135 q 330 162 357 135 q 303 228 303 189 q 330 294 303 267 q 396 321 357 321 q 462 294 435 321 q 489 228 489 267 z "},"ø":{"ha":872,"x_min":60,"x_max":824,"o":"m 679 678 q 785 560 746 636 q 824 357 824 483 q 724 76 824 175 q 433 -24 624 -24 q 365 -20 399 -24 q 300 -8 331 -17 l 253 -93 l 167 -50 l 208 28 q 101 142 142 68 q 60 340 60 217 q 156 633 60 531 q 449 735 251 735 q 590 714 525 735 l 640 801 l 725 758 l 679 678 m 543 622 q 447 646 506 646 q 294 577 343 646 q 244 382 244 508 q 257 251 244 307 q 293 171 269 196 l 543 622 m 346 85 q 388 69 365 74 q 435 64 410 64 q 591 139 544 64 q 638 349 638 214 q 628 463 638 415 q 600 543 618 511 l 346 85 z "},"ù":{"ha":1028,"x_min":54,"x_max":974,"o":"m 864 142 q 974 79 864 79 l 974 0 l 675 0 l 675 142 q 628 83 656 111 q 566 33 601 54 q 487 -1 531 11 q 390 -14 443 -14 q 228 35 281 -14 q 175 193 175 83 l 175 565 q 54 628 175 628 l 54 707 l 360 707 l 360 254 q 384 130 360 167 q 463 93 408 93 q 586 144 529 93 q 675 276 643 196 l 675 564 q 646 612 675 596 q 554 628 617 628 l 554 707 l 864 707 l 864 142 m 632 800 q 510 830 572 819 q 399 851 449 840 q 317 880 349 863 q 285 931 285 897 q 302 977 285 957 q 364 997 319 997 q 428 982 396 997 q 497 944 461 967 q 572 895 532 921 q 658 850 613 869 l 632 800 z "},"ú":{"ha":1028,"x_min":54,"x_max":974,"o":"m 864 142 q 974 79 864 79 l 974 0 l 675 0 l 675 142 q 628 83 656 111 q 566 33 601 54 q 487 -1 531 11 q 390 -14 443 -14 q 228 35 281 -14 q 175 193 175 83 l 175 565 q 54 628 175 628 l 54 707 l 360 707 l 360 254 q 384 130 360 167 q 463 93 408 93 q 586 144 529 93 q 675 276 643 196 l 675 564 q 646 612 675 596 q 554 628 617 628 l 554 707 l 864 707 l 864 142 m 342 850 q 422 892 383 867 q 497 941 461 918 q 568 981 533 964 q 639 997 603 997 q 698 977 681 997 q 715 931 715 957 q 679 878 715 896 q 590 848 643 860 q 477 826 538 836 q 368 800 417 817 l 342 850 z "},"û":{"ha":1028,"x_min":54,"x_max":974,"o":"m 864 142 q 974 79 864 79 l 974 0 l 675 0 l 675 142 q 628 83 656 111 q 566 33 601 54 q 487 -1 531 11 q 390 -14 443 -14 q 228 35 281 -14 q 175 193 175 83 l 175 565 q 54 628 175 628 l 54 707 l 360 707 l 360 254 q 384 130 360 167 q 463 93 408 93 q 586 144 529 93 q 675 276 643 196 l 675 564 q 646 612 675 596 q 554 628 617 628 l 554 707 l 864 707 l 864 142 m 665 794 l 501 868 l 332 794 l 275 836 l 501 997 l 726 835 l 665 794 z "},"ü":{"ha":1028,"x_min":54,"x_max":974,"o":"m 864 142 q 974 79 864 79 l 974 0 l 675 0 l 675 142 q 628 83 656 111 q 566 33 601 54 q 487 -1 531 11 q 390 -14 443 -14 q 228 35 281 -14 q 175 193 175 83 l 175 565 q 54 628 175 628 l 54 707 l 360 707 l 360 254 q 384 130 360 167 q 463 93 408 93 q 586 144 529 93 q 675 276 643 196 l 675 564 q 646 612 675 596 q 554 628 617 628 l 554 707 l 864 707 l 864 142 m 746 906 q 719 840 746 867 q 653 813 692 813 q 588 840 614 813 q 561 906 561 867 q 588 971 561 944 q 653 997 614 997 q 719 971 692 997 q 746 906 746 944 m 433 906 q 406 840 433 867 q 340 813 379 813 q 275 840 301 813 q 249 906 249 867 q 275 971 249 944 q 340 997 301 997 q 406 971 379 997 q 433 906 433 944 z "},"ý":{"ha":943,"x_min":42,"x_max":896,"o":"m 896 628 q 822 616 846 628 q 789 581 799 604 l 536 -28 q 483 -152 507 -99 q 428 -242 458 -206 q 358 -298 399 -279 q 257 -317 318 -317 q 101 -269 161 -317 q 42 -140 42 -221 q 47 -108 42 -126 q 65 -75 53 -90 q 96 -49 78 -60 q 139 -39 114 -39 q 211 -62 188 -39 q 235 -118 235 -86 q 213 -174 235 -154 q 156 -199 192 -194 q 191 -233 168 -219 q 267 -246 214 -246 q 349 -206 317 -246 q 419 -81 381 -165 l 142 579 q 42 628 118 628 l 42 707 l 439 707 l 439 628 l 371 628 q 331 601 331 628 q 335 581 331 590 l 515 126 l 699 568 q 703 590 703 581 q 643 628 703 628 l 601 628 l 601 707 l 896 707 l 896 628 m 317 850 q 397 892 358 867 q 472 941 436 918 q 543 981 508 964 q 614 997 578 997 q 673 977 656 997 q 690 931 690 957 q 654 878 690 896 q 565 848 618 860 q 452 826 513 836 q 343 800 392 817 l 317 850 z "},"þ":{"ha":926,"x_min":3,"x_max":881,"o":"m 315 633 q 405 708 343 681 q 550 735 467 735 q 676 718 617 735 q 782 659 736 701 q 854 543 828 617 q 881 357 881 469 q 853 192 881 264 q 779 72 826 121 q 667 -1 732 24 q 525 -26 601 -26 q 402 -8 458 -26 q 314 43 346 10 l 314 -186 q 465 -249 314 -249 l 465 -328 l 3 -328 l 3 -249 q 124 -186 124 -249 l 124 928 q 3 990 124 990 l 3 1069 l 315 1069 l 315 633 m 496 640 q 345 568 392 640 q 299 378 299 496 q 308 253 299 311 q 340 154 318 196 q 399 89 363 113 q 492 65 436 65 q 591 92 551 65 q 653 160 631 118 q 684 253 675 201 q 693 358 693 306 q 683 472 693 421 q 649 561 672 524 q 588 619 625 599 q 496 640 550 640 z "},"ÿ":{"ha":943,"x_min":42,"x_max":896,"o":"m 896 628 q 822 616 846 628 q 789 581 799 604 l 536 -28 q 483 -152 507 -99 q 428 -242 458 -206 q 358 -298 399 -279 q 257 -317 318 -317 q 101 -269 161 -317 q 42 -140 42 -221 q 47 -108 42 -126 q 65 -75 53 -90 q 96 -49 78 -60 q 139 -39 114 -39 q 211 -62 188 -39 q 235 -118 235 -86 q 213 -174 235 -154 q 156 -199 192 -194 q 191 -233 168 -219 q 267 -246 214 -246 q 349 -206 317 -246 q 419 -81 381 -165 l 142 579 q 42 628 118 628 l 42 707 l 439 707 l 439 628 l 371 628 q 331 601 331 628 q 335 581 331 590 l 515 126 l 699 568 q 703 590 703 581 q 643 628 703 628 l 601 628 l 601 707 l 896 707 l 896 628 m 729 906 q 702 840 729 867 q 636 813 675 813 q 571 840 597 813 q 544 906 544 867 q 571 971 544 944 q 636 997 597 997 q 702 971 675 997 q 729 906 729 944 m 417 906 q 390 840 417 867 q 324 813 363 813 q 258 840 285 813 q 232 906 232 867 q 258 971 232 944 q 324 997 285 997 q 390 971 363 997 q 417 906 417 944 z "},"ı":{"ha":538,"x_min":54,"x_max":485,"o":"m 364 142 q 485 79 364 79 l 485 0 l 54 0 l 54 79 q 174 142 174 79 l 174 564 q 54 628 174 628 l 54 707 l 364 707 l 364 142 z "},"Ł":{"ha":1061,"x_min":51,"x_max":993,"o":"m 542 950 q 388 886 388 950 l 388 608 l 644 711 l 672 635 l 388 519 l 388 108 l 660 108 q 754 123 713 108 q 826 172 796 138 q 876 263 857 206 q 901 406 894 319 l 993 396 l 960 0 l 51 0 l 51 81 q 175 144 175 81 l 175 432 l 101 403 l 79 482 l 175 521 l 175 886 q 51 950 175 950 l 51 1032 l 542 1032 l 542 950 z "},"ł":{"ha":549,"x_min":31,"x_max":525,"o":"m 365 672 l 496 726 l 525 647 l 365 582 l 365 142 q 486 79 365 79 l 486 0 l 56 0 l 56 79 q 175 142 175 79 l 175 504 l 54 454 l 31 536 l 175 596 l 175 928 q 56 990 175 990 l 56 1069 l 365 1069 l 365 672 z "},"Œ":{"ha":1713,"x_min":51,"x_max":1649,"o":"m 1615 718 l 1518 713 q 1339 922 1501 922 l 1038 922 l 1038 588 l 1186 588 q 1283 756 1271 588 l 1371 756 l 1350 322 l 1265 322 q 1176 494 1251 494 l 1038 494 l 1038 108 l 1289 108 q 1549 406 1524 108 l 1649 396 l 1615 0 l 883 0 q 811 -3 846 0 q 740 -11 776 -7 q 660 -19 703 -15 q 567 -22 618 -22 q 363 4 457 -22 q 199 92 268 31 q 91 251 131 153 q 51 494 51 350 q 82 727 51 624 q 178 903 113 831 q 344 1015 243 976 q 588 1054 446 1054 q 669 1051 632 1054 q 742 1043 707 1047 q 811 1035 776 1039 q 883 1032 846 1032 l 1615 1032 l 1615 718 m 594 939 q 446 913 508 939 q 344 839 383 888 q 285 719 304 790 q 267 558 267 649 q 288 328 267 418 q 347 187 308 239 q 440 115 385 135 q 567 94 496 94 q 709 108 654 94 q 794 165 764 122 q 835 290 824 208 q 846 507 846 371 q 835 734 846 649 q 797 865 825 819 q 720 924 769 910 q 594 939 671 939 z "},"œ":{"ha":1414,"x_min":60,"x_max":1360,"o":"m 819 364 q 871 144 821 221 q 1022 67 921 67 q 1163 106 1101 67 q 1247 232 1224 144 l 1333 215 q 1297 126 1321 169 q 1233 50 1272 83 q 1140 -3 1194 17 q 1013 -24 1085 -24 q 851 1 928 -24 q 724 94 774 26 q 606 6 679 36 q 433 -24 533 -24 q 290 -6 358 -24 q 172 53 222 11 q 90 166 121 96 q 60 340 60 236 q 156 633 60 531 q 449 735 251 735 q 611 708 538 735 q 732 617 685 681 q 846 703 776 672 q 1011 735 915 735 q 1360 364 1360 735 l 819 364 m 447 643 q 296 576 343 643 q 249 382 249 508 q 261 226 249 288 q 298 130 274 165 q 356 81 322 94 q 435 67 390 67 q 589 140 544 67 q 633 349 633 214 q 620 493 633 436 q 582 583 607 550 q 523 630 557 617 q 447 643 489 643 m 1189 438 q 1178 523 1189 483 q 1144 592 1167 563 q 1089 640 1122 622 q 1013 657 1056 657 q 885 606 938 657 q 821 438 832 554 l 1189 438 z "},"Š":{"ha":985,"x_min":67,"x_max":949,"o":"m 897 671 l 804 658 q 767 783 796 731 q 693 871 738 836 q 590 922 649 906 q 464 939 532 939 q 298 904 361 939 q 235 792 235 869 q 265 717 235 744 q 346 673 296 690 q 460 644 396 656 q 592 620 525 633 q 723 587 658 607 q 838 531 788 567 q 918 441 888 496 q 949 303 949 386 q 920 158 949 219 q 839 57 892 97 q 713 -3 786 17 q 549 -22 639 -22 q 390 -2 457 -22 q 269 53 322 18 q 222 69 244 69 q 192 49 213 69 q 160 0 171 29 l 67 0 l 67 381 l 158 389 q 193 268 164 322 q 270 176 222 214 q 385 116 318 138 q 532 94 451 94 q 713 141 650 94 q 775 288 775 188 q 756 342 775 319 q 703 378 736 364 q 626 403 669 393 q 535 420 583 413 q 437 436 486 428 q 342 457 388 444 q 229 498 279 474 q 145 558 179 522 q 92 646 111 594 q 74 768 74 697 q 92 874 74 822 q 152 965 110 925 q 263 1030 194 1006 q 431 1054 331 1054 q 588 1036 524 1054 q 700 990 651 1018 q 751 974 729 974 q 788 992 767 974 q 822 1032 810 1010 l 897 1032 l 897 671 m 489 1140 l 265 1303 l 326 1343 l 489 1267 l 658 1343 l 715 1301 l 489 1140 z "},"š":{"ha":758,"x_min":54,"x_max":703,"o":"m 668 453 l 586 443 q 505 588 571 540 q 339 635 439 635 q 244 612 281 635 q 208 550 208 589 q 245 484 208 506 q 337 449 282 463 q 456 423 392 435 q 574 388 519 411 q 666 322 629 364 q 703 206 703 279 q 683 113 703 153 q 628 45 664 72 q 544 5 593 18 q 438 -8 496 -8 q 300 6 354 -8 q 208 46 246 19 q 188 57 199 51 q 168 63 178 63 q 153 47 165 63 q 135 0 140 31 l 54 0 l 54 267 l 135 275 q 167 190 142 228 q 231 127 193 153 q 317 88 269 101 q 415 74 365 74 q 516 101 482 74 q 550 168 550 128 q 513 233 550 211 q 422 268 476 254 q 303 294 367 282 q 184 331 239 307 q 92 399 129 356 q 56 517 56 442 q 122 667 56 613 q 311 721 189 721 q 429 703 375 721 q 517 665 483 685 q 538 653 528 658 q 557 649 547 649 q 572 664 561 649 q 590 707 583 679 l 668 707 l 668 453 m 367 794 l 143 957 l 204 997 l 367 921 l 536 997 l 593 956 l 367 794 z "},"Ÿ":{"ha":1143,"x_min":39,"x_max":1099,"o":"m 1099 949 q 1022 938 1050 949 q 982 910 993 928 l 667 446 l 667 144 q 806 81 667 81 l 806 0 l 315 0 l 315 81 q 454 144 454 81 l 454 446 l 149 908 q 106 941 133 932 q 39 950 78 950 l 39 1032 l 549 1032 l 549 950 l 439 950 q 397 922 397 950 q 404 903 397 914 l 629 546 l 857 897 q 863 917 863 907 q 806 950 863 950 l 739 950 l 739 1032 l 1099 1032 l 1099 949 m 838 1251 q 810 1185 838 1213 q 744 1158 783 1158 q 679 1185 706 1158 q 653 1251 653 1213 q 679 1317 653 1290 q 744 1343 706 1343 q 810 1317 783 1343 q 838 1251 838 1290 m 525 1251 q 498 1185 525 1213 q 432 1158 471 1158 q 367 1185 393 1158 q 340 1251 340 1213 q 367 1317 340 1290 q 432 1343 393 1343 q 498 1317 471 1343 q 525 1251 525 1290 z "},"Ž":{"ha":1011,"x_min":39,"x_max":953,"o":"m 932 918 l 293 108 l 603 108 q 782 183 721 108 q 860 425 843 258 l 953 415 l 918 0 l 39 0 l 39 114 l 694 922 l 369 922 q 282 904 318 922 q 222 847 246 886 q 184 748 199 808 q 161 603 169 688 l 74 607 l 74 1032 l 932 1032 l 932 918 m 503 1140 l 279 1303 l 340 1343 l 503 1267 l 672 1343 l 729 1301 l 503 1140 z "},"ž":{"ha":824,"x_min":54,"x_max":772,"o":"m 764 629 l 290 85 l 493 85 q 582 94 547 85 q 638 126 617 103 q 670 189 658 149 q 690 292 682 229 l 772 283 l 763 0 l 54 0 l 54 78 l 538 621 l 339 621 q 263 613 293 621 q 212 584 232 606 q 180 524 192 563 q 158 425 168 486 l 81 432 l 81 707 l 764 707 l 764 629 m 401 794 l 178 957 l 239 997 l 401 921 l 571 997 l 628 956 l 401 794 z "},"ˆ":{"ha":551,"x_min":50,"x_max":501,"o":"m 440 794 l 276 868 l 107 794 l 50 836 l 276 997 l 501 835 l 440 794 z "},"ˇ":{"ha":551,"x_min":50,"x_max":500,"o":"m 274 794 l 50 957 l 111 997 l 274 921 l 443 997 l 500 956 l 274 794 z "},"˚":{"ha":449,"x_min":82,"x_max":367,"o":"m 222 940 q 160 915 183 940 q 138 853 138 889 q 160 786 138 810 q 222 763 183 763 q 281 786 257 763 q 306 853 306 810 q 281 915 306 889 q 222 940 257 940 m 367 853 q 356 797 367 824 q 324 750 344 769 q 278 719 304 731 q 222 707 251 707 q 167 719 193 707 q 123 750 142 731 q 93 797 104 769 q 82 853 82 824 q 93 908 82 882 q 123 955 104 935 q 167 986 142 975 q 222 997 193 997 q 278 986 251 997 q 324 955 304 975 q 356 908 344 935 q 367 853 367 882 z "},"˜":{"ha":678,"x_min":51,"x_max":628,"o":"m 628 950 q 560 848 608 883 q 444 813 511 813 q 380 823 408 813 q 326 846 351 833 q 275 869 300 858 q 222 879 250 879 q 121 815 156 879 l 51 847 q 128 948 76 913 q 236 983 181 983 q 313 973 283 983 q 365 951 342 963 q 408 928 388 939 q 461 918 429 918 q 510 928 489 918 q 553 978 532 939 l 628 950 z "},"–":{"ha":826,"x_min":38,"x_max":788,"o":"m 788 343 l 38 343 l 38 451 l 788 451 l 788 343 z "},"—":{"ha":1397,"x_min":38,"x_max":1358,"o":"m 1358 343 l 38 343 l 38 451 l 1358 451 l 1358 343 z "},"‘":{"ha":349,"x_min":51,"x_max":289,"o":"m 286 1036 q 224 997 247 1015 q 189 960 201 978 q 173 928 176 943 q 169 899 169 913 q 192 874 169 874 q 289 782 289 874 q 260 703 289 731 q 179 675 231 675 q 84 712 117 675 q 51 819 51 749 q 103 977 51 914 q 254 1089 156 1040 l 286 1036 z "},"’":{"ha":349,"x_min":60,"x_max":299,"o":"m 63 714 q 124 753 101 735 q 159 790 147 772 q 174 822 171 807 q 178 851 178 838 q 157 876 178 876 q 60 968 60 876 q 89 1047 60 1019 q 168 1075 118 1075 q 265 1038 231 1075 q 299 931 299 1001 q 245 773 299 836 q 94 661 192 710 l 63 714 z "},"‚":{"ha":349,"x_min":60,"x_max":299,"o":"m 63 -162 q 124 -122 101 -142 q 159 -85 147 -103 q 174 -53 171 -68 q 178 -24 178 -37 q 157 1 178 1 q 60 93 60 1 q 89 172 60 144 q 168 199 118 199 q 265 163 231 199 q 299 56 299 126 q 247 -103 299 -40 q 94 -214 194 -165 l 63 -162 z "},"“":{"ha":669,"x_min":51,"x_max":610,"o":"m 607 1036 q 545 997 568 1015 q 510 960 522 978 q 494 928 497 943 q 490 899 490 913 q 513 874 490 874 q 610 782 610 874 q 581 703 610 731 q 500 675 551 675 q 404 712 438 675 q 371 819 371 749 q 424 977 371 914 q 575 1089 476 1040 l 607 1036 m 286 1036 q 224 997 247 1015 q 189 960 201 978 q 173 928 176 943 q 169 899 169 913 q 192 874 169 874 q 289 782 289 874 q 260 703 289 731 q 179 675 231 675 q 84 712 117 675 q 51 819 51 749 q 103 977 51 914 q 254 1089 156 1040 l 286 1036 z "},"”":{"ha":669,"x_min":60,"x_max":619,"o":"m 63 714 q 124 753 101 735 q 159 790 147 772 q 174 822 171 807 q 178 851 178 838 q 157 876 178 876 q 60 968 60 876 q 89 1047 60 1019 q 168 1075 118 1075 q 265 1038 231 1075 q 299 931 299 1001 q 245 773 299 836 q 94 661 192 710 l 63 714 m 383 714 q 444 754 421 735 q 479 790 467 774 q 495 822 492 807 q 499 851 499 838 q 478 876 499 876 q 379 968 379 876 q 409 1047 379 1019 q 489 1075 439 1075 q 585 1038 551 1075 q 619 931 619 1001 q 566 773 619 836 q 415 661 513 710 l 383 714 z "},"„":{"ha":790,"x_min":119,"x_max":679,"o":"m 122 -162 q 184 -122 161 -142 q 219 -85 207 -103 q 234 -53 231 -68 q 238 -24 238 -37 q 217 1 238 1 q 119 93 119 1 q 149 172 119 144 q 229 199 178 199 q 325 163 292 199 q 358 56 358 126 q 306 -103 358 -40 q 154 -214 254 -165 l 122 -162 m 443 -162 q 503 -122 481 -142 q 539 -85 526 -103 q 555 -53 551 -68 q 558 -24 558 -37 q 538 1 558 1 q 440 93 440 1 q 469 172 440 144 q 550 199 499 199 q 646 163 613 199 q 679 56 679 126 q 627 -103 679 -40 q 475 -214 575 -165 l 443 -162 z "},"†":{"ha":722,"x_min":51,"x_max":672,"o":"m 346 33 q 325 144 335 76 q 308 295 315 211 q 297 479 301 379 q 292 690 293 579 q 253 694 274 693 q 214 694 233 694 q 83 664 108 694 q 60 689 69 672 q 51 719 51 706 q 72 765 51 751 q 119 779 93 779 q 203 769 161 779 q 289 757 244 760 q 283 810 285 778 q 282 879 282 843 q 285 951 282 924 q 296 995 288 979 q 319 1017 304 1011 q 361 1022 335 1022 q 401 1017 386 1022 q 426 995 417 1011 q 438 951 435 979 q 440 879 440 924 q 438 808 440 839 q 433 757 436 776 q 486 762 463 758 q 529 769 510 765 q 566 776 549 774 q 603 779 583 779 q 650 765 628 779 q 672 719 672 751 q 663 689 672 706 q 638 664 653 672 q 508 694 613 694 q 431 690 468 694 q 424 478 429 578 q 413 294 419 378 q 396 143 406 210 q 375 33 386 76 l 346 33 z "},"‡":{"ha":713,"x_min":51,"x_max":663,"o":"m 424 757 q 508 769 467 760 q 593 779 549 779 q 640 766 618 779 q 663 722 663 753 q 653 690 663 708 q 628 664 643 672 q 499 694 603 694 q 421 690 458 694 q 419 653 421 672 q 415 613 418 635 q 407 565 411 592 q 399 501 403 538 q 414 387 407 426 q 421 314 421 347 q 460 308 440 310 q 499 307 479 307 q 628 338 601 307 q 653 311 643 329 q 663 281 663 293 q 640 235 663 249 q 593 222 618 222 q 510 235 553 222 q 424 251 468 249 q 428 192 426 229 q 431 118 431 154 q 428 47 431 74 q 419 5 426 19 q 397 -15 411 -10 q 357 -19 382 -19 q 316 -15 331 -19 q 294 5 301 -10 q 284 47 286 19 q 282 118 282 74 q 283 194 282 158 q 289 251 285 231 q 206 235 247 249 q 119 222 164 222 q 72 235 93 222 q 51 281 51 249 q 60 311 51 293 q 83 338 69 329 q 214 307 110 307 q 292 314 253 307 q 301 406 292 361 q 315 501 310 450 q 302 593 310 549 q 292 690 294 638 q 253 694 274 693 q 214 694 233 694 q 83 664 108 694 q 60 690 69 672 q 51 722 51 708 q 72 766 51 753 q 119 779 93 779 q 203 769 161 779 q 289 757 244 760 q 283 810 285 778 q 282 879 282 843 q 284 951 282 924 q 294 995 286 979 q 316 1017 301 1011 q 357 1022 331 1022 q 397 1017 382 1022 q 419 995 411 1011 q 428 951 426 979 q 431 879 431 924 q 428 808 431 839 q 424 757 426 776 z "},"•":{"ha":571,"x_min":51,"x_max":521,"o":"m 521 504 q 503 416 521 456 q 456 348 486 376 q 383 304 425 319 q 289 289 340 289 q 116 348 181 289 q 51 504 51 407 q 68 591 51 551 q 116 659 85 631 q 191 703 147 688 q 289 719 235 719 q 383 703 340 719 q 456 659 425 688 q 503 591 486 631 q 521 504 521 551 z "},"…":{"ha":1528,"x_min":117,"x_max":1408,"o":"m 336 99 q 304 21 336 53 q 226 -11 272 -11 q 149 21 181 -11 q 117 99 117 53 q 149 176 117 143 q 226 208 181 208 q 304 176 272 208 q 336 99 336 143 m 871 99 q 839 21 871 53 q 763 -11 807 -11 q 684 21 717 -11 q 651 99 651 53 q 684 176 651 143 q 763 208 717 208 q 839 176 807 208 q 871 99 871 143 m 1408 99 q 1376 21 1408 53 q 1299 -11 1343 -11 q 1221 21 1253 -11 q 1189 99 1189 53 q 1221 176 1189 143 q 1299 208 1253 208 q 1376 176 1343 208 q 1408 99 1408 143 z "},"‰":{"ha":1328,"x_min":85,"x_max":1249,"o":"m 293 0 l 196 0 l 679 947 l 782 947 l 293 0 m 260 947 q 329 935 297 947 q 383 897 361 924 q 418 826 406 869 q 431 719 431 782 q 388 552 431 615 q 253 489 346 489 q 185 500 215 489 q 132 538 154 511 q 97 606 110 564 q 85 708 85 647 q 124 882 85 817 q 260 947 164 947 m 261 889 q 197 849 213 889 q 181 735 181 810 q 184 643 181 679 q 196 585 188 607 q 218 556 204 564 q 253 547 232 547 q 318 591 304 547 q 332 714 332 635 q 328 799 332 765 q 317 853 325 833 q 295 881 308 874 q 261 889 282 889 m 686 458 q 756 447 724 458 q 810 408 788 435 q 844 337 832 381 q 857 231 857 293 q 815 63 857 126 q 679 0 772 0 q 611 11 642 0 q 558 49 581 22 q 522 117 535 75 q 510 219 510 158 q 549 393 510 328 q 686 458 589 458 m 688 400 q 622 360 638 400 q 606 246 606 321 q 609 154 606 190 q 622 97 613 118 q 644 67 631 75 q 679 58 658 58 q 744 102 731 58 q 758 225 758 146 q 755 310 758 276 q 743 365 751 344 q 721 392 735 385 q 688 400 707 400 m 1078 458 q 1147 447 1115 458 q 1201 408 1179 435 q 1236 337 1224 381 q 1249 231 1249 293 q 1207 63 1249 126 q 1071 0 1165 0 q 1003 11 1033 0 q 949 49 972 22 q 914 117 926 75 q 901 219 901 158 q 941 393 901 328 q 1078 458 981 458 m 1079 400 q 1015 360 1031 400 q 999 246 999 321 q 1002 154 999 190 q 1014 97 1006 118 q 1036 67 1022 75 q 1071 58 1050 58 q 1137 102 1122 58 q 1151 225 1151 146 q 1147 310 1151 276 q 1135 365 1143 344 q 1113 392 1126 385 q 1079 400 1099 400 z "},"‹":{"ha":439,"x_min":38,"x_max":401,"o":"m 401 610 l 235 400 l 401 185 l 340 119 l 38 400 l 340 678 l 401 610 z "},"›":{"ha":439,"x_min":38,"x_max":400,"o":"m 97 118 l 38 188 l 200 399 l 38 611 l 97 678 l 400 399 l 97 118 z "},"⁄":{"ha":431,"x_min":-225,"x_max":635,"o":"m -137 0 l -225 0 l 542 1035 l 635 1035 l -137 0 z "},"€":{"ha":1057,"x_min":56,"x_max":950,"o":"m 676 501 l 328 501 q 326 474 326 486 q 326 450 326 461 q 326 430 326 439 q 328 410 326 421 l 631 410 l 597 340 l 336 340 q 366 239 346 286 q 418 157 386 192 q 494 102 450 122 q 594 82 538 82 q 772 127 710 82 q 864 247 835 172 l 950 221 q 903 125 931 169 q 834 48 876 81 q 731 -3 792 15 q 585 -22 671 -22 q 422 2 497 -22 q 290 72 347 26 q 195 185 233 118 q 140 340 157 253 l 56 340 l 72 410 l 132 410 q 131 431 131 421 q 131 453 131 442 q 131 477 131 465 q 132 501 131 489 l 56 501 l 72 569 l 140 569 q 194 722 156 653 q 292 842 232 792 q 433 919 351 892 q 615 947 514 947 q 749 928 688 947 q 855 877 811 908 q 924 806 899 846 q 949 722 949 765 q 921 647 949 674 q 851 621 893 621 q 781 646 807 621 q 754 707 754 671 q 772 760 754 739 q 814 785 789 782 q 741 842 793 821 q 617 864 689 864 q 503 840 551 864 q 422 774 456 815 q 367 680 388 733 q 336 569 346 626 l 710 569 l 676 501 z "},"℗":{"ha":1282,"x_min":83,"x_max":1210,"o":"m 1210 511 q 1169 305 1210 401 q 1053 135 1128 208 q 876 20 979 63 q 650 -22 774 -22 q 417 20 521 -22 q 238 135 313 63 q 124 305 164 208 q 83 511 83 401 q 128 726 83 626 q 249 898 172 825 q 430 1013 326 971 q 650 1054 533 1054 q 869 1013 767 1054 q 1047 900 971 972 q 1166 728 1122 828 q 1210 511 1210 629 m 1114 511 q 1075 703 1114 618 q 972 847 1036 788 q 824 937 907 906 q 651 968 740 968 q 460 933 547 968 q 312 836 374 897 q 215 691 250 775 q 181 511 181 607 q 221 320 181 404 q 327 178 261 236 q 478 89 393 119 q 651 58 563 58 q 853 99 767 58 q 998 206 940 140 q 1085 351 1056 271 q 1114 511 1114 432 m 671 808 q 775 802 728 808 q 856 776 822 796 q 908 720 889 756 q 926 626 926 685 q 908 529 926 567 q 856 471 889 492 q 775 442 822 450 q 671 435 728 435 l 599 435 l 599 308 q 699 267 599 267 l 699 217 l 386 217 l 386 267 q 465 308 465 267 l 465 717 q 386 758 465 758 l 386 808 l 671 808 m 599 736 l 599 507 l 657 507 q 763 533 732 507 q 794 626 794 560 q 763 710 794 685 q 657 736 732 736 l 599 736 z "},"™":{"ha":1279,"x_min":71,"x_max":1211,"o":"m 524 847 l 476 844 q 399 972 465 972 l 353 972 l 353 663 q 403 640 353 640 l 403 593 l 194 593 l 194 640 q 244 663 244 640 l 244 972 l 197 972 q 142 942 160 972 q 119 844 125 911 l 71 847 l 71 1032 l 524 1032 l 524 847 m 1211 983 q 1160 961 1160 983 l 1160 663 q 1211 640 1160 640 l 1211 593 l 1003 593 l 1003 640 q 1053 663 1053 640 l 1053 929 l 929 593 l 836 593 l 713 929 l 713 663 q 764 640 713 640 l 764 593 l 597 593 l 597 640 q 649 663 649 640 l 649 961 q 597 983 649 983 l 597 1032 l 792 1032 l 913 710 l 1033 1032 l 1211 1032 l 1211 983 z "},"⅓":{"ha":1300,"x_min":96,"x_max":1186,"o":"m 308 0 l 221 0 l 988 1035 l 1081 1035 l 308 0 m 311 1044 q 307 1010 308 1025 q 306 979 306 994 l 306 615 q 382 590 306 590 l 382 540 l 107 540 l 107 590 q 197 615 197 590 l 197 919 l 99 919 l 96 968 q 240 1056 200 969 l 311 1044 m 967 -11 q 888 1 922 -11 q 831 31 854 13 q 794 72 807 50 q 782 115 782 94 q 797 160 782 143 q 839 178 811 178 q 882 161 867 178 q 897 118 897 144 q 868 75 897 83 q 909 52 882 60 q 968 44 936 44 q 1074 138 1074 44 q 1039 219 1074 193 q 929 250 1004 244 l 936 296 q 1020 318 985 299 q 1056 382 1056 338 q 1035 433 1056 414 q 965 453 1014 453 q 918 446 940 453 q 881 422 896 439 q 918 374 918 414 q 903 332 918 349 q 860 315 888 315 q 818 332 833 315 q 803 376 803 349 q 813 421 803 397 q 843 465 822 444 q 898 498 864 485 q 982 511 932 511 q 1053 503 1019 511 q 1113 480 1088 496 q 1152 440 1138 464 q 1167 383 1167 417 q 1069 275 1167 301 q 1186 147 1186 246 q 1169 76 1186 106 q 1124 26 1153 46 q 1054 -2 1094 7 q 967 -11 1014 -11 z "},"⅔":{"ha":1300,"x_min":68,"x_max":1186,"o":"m 308 0 l 221 0 l 988 1035 l 1081 1035 l 308 0 m 967 -11 q 888 1 922 -11 q 831 31 854 13 q 794 72 807 50 q 782 115 782 94 q 797 160 782 143 q 839 178 811 178 q 882 161 867 178 q 897 118 897 144 q 868 75 897 83 q 909 52 882 60 q 968 44 936 44 q 1074 138 1074 44 q 1039 219 1074 193 q 929 250 1004 244 l 936 296 q 1020 318 985 299 q 1056 382 1056 338 q 1035 433 1056 414 q 965 453 1014 453 q 918 446 940 453 q 881 422 896 439 q 918 374 918 414 q 903 332 918 349 q 860 315 888 315 q 818 332 833 315 q 803 376 803 349 q 813 421 803 397 q 843 465 822 444 q 898 498 864 485 q 982 511 932 511 q 1053 503 1019 511 q 1113 480 1088 496 q 1152 440 1138 464 q 1167 383 1167 417 q 1069 275 1167 301 q 1186 147 1186 246 q 1169 76 1186 106 q 1124 26 1153 46 q 1054 -2 1094 7 q 967 -11 1014 -11 m 261 1051 q 336 1043 300 1051 q 399 1015 372 1035 q 443 965 426 996 q 460 890 460 935 q 443 818 460 847 q 399 768 426 789 q 340 733 372 747 q 275 705 307 718 q 215 677 243 692 q 171 642 188 663 q 206 656 188 653 q 244 660 225 660 q 287 654 268 660 q 322 642 306 649 q 353 629 338 635 q 385 624 368 624 q 410 631 396 624 q 431 681 424 639 l 472 681 q 475 668 475 674 q 475 657 475 663 q 472 610 475 632 q 458 570 468 588 q 431 542 449 553 q 383 532 413 532 q 326 540 349 532 q 285 558 304 549 q 243 575 265 567 q 186 583 221 583 q 142 572 158 583 q 111 540 125 561 l 68 540 q 106 644 81 604 q 163 712 132 685 q 226 758 193 739 q 286 796 260 776 q 330 840 313 815 q 347 906 347 865 q 323 968 347 942 q 253 994 299 994 q 199 985 218 994 q 169 961 181 975 q 201 913 201 954 q 187 871 201 888 q 144 854 172 854 q 102 871 117 854 q 88 915 88 888 q 97 960 88 936 q 128 1004 107 983 q 181 1038 149 1025 q 261 1051 214 1051 z "},"⅛":{"ha":1300,"x_min":133,"x_max":1206,"o":"m 310 0 l 221 0 l 988 1035 l 1082 1035 l 310 0 m 1088 279 q 1174 224 1142 261 q 1206 133 1206 188 q 1190 65 1206 93 q 1145 18 1174 36 q 1078 -9 1117 0 q 996 -18 1040 -18 q 844 17 904 -18 q 783 126 783 53 q 811 208 783 172 q 894 258 839 243 q 831 306 858 276 q 804 379 804 336 q 819 440 804 414 q 859 481 833 465 q 919 503 885 496 q 994 511 954 511 q 1129 481 1075 511 q 1183 386 1183 450 q 1158 324 1183 353 q 1088 279 1132 294 m 939 233 q 888 195 903 219 q 874 131 874 171 q 900 63 874 89 q 985 38 926 38 q 1096 117 1096 38 q 1081 162 1096 144 q 1042 192 1065 179 q 992 213 1019 204 q 939 233 964 222 m 1032 303 q 1079 333 1064 315 q 1094 386 1094 350 q 1074 438 1094 415 q 1003 460 1054 460 q 914 392 914 460 q 950 338 914 358 q 1032 303 986 318 m 349 1044 q 344 1010 346 1025 q 343 979 343 994 l 343 615 q 419 592 343 592 l 419 542 l 144 542 l 144 592 q 235 615 235 592 l 235 921 l 136 921 l 133 969 q 278 1056 238 971 l 349 1044 z "},"⅜":{"ha":1300,"x_min":79,"x_max":1204,"o":"m 308 0 l 221 0 l 988 1035 l 1081 1035 l 308 0 m 1088 279 q 1172 224 1140 261 q 1204 133 1204 186 q 1188 65 1204 93 q 1144 18 1172 36 q 1078 -9 1117 0 q 994 -18 1040 -18 q 843 17 903 -18 q 783 126 783 53 q 811 206 783 171 q 893 257 839 242 q 831 306 857 276 q 804 379 804 335 q 858 480 804 449 q 993 511 911 511 q 1128 481 1074 511 q 1182 385 1182 450 q 1157 324 1182 353 q 1088 279 1132 294 m 939 232 q 888 194 903 218 q 872 131 872 169 q 899 63 872 89 q 985 36 926 36 q 1096 115 1096 36 q 1081 160 1096 143 q 1042 190 1065 178 q 990 211 1018 201 q 939 232 963 221 m 1031 303 q 1078 332 1063 314 q 1094 386 1094 350 q 1074 436 1094 414 q 1003 458 1053 458 q 936 441 960 458 q 913 392 913 424 q 949 338 913 358 q 1031 303 985 318 m 263 528 q 184 540 218 528 q 126 572 150 553 q 91 613 103 590 q 79 656 79 635 q 94 701 79 685 q 136 718 108 718 q 178 702 163 718 q 193 658 193 686 q 185 632 193 644 q 164 617 178 619 q 205 594 178 601 q 264 586 232 586 q 369 679 369 586 q 335 760 369 735 q 226 790 301 785 l 233 836 q 317 859 282 839 q 351 922 351 879 q 331 974 351 954 q 261 994 310 994 q 215 988 236 994 q 178 963 193 981 q 214 915 214 956 q 199 873 214 890 q 156 856 183 856 q 114 873 129 856 q 99 918 99 890 q 108 963 99 939 q 139 1006 118 986 q 194 1038 160 1025 q 278 1051 228 1051 q 349 1044 315 1051 q 408 1021 383 1036 q 448 981 433 1006 q 463 924 463 957 q 365 815 463 842 q 482 688 482 786 q 465 616 482 646 q 419 566 449 586 q 350 537 390 546 q 263 528 310 528 z "},"⅝":{"ha":1300,"x_min":72,"x_max":1206,"o":"m 310 0 l 221 0 l 988 1035 l 1082 1035 l 310 0 m 468 1032 q 392 974 440 994 q 294 954 343 954 q 241 958 274 954 q 181 975 208 961 l 169 864 q 231 888 197 881 q 300 894 264 894 q 394 879 356 894 q 454 839 432 864 q 486 783 476 814 q 496 719 496 751 q 478 631 496 667 q 428 572 460 594 q 353 538 396 549 q 264 528 311 528 q 189 539 224 528 q 128 568 154 550 q 87 610 101 586 q 72 663 72 635 q 86 707 72 690 q 128 724 100 724 q 171 707 156 724 q 186 667 186 690 q 174 635 186 647 q 149 619 163 622 q 249 579 164 579 q 339 615 311 579 q 367 721 367 650 q 342 807 367 774 q 264 840 317 840 q 197 831 228 840 q 139 807 167 822 l 103 835 l 124 1054 q 217 1045 163 1047 q 314 1043 271 1043 q 392 1047 350 1043 q 468 1060 435 1051 l 468 1032 m 1088 279 q 1174 224 1142 261 q 1206 133 1206 188 q 1190 65 1206 93 q 1145 18 1174 36 q 1078 -9 1117 0 q 996 -18 1040 -18 q 844 17 904 -18 q 783 126 783 53 q 811 208 783 172 q 894 258 839 243 q 831 306 858 276 q 804 379 804 336 q 819 440 804 414 q 859 481 833 465 q 919 503 885 496 q 994 511 954 511 q 1129 481 1075 511 q 1183 386 1183 450 q 1158 324 1183 353 q 1088 279 1132 294 m 939 233 q 888 195 903 219 q 874 131 874 171 q 900 63 874 89 q 985 38 926 38 q 1096 117 1096 38 q 1081 162 1096 144 q 1042 192 1065 179 q 992 213 1019 204 q 939 233 964 222 m 1032 303 q 1079 333 1064 315 q 1094 386 1094 350 q 1074 438 1094 415 q 1003 460 1054 460 q 914 392 914 460 q 950 338 914 358 q 1032 303 986 318 z "},"⅞":{"ha":1300,"x_min":90,"x_max":1204,"o":"m 308 0 l 221 0 l 988 1035 l 1081 1035 l 308 0 m 1088 279 q 1172 224 1140 261 q 1204 133 1204 186 q 1188 65 1204 93 q 1144 18 1172 36 q 1078 -9 1117 0 q 994 -18 1040 -18 q 843 17 903 -18 q 783 126 783 53 q 811 206 783 171 q 893 257 839 242 q 831 306 857 276 q 804 379 804 335 q 858 480 804 449 q 993 511 911 511 q 1128 481 1074 511 q 1182 385 1182 450 q 1157 324 1182 353 q 1088 279 1132 294 m 939 232 q 888 194 903 218 q 872 131 872 169 q 899 63 872 89 q 985 36 926 36 q 1096 115 1096 36 q 1081 160 1096 143 q 1042 190 1065 178 q 990 211 1018 201 q 939 232 963 221 m 1031 303 q 1078 332 1063 314 q 1094 386 1094 350 q 1074 436 1094 414 q 1003 458 1053 458 q 936 441 960 458 q 913 392 913 424 q 949 338 913 358 q 1031 303 985 318 m 93 910 q 91 932 92 919 q 90 953 90 944 q 110 1022 90 993 q 183 1051 131 1051 q 244 1044 221 1051 q 288 1027 268 1036 q 331 1010 308 1018 q 388 1003 353 1003 q 424 1012 411 1003 q 451 1042 436 1021 l 474 1003 q 390 904 421 946 q 342 824 358 863 q 319 744 325 785 q 314 651 314 704 q 315 638 314 644 q 315 614 315 631 q 313 579 315 596 q 305 549 311 563 q 286 528 299 536 q 251 521 274 521 q 196 546 214 521 q 178 614 178 571 q 194 714 178 667 q 238 802 210 761 q 303 878 267 843 q 382 943 340 914 q 347 932 363 935 q 318 929 331 929 q 279 935 297 929 q 245 947 261 940 q 214 960 229 954 q 182 965 199 965 q 149 953 164 965 q 128 910 133 942 l 93 910 z "},"−":{"ha":788,"x_min":51,"x_max":736,"o":"m 736 442 l 51 442 l 51 543 l 736 543 l 736 442 z "},"":{"ha":925,"x_min":76,"x_max":849,"o":"m 464 810 q 619 785 549 810 q 741 708 690 760 q 820 576 792 656 q 849 388 849 496 q 822 211 849 288 q 744 83 794 135 q 621 3 693 31 q 460 -24 549 -24 q 306 0 376 -24 q 184 73 235 24 q 105 199 133 122 q 76 382 76 275 q 178 702 76 594 q 464 810 281 810 m 463 711 q 373 688 410 711 q 314 622 336 664 q 282 522 292 579 q 272 396 272 464 q 313 160 272 242 q 461 78 353 78 q 552 99 515 78 q 610 160 589 121 q 642 257 632 200 q 651 386 651 314 q 642 514 651 454 q 610 617 632 574 q 553 686 589 661 q 463 711 517 711 z "},"":{"ha":683,"x_min":76,"x_max":608,"o":"m 469 821 q 463 757 465 783 q 461 707 461 731 l 461 139 q 608 79 461 79 l 608 0 l 94 0 l 94 79 q 267 139 267 79 l 267 596 l 82 596 l 76 671 q 344 836 271 675 l 469 821 z "},"":{"ha":886,"x_min":76,"x_max":811,"o":"m 807 238 q 810 199 810 219 q 811 163 811 178 q 803 94 811 126 q 775 37 794 61 q 723 -1 756 13 q 643 -15 690 -15 q 538 -1 578 -15 q 465 31 499 14 q 392 63 431 49 q 289 78 353 78 q 201 56 236 78 q 143 -1 167 35 l 76 -1 q 144 180 99 113 q 244 288 189 247 q 358 352 300 328 q 463 403 415 376 q 542 470 511 431 q 572 583 572 510 q 535 685 572 646 q 419 725 499 725 q 340 718 371 725 q 288 701 308 711 q 254 676 267 690 q 232 647 242 661 q 283 622 260 644 q 307 563 307 599 q 281 494 307 522 q 206 465 254 465 q 134 494 160 465 q 108 569 108 524 q 127 649 108 607 q 188 727 146 692 q 294 786 229 763 q 451 810 360 810 q 575 799 515 810 q 681 763 635 789 q 754 694 726 738 q 782 588 782 651 q 744 449 782 501 q 647 363 706 396 q 519 310 589 331 q 385 267 449 289 q 275 216 322 246 q 214 135 228 186 q 303 188 260 175 q 394 201 346 201 q 473 190 440 201 q 533 166 506 179 q 588 142 561 153 q 647 131 614 131 q 677 133 663 131 q 704 147 692 136 q 728 180 717 158 q 746 238 739 201 l 807 238 z "},"":{"ha":871,"x_min":69,"x_max":794,"o":"m 356 344 q 503 406 447 351 q 560 551 560 460 q 551 614 560 583 q 524 669 543 644 q 474 708 506 693 q 394 722 442 722 q 296 703 340 722 q 222 644 251 685 q 281 619 256 642 q 306 560 306 596 q 279 488 306 517 q 206 460 253 460 q 136 489 161 460 q 111 565 111 518 q 127 647 111 604 q 181 726 143 690 q 282 786 219 763 q 436 810 344 810 q 563 792 504 810 q 666 742 622 775 q 735 660 710 708 q 760 550 760 613 q 713 401 760 464 q 550 315 665 339 q 735 226 676 294 q 794 49 794 158 q 767 -94 794 -31 q 688 -201 739 -157 q 565 -267 638 -244 q 401 -290 492 -290 q 259 -268 321 -290 q 155 -212 197 -246 q 91 -136 113 -178 q 69 -56 69 -94 q 94 23 69 -7 q 167 53 119 53 q 240 24 214 53 q 267 -49 267 -6 q 248 -101 267 -78 q 201 -128 229 -125 q 274 -182 219 -161 q 400 -203 329 -203 q 487 -183 450 -203 q 547 -130 524 -164 q 583 -49 571 -96 q 594 50 594 -3 q 538 209 594 150 q 347 279 482 268 l 356 344 z "},"":{"ha":939,"x_min":63,"x_max":872,"o":"m 746 114 l 872 114 l 856 0 l 746 0 l 746 -268 l 546 -268 l 546 0 l 63 0 l 63 83 l 556 789 l 746 789 l 746 114 m 203 114 l 546 114 l 546 600 l 203 114 z "},"":{"ha":867,"x_min":69,"x_max":790,"o":"m 749 774 q 619 674 699 707 q 451 640 539 640 q 409 642 433 640 q 358 647 385 643 q 302 657 331 650 q 249 675 274 664 l 226 413 q 338 455 282 443 q 456 467 393 467 q 610 436 547 467 q 714 356 674 406 q 772 242 754 306 q 790 115 790 179 q 760 -56 790 19 q 677 -184 731 -132 q 550 -263 624 -236 q 390 -290 476 -290 q 259 -270 318 -290 q 158 -217 200 -250 q 92 -142 115 -185 q 69 -54 69 -100 q 94 22 69 -7 q 164 51 118 51 q 235 23 208 51 q 261 -47 261 -6 q 242 -102 261 -79 q 197 -128 222 -125 q 258 -183 213 -161 q 376 -204 304 -204 q 540 -124 485 -204 q 596 107 596 -44 q 585 203 596 156 q 550 289 574 251 q 488 350 526 326 q 396 374 450 374 q 281 359 332 374 q 178 315 231 344 l 118 358 l 157 808 q 318 792 228 797 q 483 788 408 788 q 620 795 550 788 q 749 818 690 803 l 749 774 z "},"":{"ha":869,"x_min":76,"x_max":792,"o":"m 260 518 q 357 608 296 576 q 510 639 418 639 q 627 616 575 639 q 716 553 679 593 q 772 455 753 513 q 792 329 792 397 q 775 199 792 263 q 716 87 758 136 q 602 8 674 38 q 422 -22 531 -22 q 160 104 243 -22 q 76 488 76 231 q 84 625 76 556 q 110 759 92 694 q 158 880 128 824 q 232 978 188 936 q 337 1044 276 1019 q 476 1068 397 1068 q 591 1051 538 1068 q 683 1005 644 1035 q 744 935 722 975 q 767 847 767 894 q 742 771 767 799 q 671 743 718 743 q 599 770 625 743 q 572 840 572 797 q 592 895 572 872 q 636 919 611 918 q 576 968 617 951 q 486 985 535 985 q 377 952 421 985 q 308 859 333 919 q 271 713 282 799 q 260 518 260 626 m 438 543 q 319 483 363 543 q 276 306 276 424 q 319 118 276 179 q 436 57 361 57 q 559 117 513 57 q 606 300 606 178 q 559 483 606 422 q 438 543 513 543 z "},"":{"ha":743,"x_min":46,"x_max":707,"o":"m 707 733 q 563 541 617 633 q 480 360 508 449 q 443 184 451 271 q 435 8 435 97 q 439 -74 435 -32 q 443 -158 443 -115 q 438 -209 443 -186 q 422 -250 433 -232 q 389 -278 410 -268 q 336 -287 368 -287 q 249 -240 278 -287 q 219 -114 219 -193 q 242 89 219 -17 q 308 294 265 194 q 409 481 350 394 q 540 624 468 567 q 433 596 485 596 q 374 606 401 596 q 319 627 346 615 q 265 649 292 639 q 207 658 238 658 q 176 654 192 658 q 148 639 161 650 q 124 606 135 628 q 108 550 114 585 l 50 550 q 47 590 47 568 q 46 626 46 611 q 54 697 46 664 q 81 756 63 731 q 131 795 100 781 q 210 810 163 810 q 315 797 274 810 q 389 767 356 783 q 455 737 422 750 q 536 724 488 724 q 611 741 581 724 q 668 799 642 758 l 707 733 z "},"":{"ha":883,"x_min":76,"x_max":807,"o":"m 590 588 q 749 476 690 554 q 807 290 807 399 q 779 151 807 210 q 703 53 751 92 q 588 -3 654 15 q 442 -22 521 -22 q 296 -4 363 -22 q 180 51 229 14 q 103 145 131 89 q 76 276 76 201 q 128 446 76 372 q 282 550 181 519 q 217 591 249 567 q 163 647 186 615 q 126 716 140 678 q 113 800 113 754 q 138 922 113 871 q 206 1005 163 972 q 310 1053 250 1038 q 440 1069 369 1069 q 572 1054 511 1069 q 676 1006 632 1039 q 744 925 719 974 q 769 810 769 876 q 722 678 769 738 q 590 588 674 619 m 354 506 q 253 417 282 472 q 225 271 225 363 q 280 120 225 175 q 436 65 335 65 q 590 112 540 65 q 640 247 640 158 q 613 350 640 310 q 542 417 585 390 q 449 465 500 444 q 354 506 399 485 m 499 629 q 589 697 558 656 q 619 817 619 739 q 610 880 619 850 q 581 933 601 910 q 529 971 561 957 q 450 985 497 985 q 319 940 356 985 q 283 826 283 894 q 301 763 283 792 q 348 710 318 733 q 417 666 378 686 q 499 629 456 646 z "},"":{"ha":869,"x_min":76,"x_max":792,"o":"m 235 -136 q 294 -187 254 -168 q 383 -207 335 -207 q 492 -174 449 -207 q 560 -78 535 -140 q 597 72 586 -15 q 607 268 607 160 q 510 179 571 210 q 358 149 450 149 q 241 172 293 149 q 152 235 189 194 q 96 332 115 275 q 76 458 76 389 q 93 587 76 524 q 152 699 110 650 q 266 779 194 749 q 446 810 338 810 q 708 682 625 810 q 792 294 792 554 q 774 90 792 194 q 712 -99 757 -14 q 590 -237 667 -183 q 394 -290 513 -290 q 279 -272 332 -290 q 188 -224 226 -254 q 126 -152 149 -193 q 104 -64 104 -111 q 129 13 104 -15 q 200 40 154 40 q 273 13 247 40 q 299 -57 299 -14 q 279 -112 299 -89 q 235 -136 260 -135 m 431 731 q 308 669 354 731 q 261 486 261 608 q 307 304 261 364 q 428 244 353 244 q 547 304 503 244 q 590 482 590 364 q 548 669 590 608 q 431 731 506 731 z "}}}
